<?xml version="1.0" encoding="UTF-8"?>
<svg id="Capa_1" xmlns="http://www.w3.org/2000/svg" version="1.1" viewBox="0 0 850.394 850.394">
  <!-- Generator: Adobe Illustrator 29.5.0, SVG Export Plug-In . SVG Version: 2.1.0 Build 137)  -->
  <g>
    <path d="M331.957,177.355c2.654-.191,3.745,1.415,4.087,3.649.507,3.31,1.487,6.493,2.352,9.709.957,3.559.915,3.644-2.579,4.536-14.082,3.593-28.162,7.19-42.243,10.782-3.139.802-6.31,1.495-9.406,2.431-2.199.664-3.424-.137-4.035-2.132-.92-3.006-1.865-6.014-2.579-9.073-.842-3.603.146-5.366,3.633-6.696,5.031-1.918,10.321-2.951,15.515-4.301,10.93-2.839,21.881-5.597,32.824-8.381.803-.204,1.62-.352,2.431-.526ZM280.252,195.777c.63,2.317,1.39,4.608,1.853,6.957.456,2.319,1.434,3.129,3.853,2.442,4.09-1.162,8.258-2.044,12.387-3.076,11.397-2.852,22.833-5.556,34.09-8.939,3.465-1.041,3.937-2.109,2.583-5.496-.477-1.198-.993-2.406-1.256-3.658-.697-3.31-1.397-3.944-4.669-3.12-15.521,3.913-31.02,7.913-46.531,11.868-1.587.403-2.424,1.283-2.31,3.023Z" fill-rule="evenodd"/>
    <path d="M565.746,208.64c-6.237-.782-12.272-2.629-18.396-4.055-10.373-2.414-20.718-4.945-31.083-7.391-2.198-.519-5.078-2.678-3.927-6.799.822-2.942,1.542-5.916,2.181-8.902.507-2.369,1.676-3.276,4.146-2.676,17.188,4.171,34.395,8.265,51.585,12.432,2.999.729,3.707,1.908,3.047,4.823-.714,3.158-1.346,6.348-2.583,9.36-.895,2.179-2.373,3.549-4.97,3.208ZM520.076,182.045c-2.113-.295-2.841.471-3.178,1.654-.508,1.779-.964,3.576-1.392,5.377-.951,3.991-.454,4.884,3.58,5.887,6.377,1.586,12.784,3.047,19.165,4.61,8.268,2.024,16.523,4.098,24.786,6.147,4.044,1.002,5.041.376,5.986-3.733.29-1.263.557-2.53.873-3.786.903-3.583.609-4.121-3.026-4.995-12.325-2.964-24.653-5.912-36.981-8.857-3.511-.839-7.029-1.651-9.812-2.304Z" fill-rule="evenodd"/>
    <path d="M290.716,127.639c-2.918-.546-4.937.187-6.525,2.452-2.684,3.828-6.035,4.602-10.155,2.553-3.963-1.971-5.587-5.521-4.43-9.687,1.195-4.3,4.181-6.305,8.731-5.936.909.073,1.865.053,2.748-.148,1.009-.23,1.992-.806,2.3-1.841.375-1.261-.987-1.389-1.639-1.877-5.42-4.055-6.306-8.32-2.619-12.978,2.185-2.762,5.376-3.597,9.015-2.358,3.454,1.174,5.158,3.424,5.265,7.015.027.926-.199,1.878-.05,2.775.162.985-1.395,2.305.181,2.852,1.358.472,2.977.308,4.176-.836.53-.506.968-1.117,1.411-1.708,2.422-3.23,5.576-4.107,9.328-2.578,3.99,1.626,5.986,4.858,5.376,8.707-.682,4.312-3.215,6.947-7.188,7.277-1.56.13-3.147-.1-4.72-.079-1.022.012-1.775.504-1.942,1.615-.167,1.118.407,1.77,1.402,2.082,8.2,2.576,16.24,5.83,25.118,5.316,12.154-.705,21.029-6.949,28.097-16.341,1.379-1.833.216-2.971-1.07-4.238-4.587-4.518-3.084-11.923,2.819-14.083,3.349-1.225,6.218-.035,8.758,2.063,2.483,2.051,3.238,4.913,2.14,7.796-1.171,3.08.079,4.597,2.468,6.123,16.936,10.821,36.773,8.755,50.304-5.777.647-.695,2.24-1.375,1.24-2.642-.896-1.138-2.252-2.087-3.897-1.546-.944.31-1.833.874-2.658,1.451-2.972,2.077-5.431,2.231-8.227.429-3.177-2.049-5.113-5.921-4.303-8.979.804-3.031,2.552-5.526,5.663-6.349,2.996-.791,6.1-.885,8.29,2.081.719.973,1.614.815,2.442.231.929-.654,1.841-1.426,1.17-2.753-.33-.655-.868-1.2-1.235-1.84-1.887-3.29-1.286-7.329,1.452-9.94,3.118-2.971,7.005-3.379,10.401-1.093,3.155,2.123,4.67,6.416,3.502,9.789-.227.653-.57,1.167-1.117,1.536-1.187.798-1.771,1.649-.477,2.871,1.142,1.078,2.236,2.038,3.792.596,2.709-2.513,5.883-2.721,9.019-1.207,3.134,1.514,5.013,4.174,4.793,7.811-.221,3.662-2.352,6.158-5.523,7.768-1.759.892-3.557.768-5.33-.185-3.863-2.078-5.859-2.178-10.153-.566,5,6.832,11.769,10.971,19.634,13.43,8.974,2.807,15.594,2.669,24.357-1.012,2.302-.967,4.683-1.754,6.974-2.746,2.871-1.242,3.49-2.527,2.151-5.21-1.582-3.171-1.655-6.078.845-8.698,2.38-2.492,5.336-3.873,8.79-2.818,3.454,1.055,5.548,3.567,6.26,7.153.476,2.4-.369,4.304-2.041,6.024-2.639,2.717-2.601,3.54.03,6.213,6.834,6.944,14.52,12.428,24.449,13.904,8.685,1.29,16.725-.968,24.475-4.666.599-.286,1.238-.573.964-1.422-.324-1.004-.845-1.859-1.968-2.14-1.217-.304-2.388.01-3.568.258-4.436.932-7.713-.995-9.273-5.44-1.493-4.255-.019-7.888,4.065-10.018,4-2.085,7.634-1.259,10.269,2.36.869,1.195,1.548,2.636,3.426,2.288,1.516-.281,2.617-.412,2.052-2.748-1.791-7.396,2.166-12.401,8.708-11.464,3.715.532,6.262,2.875,7.071,6.504.795,3.567-.402,6.524-3.544,8.643-.898.605-1.853,1.128-2.917,1.77,2.059,2.07,4.335,2.788,6.942,2.314,3.526-.642,6.254.483,8.016,3.584,1.651,2.906,2.187,5.991.163,8.937-2.102,3.06-5.081,4.528-8.853,4.088-1.893-.222-3.169-1.421-4.248-2.875-1.44-1.936-3.363-2.783-5.77-2.776-1.716.007-1.836.561-1.051,1.939,5.85,10.27,14.631,16.22,26.27,18.11,8.567,1.39,16.55-1.062,24.495-3.644,2.762-.898,3.274-2.684,1.858-5.849-1.145-2.557-1.576-4.98.355-7.278,2.219-2.641,5.06-4.06,8.566-3.645,3.19.378,6.098,3.161,6.831,6.521.801,3.673-.661,6.529-3.536,8.749-3.087,2.386-3.125,2.393-.661,5.58,8.85,11.444,19.698,19.826,34.377,22.272,3.297.548,6.675,1.208,9.958.699,3.509-.545,6.853-1.327,8.793-5.35,6.439-13.35,13.309-26.489,19.975-39.729,3.242-6.438,10.796-7.907,16.219-3.077,1.54,1.371,2.678,3.05,3.731,4.818,1.458,2.448,1.271,4.678-.366,6.979-19.305,27.131-49.21,71.616-70.659,108.305-.537.879-.768,1.296-.279,1.296,11.109,0,18.181.201,29.224.208,5.419.105,6.511,1.05,6.502,6.524-.025,15.778-.185,31.553-.192,47.331-.027,56.812-.01,113.625-.01,170.437,0,77.236-.283,154.473.14,231.706.168,30.605-22.858,58.565-54.012,63.237-2.743.412-5.541.648-8.315.65-44.094.041-93.192.067-137.286-.001-9.37-.017-18.747-.395-28.106.073-8.106.402-14.739,3.955-19.861,10.311-3.23,4.008-4.215,4.103-8.023.672-8.456-7.621-18.394-11.2-29.72-11.187-53.374.061-101.746.12-155.122.156-32.533.024-58.692-22.281-63.693-54.342-.469-3.01-.642-6.099-.643-9.149-.032-121.61-.021-243.218-.031-364.826-.002-27.756-.053-55.51-.081-83.265-.001-.837-.023-1.673.007-2.507.15-4.419,1.561-5.99,5.946-5.79,8.536.391,20.218.233,28.752.153.779-.007,2.305.087,2.283-.39-.022-.465-.211-.331-.611-1.025-20.314-35.224-43.397-68.632-66.725-101.882-1.17-1.668-2.346-3.353-3.303-5.146-2.484-4.655-1.685-8.822,2.448-12.145,3.893-3.131,8.416-4.578,13.45-4.356,2.389.105,3.911,1.267,4.931,3.42,6.586,13.891,13.242,27.748,19.822,41.642.704,1.485,1.557,2.169,3.281,2.363,6.999.79,13.936,1.914,21.046.981,11.202-1.47,19.512-7.064,25.119-16.794,1.85-3.211,1.701-3.619-1.711-5.077-4.588-1.961-6.177-5.526-4.513-10.122,1.657-4.572,5.285-6.504,9.885-5.264,4.934,1.33,7.056,4.603,6.007,9.589-.421,1.998-.338,3.621,1.908,4.166,10.24,2.477,20.524,4.468,30.994,1.295,9.158-2.775,15.284-8.985,19.736-17.402ZM660.551,483.226v-216.11c0-.836.021-1.672-.008-2.506-.11-3.239-1.099-4.372-4.284-4.614-5.374-.405-10.755-.034-16.131-.033-104.621.021-209.241.016-313.861.014-1.851,0-3.706-.095-5.552.003-4.244.226-5.221,1.215-5.26,5.406-.032,3.431.125,6.863.133,10.295.042,18.75.067,37.501.087,56.252.005,4.517-1.257,5.743-5.836,5.735-38.149-.059-76.299-.122-114.447-.18-6.197-.009-7.265,1.072-7.265,7.284v255.076c0,31.285.005,62.568-.006,93.851-.002,3.808.058,7.611.565,11.388,1.867,13.881,7.826,25.411,19.522,33.564,9.257,6.454,19.765,8.683,30.822,8.678,52.63-.031,101.259-.153,153.89-.178,10.34-.006,20.31,1.715,29.224,7.454,1.955,1.258,3.76,1.041,5.62-.416,5.588-4.383,12.071-6.304,19.079-6.775,6.397-.43,12.791-.108,19.187-.1,45.302.061,94.606.036,139.907.022,2.687,0,5.38-.062,8.062-.229,14.225-.882,26.556-5.864,35.767-17.125,7.862-9.614,10.789-20.929,10.788-33.156-.003-71.201-.001-142.401-.001-213.604ZM416.659,144.339c-2.226.012-4.453-.008-6.678.043-2.315.052-4.628.18-6.943.262-31.733,1.117-62.831,6.347-93.482,14.457-37.629,9.955-73.737,24.05-109.115,40.132-4.019,1.828-4.28,2.52-2.448,6.551,5.145,11.323,11.15,22.177,17.858,32.645,3.439,5.676,10.936,5.172,14.884,4.626,25.805-10.846,52.035-20.518,78.893-28.435,30.796-9.078,62.209-14.651,94.294-16.174,38.077-1.806,75.489,2.797,112.448,11.839,32.703,7.999,64.064,19.262,95.918,30.265,12.067,3.051,15.025,5.687,20.065-3.282,5.899-10.5,10.985-21.329,17.051-31.737,2.3-3.946,1.89-5.272-2.269-7-34.398-14.291-69.249-27.293-105.279-36.931-41.012-10.97-82.642-17.501-125.195-17.262ZM667.243,173.898c-2.073.011-3.714-.028-5.352.036-11.886.46-22.755-2.478-32.394-9.603-5.346-3.953-9.807-8.765-13.81-14.04-2.879-3.795-4.297-4.167-8.829-2.53-1.828.66-3.652,1.338-5.508,1.917-13.63,4.257-26.529,3.429-38.235-5.566-4.218-3.243-7.856-7.064-11.132-11.243-3.005-3.835-3.516-3.961-7.928-2.147-1.028.423-2.065.824-3.109,1.203-17.489,6.36-36.113,1.504-48.249-12.574-4.103-4.759-5.349-4.975-10.902-2.049-9.785,5.157-17.78,7.539-28.848,5.61-9.422-1.641-17.366-6.226-24.551-12.319-2.747-2.33-3.411-2.334-6.068.135-.409.378-.792.784-1.2,1.162-8.246,7.616-17.743,12.056-29.206,11.315-8.24-.533-17.955-3.551-24.943-7.78-4.724-2.86-5.377-2.745-8.574,1.664-7.841,10.813-18.126,17.443-31.709,17.974-8.825.346-17.318-1.45-25.385-5.149-4.082-1.871-5.297-1.493-7.402,2.364-6.643,12.172-17.222,17.913-30.726,18.974-7.675.603-15.146-.484-22.544-2.439-3.916-1.035-5.736-.375-7.393,2.968-6.773,13.664-18.254,19.624-32.97,20.359-5.011.25-10.013-.086-15.008-.421-2.076-.139-2.801.139-1.898,2.52,2.074,5.467,5.044,10.51,7.191,15.933.947,2.392,2.804,3.08,5.204,2.314.967-.309,1.916-.694,2.841-1.117,26.372-12.078,53.314-22.689,80.902-31.672,49.404-16.087,99.928-24.728,152.026-23.465,27.904.677,55.418,4.202,82.669,10.1,39.309,8.509,77.324,21.125,114.63,36,7.398,2.949,14.734,6.052,22.159,8.934,4.071,1.58,5.969,1.066,8.176-1.719,3.613-4.562,5.407-10.041,8.075-15.647ZM589.173,243.398c-112.267-47.03-222.954-50.672-334.657,0,111.993.235,222.855.75,334.657,0Z" fill-rule="evenodd"/>
    <path d="M460.226,176.306c-23.091,9.83-46.791,9.557-69.889.019,21.015-9.673,48.141-9.274,69.889-.019Z" fill-rule="evenodd"/>
    <path d="M256.411,215.301c-4.483.054-8.361-3.681-8.519-8.207-.157-4.507,3.867-8.635,8.405-8.622,4.45.014,8.334,3.905,8.357,8.375.025,4.513-3.766,8.399-8.243,8.454Z" fill-rule="evenodd"/>
    <path d="M595.322,198.458c4.65-.003,8.412,3.619,8.463,8.15.051,4.437-3.784,8.366-8.266,8.467-4.548.103-8.644-3.905-8.609-8.423.036-4.564,3.76-8.192,8.412-8.194Z" fill-rule="evenodd"/>
    <path d="M361.839,188.532c-4.826.063-8.375-3.475-8.391-8.363-.016-4.752,3.446-8.205,8.228-8.209,4.69-.003,8.295,3.54,8.346,8.202.05,4.603-3.575,8.311-8.183,8.37Z" fill-rule="evenodd"/>
    <path d="M479.63,180.052c.033-4.693,3.629-8.182,8.338-8.09,4.596.089,8.377,3.882,8.296,8.32-.085,4.555-3.813,8.235-8.362,8.25-4.758.018-8.308-3.623-8.273-8.48Z" fill-rule="evenodd"/>
  </g>
  <path d="M527.495,501.432c2.56-8.618,4.958-16.772,7.411-24.911,1.601-5.317,2.958-10.702,4.464-16.043,3.57-12.665,12.704-19.378,25.159-21.342,11.452-1.807,21.125,2.032,27.734,11.92,8.837,13.22,4.571,31.992-9.406,41.704-5.838,4.058-12.26,6.425-19.561,5.842-2.656-.212-3.92,1.468-4.614,3.898-3.41,11.929-6.589,23.939-10.486,35.709-1.981,5.984-1.445,11.1.943,16.81,13.962,33.387,27.626,66.899,41.389,100.369.036.086.054.179.087.265,2.132,5.255,1.551,6.143-4.144,6.106-9.744-.064-19.474.242-29.196.852-4.146.259-5.666-.602-7.273-4.476-6.704-16.157-13.389-32.322-20.087-48.48-.349-.843-.761-1.66-1.419-3.086-1.865,6.311-3.586,12.065-5.268,17.831-5.028,17.244-9.893,34.536-15.098,51.725-6.283,20.742-32.13,28.079-48.472,13.919-9.306-8.064-11.634-23.458-4.909-35.256,6.283-11.024,15.653-17.328,28.759-17.177,4.518.052,5.112-.467,6.379-4.851,3.803-13.164,7.619-26.324,11.437-39.483,1.236-4.257.651-5.036-3.906-5.036-47.529-.002-95.058-.002-142.588,0-3.135,0-3.145.012-1.511,2.87,11.548,20.195,23.039,40.422,34.674,60.568,5.712,9.888,7.149,19.979,2.062,30.483-5.511,11.374-17.636,18.244-28.955,16.613-12.801-1.843-22.918-11.66-25.012-24.536-1.948-11.983,1.027-22.419,10.288-30.686,1.097-.978,1.587-1.947.756-3.374-7.224-12.407-14.421-24.83-21.634-37.243-.126-.217-.371-.363-.807-.776-2.191,5.229-4.391,10.263-6.419,15.367-4.819,12.121-10.316,23.964-14.624,36.298-2.391,6.848-5.797,8.83-12.966,8.12-9.912-.98-19.844-.387-29.765-.479-2.308-.022-3.026-.115-1.973-2.734,12.672-31.516,25.352-63.027,38.494-94.352,1.779-4.241,1.546-7.861-.769-11.832-13.765-23.611-27.464-47.261-41.023-70.99-8.582-15.022-1.443-35.751,14.378-42.414,15.558-6.554,32.82,2.017,38.117,18.97,3.623,11.6,1.888,22.114-6.375,31.34-3.49,3.895-3.496,5.997-.835,10.457,4.408,7.392,8.72,14.842,13.228,22.534,3.609-8.749,7.169-17.261,10.638-25.81,23.135-57.038,46.248-114.083,69.372-171.125,1.799-4.437,3.28-5.381,7.99-5.295,14.657.268,29.315.306,43.971.002,5.728-.119,7.326.902,9.481,6.17,23.37,57.136,46.74,114.272,70.12,171.402.449,1.097,1.031,2.14,1.764,3.642ZM425.533,357.748c-1.616.955-1.936,2.475-2.481,3.803-10.399,25.331-20.76,50.677-31.153,76.011-14.573,35.526-29.166,71.043-43.742,106.568-1.902,4.633-1.46,5.271,3.516,5.278,48.527.068,97.051.138,145.576.206,7.609.01,7.872-.427,4.985-7.368-22.351-53.732-44.687-107.47-67.028-161.207-3.214-7.735-6.426-15.47-9.673-23.289Z" fill-rule="evenodd"/>
</svg>