<?xml version="1.0" encoding="UTF-8"?>
<svg id="Capa_1" xmlns="http://www.w3.org/2000/svg" version="1.1" viewBox="0 0 1842.52 850.394">
  <!-- Generator: Adobe Illustrator 29.5.0, SVG Export Plug-In . SVG Version: 2.1.0 Build 137)  -->
  <g>
    <g>
      <path d="M781.498,296.359l15.812,28.837-6.442,3.533,66.509,54.709,7.671-4.203,15.812,28.836-49.085,26.913-15.811-28.836,4.142-2.272-4.952-4.663-33.904,18.586,1.122,6.767,4.138-2.267,15.817,28.837-48.935,26.829-15.813-28.836,7.671-4.208-10.367-85.49-5.525,3.03-15.811-28.841,67.951-37.261ZM776.536,388.46l16.258-8.914-19.229-15.788,2.97,24.702Z"/>
      <polygon points="980.612 269.729 949.241 279.003 946.814 270.781 938.423 273.259 961.084 349.928 969.469 347.449 978.793 378.992 923.426 395.351 914.107 363.813 922.661 361.284 900.005 284.615 891.451 287.145 893.88 295.362 862.504 304.635 850.757 264.875 968.865 229.969 980.612 269.729"/>
      <polygon points="1056.269 248.711 1067.121 327.92 1093.12 324.357 1091.934 315.69 1124.344 311.248 1129.998 352.498 1023.235 367.129 1018.767 334.547 1027.435 333.357 1016.579 254.152 1007.915 255.338 1003.448 222.756 1060.47 214.938 1064.938 247.525 1056.269 248.711"/>
      <polygon points="1192.6 317.745 1218.141 317.552 1218.099 311.779 1250.984 311.536 1251.273 350.195 1144.042 351.002 1143.794 318.111 1152.542 318.048 1151.942 238.101 1143.195 238.169 1142.947 205.278 1250.179 204.476 1250.471 242.958 1217.581 243.205 1217.541 237.609 1191.999 237.802 1192.175 261.242 1198.124 261.198 1198.079 255.601 1230.792 255.352 1231.128 299.611 1198.415 299.856 1198.371 294.083 1192.421 294.128 1192.6 317.745"/>
      <polygon points="1402.958 262.007 1370.507 257.886 1371.585 249.384 1362.907 248.283 1352.84 327.593 1361.52 328.695 1357.378 361.322 1300.11 354.054 1304.247 321.426 1313.102 322.549 1323.164 243.239 1314.313 242.116 1313.235 250.618 1280.783 246.499 1286.004 205.368 1408.179 220.877 1402.958 262.007"/>
      <polygon points="1459.481 383.255 1403.634 369.333 1411.585 337.422 1420.074 339.537 1439.406 261.962 1430.919 259.847 1438.875 227.937 1494.722 241.855 1486.766 273.765 1478.282 271.649 1458.945 349.225 1467.432 351.34 1459.481 383.255"/>
      <polygon points="1611.7 342.443 1574.378 327.884 1581.066 310.738 1578.534 304.715 1558.652 296.957 1552.537 299.631 1526.837 365.49 1529.589 371.435 1549.47 379.193 1555.365 376.611 1561.722 360.315 1599.044 374.874 1587.53 404.376 1557.399 417.591 1497.589 394.254 1484.363 364.146 1520.376 271.852 1550.563 258.499 1610.373 281.836 1623.554 312.062 1611.7 342.443"/>
      <path d="M1659.594,328.519l32.228-7.132,54.021,34.695,6.926,32.273-53.534,83.361-32.135,6.981-54.025-34.69-7.018-32.126,53.538-83.362ZM1711.391,378.646l-1.279-6.425-17.957-11.53-6.522,1.412-38.199,59.486,1.518,6.372,17.962,11.531,6.278-1.358,38.2-59.486Z"/>
    </g>
    <g>
      <path d="M1675.557,661.032c-5.537-.046-9.94-3.268-13.212-9.661-2.446-5.139-3.645-10.828-3.593-17.059.102-12.178,3.134-27.104,9.093-44.774-.686-.695-1.168-1.049-1.441-1.051-4.294-.036-8.699,5.327-13.218,16.087-1.13,2.623-2.965,7.036-5.51,13.242l-8.267,20.488c-5.653,13.798-11.248,20.671-16.785,20.625-5.676-.047-8.482-3.738-8.421-11.072l.029-3.529c.104-12.459,1.527-25.739,4.277-39.834,4.187-20.731,9.88-31.066,17.079-31.006,5.673.047,8.486,3.326,8.432,9.829-.013,1.527-1.101,7.468-3.263,17.833l-.219,1.449c10.127-19.292,20.036-28.902,29.726-28.821,3.875.032,7.663,2.487,11.359,7.363,3.696,4.88,5.53,9.321,5.496,13.335l-.119,14.326-7.742,31.914-.035,4.155.623.005c3.62-2.602,6.973-6.382,10.061-11.34,2.53-4.405,5.057-8.813,7.587-13.225l9.551.08c-1.047,9.269-4.167,17.963-9.357,26.086-6.308,9.776-13.688,14.627-22.13,14.557"/>
      <path d="M787.304,600.173c5.103.043,7.639,2.14,7.605,6.298-.026,3.117-2.408,5.461-7.148,7.03-8.154,2.863-12.261,8.071-12.324,15.632-.05,6.049,2.273,10.79,6.972,14.233,4.038,2.87,9.178,4.331,15.418,4.383,12.474.104,23.417-3.443,32.834-10.645,5.896-4.578,8.877-10.414,8.936-17.504.036-4.344-.786-8.271-2.456-11.785-1.765-3.605-4.468-8.163-8.107-13.678-5.601-8.55-10.31-16.337-14.123-23.364-4.284-7.784-6.393-15.412-6.331-22.878.147-17.668,9.026-34.132,26.637-49.391,9.328-7.953,19.589-14.389,30.782-19.308,9.296-3.981,18.24-5.94,26.842-5.868,5.571.046,10.285,1.551,14.137,4.51,4.697,3.539,7.02,8.327,6.97,14.376-.079,9.452-5.267,19.616-15.565,30.492-9.724,10.217-21.042,18.534-33.946,24.948-6.452,3.16-11.336,4.723-14.639,4.695-2.178-.018-4.103-.927-5.793-2.741-1.121-1.237-1.677-2.611-1.664-4.125.029-3.494,3.17-6.303,9.427-8.424,11.467-3.968,21.626-9.602,30.476-16.9,11.417-9.353,17.157-17.579,17.216-24.663.023-2.74-1.094-4.974-3.348-6.692-1.784-1.337-3.903-2.019-6.361-2.039-6.522-.054-14.716,2.384-24.587,7.31-13.283,6.602-23.753,15.161-31.399,25.681-6.692,9.111-10.071,18.015-10.143,26.708-.053,6.329,1.64,12.866,5.078,19.602,2.882,5.414,6.569,11.536,11.047,18.382,4.29,6.557,7.925,12.636,10.905,18.232,3.439,6.646,5.135,12.852,5.087,18.614-.093,11.151-6.553,20.976-19.381,29.467-10.93,7.09-23.243,10.577-36.944,10.463-13.515-.113-24.067-3.929-31.658-11.459-5.715-5.719-8.545-12.264-8.483-19.635.069-8.221,2.867-15.096,8.394-20.627,3.332-3.376,7.277-5.892,11.827-7.553,3.127-1.202,5.734-1.796,7.811-1.778"/>
      <path d="M901.587,639.721c-5.756,9.226-13.475,13.799-23.165,13.718-7.888-.066-14.017-3.85-18.385-11.36-3.549-6.264-5.285-13.613-5.215-22.059.117-13.98,5.132-26.537,15.057-37.668,8.941-9.892,17.218-14.806,24.833-14.743,5.949.05,11.258,2.865,15.918,8.441,4.606-4.529,8.5-6.783,11.686-6.756,4.702.039,7.027,3.73,6.966,11.064-.035,4.152-1.307,11.203-3.808,21.149-2.507,9.946-3.779,17.274-3.818,21.976l-.114,13.706c3.053-1.083,5.636-3.343,7.739-6.789,3.227-5.371,5.122-8.331,5.681-8.88,2.936-3.3,7.243-5.547,12.932-6.746-1.741,9.402-4.996,17.818-9.765,25.252-6.03,9.224-13.126,13.801-21.291,13.733-6.369-.053-11.455-4.732-15.25-14.038M901.613,586.773c-.961-1.116-2.548-1.683-4.761-1.702-4.432-.037-8.57,6.366-12.413,19.206-1.283,4.422-3.297,13.261-6.036,26.529.122,1.94,1.762,4.244,4.926,6.895,5.406-.925,10.166-7.254,14.28-18.987,3.539-9.799,5.344-18.227,5.403-25.288.024-2.906-.445-5.123-1.4-6.654"/>
      <path d="M1001.826,656.13c-5.537-.046-9.939-3.27-13.21-9.661-2.448-5.139-3.647-10.828-3.595-17.059.102-12.179,3.134-27.104,9.093-44.776-.686-.695-1.168-1.049-1.441-1.051-4.294-.036-8.699,5.327-13.218,16.087-1.13,2.622-2.965,7.036-5.51,13.242l-8.267,20.488c-5.653,13.798-11.248,20.671-16.785,20.625-5.675-.047-8.481-3.738-8.42-11.073l.029-3.528c.104-12.46,1.526-25.74,4.276-39.836,4.186-20.729,9.88-31.065,17.079-31.005,5.672.047,8.485,3.326,8.431,9.83-.013,1.527-1.101,7.467-3.262,17.832l-.22,1.449c10.127-19.292,20.037-28.903,29.726-28.822,3.875.032,7.663,2.488,11.36,7.364,3.697,4.879,5.529,9.321,5.495,13.334l-.119,14.326-7.742,31.915-.035,4.155.623.005c3.62-2.603,6.973-6.383,10.061-11.341,2.53-4.405,5.057-8.813,7.588-13.224l9.551.08c-1.047,9.269-4.167,17.963-9.357,26.086-6.308,9.775-13.686,14.628-22.13,14.558"/>
      <path d="M1236.469,642.84c-8.795,8.508-16.791,12.73-23.987,12.67l-11.833-.099c-5.679-.047-11.325-3.282-16.948-9.693-6.582-7.528-9.829-16.487-9.742-26.866.038-4.571,1.607-10.438,4.714-17.612,9.452-21.237,22.9-31.788,40.34-31.642,13.979.117,20.913,7.308,20.794,21.561-.08,9.551-3.885,17.688-11.417,24.407-3.346,2.881-11.209,7.73-23.585,14.546-3.478,1.914-5.218,3.281-5.225,4.112-.015,1.797,1.043,3.402,3.178,4.806,2.132,1.403,4.168,2.106,6.107,2.122,6.503.054,11.499-1.493,14.989-4.65l24.076-23.678-.142,17.024c-4.757,6.055-8.53,10.384-11.319,12.993M1217.317,586.197c-.342-.418-1-.632-1.967-.64-2.909-.024-5.839,2.999-8.796,9.063-1.838,4.417-3.675,8.832-5.509,13.246l-.059,7.057c11.123-6.134,16.727-14.115,16.809-23.946.023-2.767-.139-4.361-.478-4.78"/>
      <path d="M1303.631,641.322l-10.607,2.195c-6.633,15.029-15.419,22.503-26.351,22.412-7.199-.06-13.054-3.216-17.569-9.48-4.107-5.562-6.129-12.149-6.065-19.754l.225-26.964c.033-4.01,1.79-15.332,5.267-33.969,4.051-21.263,8.841-39.475,14.366-54.64,9.637-26.881,20.132-40.277,31.483-40.183,5.26.044,9.252,2.706,11.978,7.979,2.316,4.31,3.451,9.297,3.404,14.966-.098,11.75-4.161,25.888-12.191,42.411-4.085,8.264-11.336,23.065-21.755,44.41-7.611,16.114-11.463,29.908-11.559,41.384l-.121,14.517c-.025,3.041.441,4.838,1.41,5.4.271.279,1.101.425,2.486.436,1.798.015,4.617-1.901,8.458-5.741,3.838-3.839,5.904-6.803,6.199-8.879-5.571-12.642-8.348-19.796-8.334-21.458l.119-14.326c.037-4.429,1.599-9.607,4.697-15.534,3.656-6.889,7.698-10.318,12.131-10.281,3.456.029,6.347,2.269,8.665,6.718,2.043,3.754,3.051,7.499,3.02,11.239l-.107,12.872c-1.036,7.881-2.333,13.893-3.887,18.032l-.017,2.077,3.114.026c2.641-1.64,4.588-2.451,5.834-2.441.831.007,1.795.292,2.902.851.133.144,2.211.227,6.225.26-4.778,8.684-9.252,13.838-13.418,15.465M1294.416,501.483c.021-2.483-.395-3.727-1.246-3.734-4.241-.035-7.987,7.8-11.228,23.502-1.771,8.267-4.147,22.047-7.138,41.339,12.958-26.799,19.49-46.411,19.594-58.827l.019-2.28ZM1288.176,602.154l-.87,4.768c-.038,4.568.211,7.824.749,9.765,1.293-5.523,1.948-9.327,1.966-11.405-.138-.417-.75-1.458-1.844-3.129"/>
      <path d="M1360.086,642.828c-5.756,9.226-13.476,13.8-23.165,13.72-7.889-.066-14.018-3.851-18.384-11.361-3.549-6.263-5.285-13.613-5.215-22.058.117-13.98,5.131-26.537,15.056-37.668,8.942-9.892,17.218-14.806,24.833-14.743,5.949.05,11.259,2.864,15.919,8.441,4.606-4.53,8.5-6.783,11.685-6.756,4.704.039,7.028,3.729,6.966,11.064-.035,4.152-1.307,11.204-3.808,21.149-2.508,9.946-3.779,17.274-3.818,21.977l-.114,13.706c3.052-1.083,5.635-3.344,7.737-6.789,3.229-5.372,5.122-8.331,5.682-8.88,2.936-3.301,7.242-5.547,12.932-6.746-1.74,9.402-4.998,17.818-9.766,25.251-6.03,9.224-13.125,13.803-21.292,13.735-6.368-.053-11.455-4.734-15.249-14.04M1360.113,589.881c-.961-1.116-2.549-1.684-4.762-1.702-4.433-.037-8.569,6.366-12.413,19.207-1.283,4.422-3.296,13.261-6.035,26.529.122,1.94,1.762,4.244,4.926,6.895,5.407-.925,10.167-7.254,14.281-18.988,3.538-9.798,5.343-18.227,5.402-25.287.024-2.905-.445-5.123-1.399-6.654"/>
      <path d="M1456.164,648.405c-6.42,6.042-12.258,9.035-17.519,8.991l-11.21-.093c-4.848-.04-9.396-2.296-13.649-6.757-5.35-5.995-7.979-14.19-7.892-24.571.025-3.041,3.634-12.704,10.831-28.98,1.694-3.723,4.016-8.341,6.97-13.853,4.219-7.854,7.018-11.778,8.402-11.767,5.119.043,7.657,2.972,7.609,8.787l-.078,9.343c-.013,1.524,2.302,6.425,6.939,14.695,4.634,8.278,6.933,15.322,6.884,21.137-.731,4.146-1.309,7.462-1.746,9.952.694-.548,1.258-1.236,1.68-2.064,2.248-4.684,7.061-8.73,14.428-12.129l-.097,11.625c-2.679,5.658-6.529,10.886-11.552,15.686M1431.519,615.809c.015-1.798-.993-5.476-3.021-11.031-.985,1.516-2.606,4.824-4.858,9.927,2.187,2.65,3.27,6.049,3.235,10.202-.03,3.602-.889,6.915-2.575,9.945-.986,1.931-1.55,3.031-1.687,3.308-.009,1.114.259,1.664.817,1.668.55.005,1.874-1.02,3.97-3.084,2.651-2.745,3.993-5.847,4.022-9.31l.097-11.626Z"/>
      <path d="M1497.966,579.608c-.691.133-3.171.182-7.446.146-.551-.005-1.173.271-1.864.829-.152.826-1.185,7.325-3.111,19.486-2.651,16.587-4.025,30.695-4.122,42.32-.018,2.216.249,3.327.804,3.331.965.008,3.353-3.435,7.147-10.326,2.811-5.375,4.781-9.443,5.915-12.203l8.304.069-.107,12.875c-7.624,17.654-16.075,26.443-25.344,26.365-4.707-.039-8.566-2.289-11.573-6.74-2.457-4.037-3.666-8.546-3.624-13.526l.144-17.235c.04-4.845,1.08-13.698,3.127-26.554l3.266-18.036c-1.722-1.812-3.714-3.771-5.973-5.865l.031-3.74.055-6.642c6.691.056,10.901-4.824,12.621-14.637,2.167-13.689,5.843-20.509,11.035-20.466,5.462.046,8.162,4.567,8.087,13.564-.035,4.151-1.122,9.889-3.26,17.208l-.038,4.568,6.854.057c1.246.01,3.322-.315,6.238-.987l-.114,13.703c-3.46,1.498-5.812,2.306-7.052,2.433"/>
      <path d="M1533.351,650.295c-6.302,8.946-13.123,13.388-20.46,13.327-5.811-.048-10.49-3.822-14.025-11.331-2.588-5.28-3.86-10.131-3.823-14.567l.106-12.664c4.567-33.603,11.079-50.366,19.522-50.296,4.428.037,7.113,1.583,8.06,4.636.539,1.389.788,4.782.743,10.181-.046,5.538-1.23,14.561-3.548,27.068-2.32,12.51-3.501,21.67-3.55,27.484-.015,1.8.393,2.708,1.224,2.715.551.005,2.017-1.718,4.404-5.154l14.506-21.479c1.237,1.118,2.605,2.793,4.11,5.018.408.973.602,2.637.583,4.988-.05,5.953-2.669,12.645-7.853,20.076M1526.701,551.606c-2.792,2.471-5.223,3.697-7.3,3.679-3.46-.029-6.392-1.613-8.784-4.747-2.398-3.133-3.581-6.431-3.552-9.891.033-4.014,1.313-7.809,3.832-11.39,2.801-4.129,6.074-6.179,9.81-6.148,7.477.062,11.169,5.423,11.08,16.082-.042,4.983-1.738,9.122-5.086,12.415"/>
      <path d="M1575.318,644.623c-5.756,9.226-13.475,13.8-23.165,13.72-7.887-.066-14.017-3.851-18.384-11.361-3.549-6.263-5.286-13.613-5.215-22.058.117-13.98,5.132-26.537,15.058-37.668,8.941-9.892,17.217-14.806,24.833-14.743,5.949.05,11.258,2.864,15.919,8.441,4.606-4.53,8.499-6.783,11.685-6.756,4.703.039,7.028,3.729,6.966,11.064-.035,4.152-1.307,11.204-3.808,21.149-2.507,9.946-3.779,17.274-3.818,21.977l-.114,13.706c3.053-1.083,5.634-3.344,7.739-6.789,3.227-5.372,5.122-8.331,5.681-8.88,2.936-3.301,7.243-5.547,12.933-6.746-1.742,9.402-4.998,17.818-9.766,25.251-6.03,9.224-13.126,13.803-21.293,13.735-6.367-.053-11.455-4.734-15.249-14.04M1575.344,591.676c-.961-1.116-2.548-1.684-4.761-1.702-4.432-.037-8.57,6.366-12.414,19.207-1.282,4.422-3.296,13.261-6.035,26.529.122,1.94,1.762,4.244,4.926,6.895,5.407-.925,10.167-7.254,14.281-18.988,3.539-9.798,5.344-18.227,5.402-25.287.024-2.905-.446-5.123-1.399-6.654"/>
      <path d="M791.027,600.204c5.104.043,7.64,2.14,7.605,6.298-.026,3.117-2.408,5.461-7.147,7.03-8.155,2.863-12.262,8.071-12.325,15.632-.05,6.049,2.274,10.79,6.972,14.233,4.039,2.87,9.178,4.331,15.418,4.383,12.474.104,23.417-3.443,32.834-10.645,5.897-4.578,8.877-10.414,8.936-17.504.036-4.344-.786-8.271-2.456-11.785-1.765-3.605-4.467-8.163-8.107-13.678-5.6-8.55-10.31-16.337-14.123-23.364-4.284-7.784-6.393-15.412-6.331-22.878.147-17.668,9.026-34.132,26.637-49.391,9.328-7.953,19.589-14.389,30.783-19.308,9.295-3.981,18.239-5.94,26.842-5.868,5.571.046,10.284,1.551,14.136,4.51,4.697,3.539,7.021,8.327,6.97,14.376-.079,9.452-5.267,19.616-15.565,30.492-9.725,10.217-21.041,18.534-33.947,24.948-6.452,3.16-11.335,4.723-14.638,4.695-2.178-.018-4.103-.927-5.792-2.741-1.121-1.237-1.678-2.611-1.665-4.125.029-3.494,3.17-6.303,9.428-8.424,11.466-3.968,21.625-9.602,30.475-16.9,11.418-9.353,17.157-17.579,17.216-24.663.023-2.74-1.094-4.974-3.349-6.692-1.784-1.337-3.903-2.019-6.361-2.039-6.521-.054-14.714,2.384-24.586,7.31-13.284,6.602-23.754,15.16-31.398,25.681-6.693,9.111-10.072,18.015-10.144,26.708-.053,6.329,1.64,12.866,5.079,19.602,2.881,5.414,6.568,11.536,11.047,18.382,4.29,6.557,7.924,12.636,10.904,18.232,3.439,6.646,5.136,12.852,5.088,18.614-.093,11.151-6.554,20.976-19.381,29.467-10.93,7.09-23.243,10.577-36.943,10.463-13.515-.113-24.068-3.929-31.658-11.459-5.715-5.719-8.544-12.264-8.483-19.635.069-8.221,2.866-15.096,8.393-20.627,3.332-3.376,7.277-5.892,11.827-7.553,3.127-1.202,5.735-1.796,7.811-1.778"/>
      <path d="M1114.129,602.182c5.103.043,7.64,2.14,7.605,6.298-.026,3.117-2.408,5.461-7.148,7.03-8.154,2.863-12.26,8.071-12.323,15.632-.05,6.049,2.273,10.789,6.972,14.233,4.038,2.87,9.177,4.331,15.416,4.383,12.475.104,23.418-3.442,32.835-10.645,5.897-4.577,8.877-10.414,8.936-17.504.036-4.344-.786-8.27-2.456-11.785-1.765-3.605-4.468-8.162-8.107-13.678-5.601-8.55-10.31-16.337-14.124-23.364-4.284-7.784-6.393-15.412-6.33-22.878.147-17.668,9.026-34.132,26.637-49.391,9.328-7.952,19.589-14.389,30.783-19.308,9.295-3.981,18.239-5.94,26.842-5.868,5.571.046,10.285,1.551,14.136,4.51,4.698,3.539,7.019,8.327,6.969,14.376-.079,9.452-5.266,19.616-15.564,30.492-9.725,10.217-21.042,18.534-33.946,24.948-6.453,3.16-11.335,4.723-14.639,4.696-2.178-.018-4.104-.927-5.793-2.741-1.121-1.237-1.677-2.611-1.665-4.125.029-3.495,3.169-6.304,9.427-8.424,11.467-3.968,21.626-9.602,30.476-16.9,11.417-9.352,17.157-17.578,17.216-24.663.023-2.74-1.094-4.974-3.349-6.692-1.784-1.337-3.903-2.018-6.36-2.039-6.522-.054-14.715,2.383-24.586,7.309-13.284,6.602-23.754,15.16-31.399,25.681-6.693,9.111-10.071,18.015-10.143,26.709-.053,6.33,1.64,12.866,5.078,19.602,2.882,5.414,6.569,11.536,11.047,18.382,4.29,6.557,7.925,12.636,10.906,18.233,3.439,6.645,5.135,12.852,5.087,18.613-.093,11.153-6.554,20.976-19.381,29.467-10.93,7.089-23.243,10.576-36.944,10.462-13.515-.113-24.068-3.929-31.657-11.459-5.716-5.719-8.544-12.265-8.482-19.636.069-8.22,2.866-15.095,8.393-20.625,3.332-3.376,7.277-5.892,11.827-7.554,3.127-1.201,5.735-1.795,7.81-1.778"/>
      <path d="M1110.133,602.149c5.102.043,7.639,2.14,7.605,6.298-.026,3.117-2.41,5.461-7.148,7.03-8.155,2.863-12.26,8.071-12.323,15.632-.05,6.049,2.273,10.789,6.97,14.233,4.04,2.87,9.179,4.331,15.418,4.383,12.475.104,23.417-3.442,32.835-10.645,5.896-4.577,8.876-10.414,8.935-17.504.036-4.344-.785-8.27-2.456-11.785-1.765-3.605-4.467-8.162-8.107-13.678-5.6-8.55-10.31-16.337-14.122-23.364-4.285-7.784-6.393-15.412-6.331-22.878.147-17.668,9.026-34.132,26.636-49.391,9.329-7.952,19.589-14.389,30.783-19.308,9.295-3.981,18.239-5.94,26.842-5.868,5.571.046,10.285,1.551,14.137,4.51,4.697,3.539,7.02,8.327,6.97,14.376-.079,9.452-5.267,19.616-15.565,30.492-9.725,10.217-21.042,18.534-33.948,24.948-6.452,3.16-11.335,4.723-14.639,4.696-2.176-.018-4.102-.927-5.792-2.741-1.122-1.237-1.678-2.611-1.665-4.125.029-3.495,3.17-6.304,9.428-8.424,11.467-3.968,21.626-9.602,30.476-16.9,11.417-9.352,17.157-17.578,17.216-24.663.023-2.74-1.096-4.974-3.349-6.692-1.784-1.337-3.902-2.018-6.362-2.039-6.521-.054-14.714,2.383-24.585,7.309-13.285,6.602-23.754,15.16-31.399,25.681-6.693,9.111-10.071,18.015-10.143,26.709-.053,6.33,1.64,12.866,5.078,19.602,2.881,5.414,6.568,11.536,11.047,18.382,4.29,6.557,7.925,12.636,10.904,18.233,3.44,6.645,5.136,12.852,5.088,18.613-.093,11.153-6.554,20.976-19.38,29.467-10.929,7.089-23.243,10.576-36.944,10.462-13.514-.113-24.068-3.929-31.657-11.459-5.714-5.719-8.544-12.265-8.483-19.636.069-8.22,2.867-15.095,8.394-20.625,3.331-3.376,7.277-5.892,11.827-7.554,3.127-1.201,5.733-1.795,7.811-1.778"/>
    </g>
  </g>
  <g>
    <g>
      <path d="M284.802,177.355c2.654-.191,3.745,1.415,4.087,3.649.507,3.31,1.487,6.493,2.352,9.709.957,3.559.915,3.644-2.579,4.536-14.082,3.593-28.162,7.19-42.243,10.782-3.139.802-6.31,1.495-9.406,2.431-2.199.664-3.424-.137-4.035-2.132-.92-3.006-1.865-6.014-2.579-9.073-.842-3.603.146-5.366,3.633-6.696,5.031-1.918,10.321-2.951,15.515-4.301,10.93-2.839,21.881-5.597,32.824-8.381.803-.204,1.62-.352,2.431-.526ZM233.097,195.777c.63,2.317,1.39,4.608,1.853,6.957.456,2.319,1.434,3.129,3.853,2.442,4.09-1.162,8.258-2.044,12.387-3.076,11.397-2.852,22.833-5.556,34.09-8.939,3.465-1.041,3.937-2.109,2.583-5.496-.477-1.198-.993-2.406-1.256-3.658-.697-3.31-1.397-3.944-4.669-3.12-15.521,3.913-31.02,7.913-46.531,11.868-1.587.403-2.424,1.283-2.31,3.023Z" fill-rule="evenodd"/>
      <path d="M518.591,208.64c-6.237-.782-12.272-2.629-18.396-4.055-10.373-2.414-20.718-4.945-31.083-7.391-2.198-.519-5.078-2.678-3.927-6.799.822-2.942,1.542-5.916,2.181-8.902.507-2.369,1.676-3.276,4.146-2.676,17.188,4.171,34.395,8.265,51.585,12.432,2.999.729,3.707,1.908,3.047,4.823-.714,3.158-1.346,6.348-2.583,9.36-.895,2.179-2.373,3.549-4.97,3.208ZM472.921,182.045c-2.113-.295-2.841.471-3.178,1.654-.508,1.779-.964,3.576-1.392,5.377-.951,3.991-.454,4.884,3.58,5.887,6.377,1.586,12.784,3.047,19.165,4.61,8.268,2.024,16.523,4.098,24.786,6.147,4.044,1.002,5.041.376,5.986-3.733.29-1.263.557-2.53.873-3.786.903-3.583.609-4.121-3.026-4.995-12.325-2.964-24.653-5.912-36.981-8.857-3.511-.839-7.029-1.651-9.812-2.304Z" fill-rule="evenodd"/>
      <path d="M243.561,127.639c-2.918-.546-4.937.187-6.525,2.452-2.684,3.828-6.035,4.602-10.155,2.553-3.963-1.971-5.587-5.521-4.43-9.687,1.195-4.3,4.181-6.305,8.731-5.936.909.073,1.865.053,2.748-.148,1.009-.23,1.992-.806,2.3-1.841.375-1.261-.987-1.389-1.639-1.877-5.42-4.055-6.306-8.32-2.619-12.978,2.185-2.762,5.376-3.597,9.015-2.358,3.454,1.174,5.158,3.424,5.265,7.015.027.926-.199,1.878-.05,2.775.162.985-1.395,2.305.181,2.852,1.358.472,2.977.308,4.176-.836.53-.506.968-1.117,1.411-1.708,2.422-3.23,5.576-4.107,9.328-2.578,3.99,1.626,5.986,4.858,5.376,8.707-.682,4.312-3.215,6.947-7.188,7.277-1.56.13-3.147-.1-4.72-.079-1.022.012-1.775.504-1.942,1.615-.167,1.118.407,1.77,1.402,2.082,8.2,2.576,16.24,5.83,25.118,5.316,12.154-.705,21.029-6.949,28.097-16.341,1.379-1.833.216-2.971-1.07-4.238-4.587-4.518-3.084-11.923,2.819-14.083,3.349-1.225,6.218-.035,8.758,2.063,2.483,2.051,3.238,4.913,2.14,7.796-1.171,3.08.079,4.597,2.468,6.123,16.936,10.821,36.773,8.755,50.304-5.777.647-.695,2.24-1.375,1.24-2.642-.896-1.138-2.252-2.087-3.897-1.546-.944.31-1.833.874-2.658,1.451-2.972,2.077-5.431,2.231-8.227.429-3.177-2.049-5.113-5.921-4.303-8.979.804-3.031,2.552-5.526,5.663-6.349,2.996-.791,6.1-.885,8.29,2.081.719.973,1.614.815,2.442.231.929-.654,1.841-1.426,1.17-2.753-.33-.655-.868-1.2-1.235-1.84-1.887-3.29-1.286-7.329,1.452-9.94,3.118-2.971,7.005-3.379,10.401-1.093,3.155,2.123,4.67,6.416,3.502,9.789-.227.653-.57,1.167-1.117,1.536-1.187.798-1.771,1.649-.477,2.871,1.142,1.078,2.236,2.038,3.792.596,2.709-2.513,5.883-2.721,9.019-1.207,3.134,1.514,5.013,4.174,4.793,7.811-.221,3.662-2.352,6.158-5.523,7.768-1.759.892-3.557.768-5.33-.185-3.863-2.078-5.859-2.178-10.153-.566,5,6.832,11.769,10.971,19.634,13.43,8.974,2.807,15.594,2.669,24.357-1.012,2.302-.967,4.683-1.754,6.974-2.746,2.871-1.242,3.49-2.527,2.151-5.21-1.582-3.171-1.655-6.078.845-8.698,2.38-2.492,5.336-3.873,8.79-2.818,3.454,1.055,5.548,3.567,6.26,7.153.476,2.4-.369,4.304-2.041,6.024-2.639,2.717-2.601,3.54.03,6.213,6.834,6.944,14.52,12.428,24.449,13.904,8.685,1.29,16.725-.968,24.475-4.666.599-.286,1.238-.573.964-1.422-.324-1.004-.845-1.859-1.968-2.14-1.217-.304-2.388.01-3.568.258-4.436.932-7.713-.995-9.273-5.44-1.493-4.255-.019-7.888,4.065-10.018,4-2.085,7.634-1.259,10.269,2.36.869,1.195,1.548,2.636,3.426,2.288,1.516-.281,2.617-.412,2.052-2.748-1.791-7.396,2.166-12.401,8.708-11.464,3.715.532,6.262,2.875,7.071,6.504.795,3.567-.402,6.524-3.544,8.643-.898.605-1.853,1.128-2.917,1.77,2.059,2.07,4.335,2.788,6.942,2.314,3.526-.642,6.254.483,8.016,3.584,1.651,2.906,2.187,5.991.163,8.937-2.102,3.06-5.081,4.528-8.853,4.088-1.893-.222-3.169-1.421-4.248-2.875-1.44-1.936-3.363-2.783-5.77-2.776-1.716.007-1.836.561-1.051,1.939,5.85,10.27,14.631,16.22,26.27,18.11,8.567,1.39,16.55-1.062,24.495-3.644,2.762-.898,3.274-2.684,1.858-5.849-1.145-2.557-1.576-4.98.355-7.278,2.219-2.641,5.06-4.06,8.566-3.645,3.19.378,6.098,3.161,6.831,6.521.801,3.673-.661,6.529-3.536,8.749-3.087,2.386-3.125,2.393-.661,5.58,8.85,11.444,19.698,19.826,34.377,22.272,3.297.548,6.675,1.208,9.958.699,3.509-.545,6.853-1.327,8.793-5.35,6.439-13.35,13.309-26.489,19.975-39.729,3.242-6.438,10.796-7.907,16.219-3.077,1.54,1.371,2.678,3.05,3.731,4.818,1.458,2.448,1.271,4.678-.366,6.979-19.305,27.131-49.21,71.616-70.659,108.305-.537.879-.768,1.296-.279,1.296,11.109,0,18.181.201,29.224.208,5.419.105,6.511,1.05,6.502,6.524-.025,15.778-.185,31.553-.192,47.331-.027,56.812-.01,113.625-.01,170.437,0,77.236-.283,154.473.14,231.706.168,30.605-22.858,58.565-54.012,63.237-2.743.412-5.541.648-8.315.65-44.094.041-93.192.067-137.286-.001-9.37-.017-18.747-.395-28.106.073-8.106.402-14.739,3.955-19.861,10.311-3.23,4.008-4.215,4.103-8.023.672-8.456-7.621-18.394-11.2-29.72-11.187-53.374.061-101.746.12-155.122.156-32.533.024-58.692-22.281-63.693-54.342-.469-3.01-.642-6.099-.643-9.149-.032-121.61-.021-243.218-.031-364.826-.002-27.756-.053-55.51-.081-83.265-.001-.837-.023-1.673.007-2.507.15-4.419,1.561-5.99,5.946-5.79,8.536.391,20.218.233,28.752.153.779-.007,2.305.087,2.283-.39-.022-.465-.211-.331-.611-1.025-20.314-35.224-43.397-68.632-66.725-101.882-1.17-1.668-2.346-3.353-3.303-5.146-2.484-4.655-1.685-8.822,2.448-12.145,3.893-3.131,8.416-4.578,13.45-4.356,2.389.105,3.911,1.267,4.931,3.42,6.586,13.891,13.242,27.748,19.822,41.642.704,1.485,1.557,2.169,3.281,2.363,6.999.79,13.936,1.914,21.046.981,11.202-1.47,19.512-7.064,25.119-16.794,1.85-3.211,1.701-3.619-1.711-5.077-4.588-1.961-6.177-5.526-4.513-10.122,1.657-4.572,5.285-6.504,9.885-5.264,4.934,1.33,7.056,4.603,6.007,9.589-.421,1.998-.338,3.621,1.908,4.166,10.24,2.477,20.524,4.468,30.994,1.295,9.158-2.775,15.284-8.985,19.736-17.402ZM613.396,483.226v-216.11c0-.836.021-1.672-.008-2.506-.11-3.239-1.099-4.372-4.284-4.614-5.374-.405-10.755-.034-16.131-.033-104.621.021-209.241.016-313.861.014-1.851,0-3.706-.095-5.552.003-4.244.226-5.221,1.215-5.26,5.406-.032,3.431.125,6.863.133,10.295.042,18.75.067,37.501.087,56.252.005,4.517-1.257,5.743-5.836,5.735-38.149-.059-76.299-.122-114.447-.18-6.197-.009-7.265,1.072-7.265,7.284v255.076c0,31.285.005,62.568-.006,93.851-.002,3.808.058,7.611.565,11.388,1.867,13.881,7.826,25.411,19.522,33.564,9.257,6.454,19.765,8.683,30.822,8.678,52.63-.031,101.259-.153,153.89-.178,10.34-.006,20.31,1.715,29.224,7.454,1.955,1.258,3.76,1.041,5.62-.416,5.588-4.383,12.071-6.304,19.079-6.775,6.397-.43,12.791-.108,19.187-.1,45.302.061,94.606.036,139.907.022,2.687,0,5.38-.062,8.062-.229,14.225-.882,26.556-5.864,35.767-17.125,7.862-9.614,10.789-20.929,10.788-33.156-.003-71.201-.001-142.401-.001-213.604ZM369.504,144.339c-2.226.012-4.453-.008-6.678.043-2.315.052-4.628.18-6.943.262-31.733,1.117-62.831,6.347-93.482,14.457-37.629,9.955-73.737,24.05-109.115,40.132-4.019,1.828-4.28,2.52-2.448,6.551,5.145,11.323,11.15,22.177,17.858,32.645,3.439,5.676,10.936,5.172,14.884,4.626,25.805-10.846,52.035-20.518,78.893-28.435,30.796-9.078,62.209-14.651,94.294-16.174,38.077-1.806,75.489,2.797,112.448,11.839,32.703,7.999,64.064,19.262,95.918,30.265,12.067,3.051,15.025,5.687,20.065-3.282,5.899-10.5,10.985-21.329,17.051-31.737,2.3-3.946,1.89-5.272-2.269-7-34.398-14.291-69.249-27.293-105.279-36.931-41.012-10.97-82.642-17.501-125.195-17.262ZM620.088,173.898c-2.073.011-3.714-.028-5.352.036-11.886.46-22.755-2.478-32.394-9.603-5.346-3.953-9.807-8.765-13.81-14.04-2.879-3.795-4.297-4.167-8.829-2.53-1.828.66-3.652,1.338-5.508,1.917-13.63,4.257-26.529,3.429-38.235-5.566-4.218-3.243-7.856-7.064-11.132-11.243-3.005-3.835-3.516-3.961-7.928-2.147-1.028.423-2.065.824-3.109,1.203-17.489,6.36-36.113,1.504-48.249-12.574-4.103-4.759-5.349-4.975-10.902-2.049-9.785,5.157-17.78,7.539-28.848,5.61-9.422-1.641-17.366-6.226-24.551-12.319-2.747-2.33-3.411-2.334-6.068.135-.409.378-.792.784-1.2,1.162-8.246,7.616-17.743,12.056-29.206,11.315-8.24-.533-17.955-3.551-24.943-7.78-4.724-2.86-5.377-2.745-8.574,1.664-7.841,10.813-18.126,17.443-31.709,17.974-8.825.346-17.318-1.45-25.385-5.149-4.082-1.871-5.297-1.493-7.402,2.364-6.643,12.172-17.222,17.913-30.726,18.974-7.675.603-15.146-.484-22.544-2.439-3.916-1.035-5.736-.375-7.393,2.968-6.773,13.664-18.254,19.624-32.97,20.359-5.011.25-10.013-.086-15.008-.421-2.076-.139-2.801.139-1.898,2.52,2.074,5.467,5.044,10.51,7.191,15.933.947,2.392,2.804,3.08,5.204,2.314.967-.309,1.916-.694,2.841-1.117,26.372-12.078,53.314-22.689,80.902-31.672,49.404-16.087,99.928-24.728,152.026-23.465,27.904.677,55.418,4.202,82.669,10.1,39.309,8.509,77.324,21.125,114.63,36,7.398,2.949,14.734,6.052,22.159,8.934,4.071,1.58,5.969,1.066,8.176-1.719,3.613-4.562,5.407-10.041,8.075-15.647ZM542.018,243.398c-112.267-47.03-222.954-50.672-334.657,0,111.993.235,222.855.75,334.657,0Z" fill-rule="evenodd"/>
      <path d="M413.071,176.306c-23.091,9.83-46.791,9.557-69.889.019,21.015-9.673,48.141-9.274,69.889-.019Z" fill-rule="evenodd"/>
      <path d="M209.256,215.301c-4.483.054-8.361-3.681-8.519-8.207-.157-4.507,3.867-8.635,8.405-8.622,4.45.014,8.334,3.905,8.357,8.375.025,4.513-3.766,8.399-8.243,8.454Z" fill-rule="evenodd"/>
      <path d="M548.167,198.458c4.65-.003,8.412,3.619,8.463,8.15.051,4.437-3.784,8.366-8.266,8.467-4.548.103-8.644-3.905-8.609-8.423.036-4.564,3.76-8.192,8.412-8.194Z" fill-rule="evenodd"/>
      <path d="M314.684,188.532c-4.826.063-8.375-3.475-8.391-8.363-.016-4.752,3.446-8.205,8.228-8.209,4.69-.003,8.295,3.54,8.346,8.202.05,4.603-3.575,8.311-8.183,8.37Z" fill-rule="evenodd"/>
      <path d="M432.475,180.052c.033-4.693,3.629-8.182,8.338-8.09,4.596.089,8.377,3.882,8.296,8.32-.085,4.555-3.813,8.235-8.362,8.25-4.758.018-8.308-3.623-8.273-8.48Z" fill-rule="evenodd"/>
    </g>
    <path d="M480.34,501.432c2.56-8.618,4.958-16.772,7.411-24.911,1.601-5.317,2.958-10.702,4.464-16.043,3.57-12.665,12.704-19.378,25.159-21.342,11.452-1.807,21.125,2.032,27.734,11.92,8.837,13.22,4.571,31.992-9.406,41.704-5.838,4.058-12.26,6.425-19.561,5.842-2.656-.212-3.92,1.468-4.614,3.898-3.41,11.929-6.589,23.939-10.486,35.709-1.981,5.984-1.445,11.1.943,16.81,13.962,33.387,27.626,66.899,41.389,100.369.036.086.054.179.087.265,2.132,5.255,1.551,6.143-4.144,6.106-9.744-.064-19.474.242-29.196.852-4.146.259-5.666-.602-7.273-4.476-6.704-16.157-13.389-32.322-20.087-48.48-.349-.843-.761-1.66-1.419-3.086-1.865,6.311-3.586,12.065-5.268,17.831-5.028,17.244-9.893,34.536-15.098,51.725-6.283,20.742-32.13,28.079-48.472,13.919-9.306-8.064-11.634-23.458-4.909-35.256,6.283-11.024,15.653-17.328,28.759-17.177,4.518.052,5.112-.467,6.379-4.851,3.803-13.164,7.619-26.324,11.437-39.483,1.236-4.257.651-5.036-3.906-5.036-47.529-.002-95.058-.002-142.588,0-3.135,0-3.145.012-1.511,2.87,11.548,20.195,23.039,40.422,34.674,60.568,5.712,9.888,7.149,19.979,2.062,30.483-5.511,11.374-17.636,18.244-28.955,16.613-12.801-1.843-22.918-11.66-25.012-24.536-1.948-11.983,1.027-22.419,10.288-30.686,1.097-.978,1.587-1.947.756-3.374-7.224-12.407-14.421-24.83-21.634-37.243-.126-.217-.371-.363-.807-.776-2.191,5.229-4.391,10.263-6.419,15.367-4.819,12.121-10.316,23.964-14.624,36.298-2.391,6.848-5.797,8.83-12.966,8.12-9.912-.98-19.844-.387-29.765-.479-2.308-.022-3.026-.115-1.973-2.734,12.672-31.516,25.352-63.027,38.494-94.352,1.779-4.241,1.546-7.861-.769-11.832-13.765-23.611-27.464-47.261-41.023-70.99-8.582-15.022-1.443-35.751,14.378-42.414,15.558-6.554,32.82,2.017,38.117,18.97,3.623,11.6,1.888,22.114-6.375,31.34-3.49,3.895-3.496,5.997-.835,10.457,4.408,7.392,8.72,14.842,13.228,22.534,3.609-8.749,7.169-17.261,10.638-25.81,23.135-57.038,46.248-114.083,69.372-171.125,1.799-4.437,3.28-5.381,7.99-5.295,14.657.268,29.315.306,43.971.002,5.728-.119,7.326.902,9.481,6.17,23.37,57.136,46.74,114.272,70.12,171.402.449,1.097,1.031,2.14,1.764,3.642ZM378.378,357.748c-1.616.955-1.936,2.475-2.481,3.803-10.399,25.331-20.76,50.677-31.153,76.011-14.573,35.526-29.166,71.043-43.742,106.568-1.902,4.633-1.46,5.271,3.516,5.278,48.527.068,97.051.138,145.576.206,7.609.01,7.872-.427,4.985-7.368-22.351-53.732-44.687-107.47-67.028-161.207-3.214-7.735-6.426-15.47-9.673-23.289Z" fill-rule="evenodd"/>
  </g>
</svg>