<?xml version="1.0" encoding="UTF-8"?>
<svg id="Capa_1" data-name="Capa 1" xmlns="http://www.w3.org/2000/svg" version="1.1" viewBox="0 0 1757.48 708.661">
  <path d="M1627.199,570.863c-5.537,0-9.967-3.185-13.292-9.551-2.489-5.118-3.735-10.797-3.735-17.028,0-12.179,2.908-27.129,8.719-44.849-.692-.69-1.177-1.039-1.45-1.039-4.294,0-8.654,5.4-13.084,16.197-1.108,2.632-2.906,7.06-5.399,13.288l-8.096,20.556c-5.538,13.845-11.075,20.764-16.612,20.764-5.676,0-8.513-3.667-8.513-11.002v-3.53c0-12.46,1.312-25.751,3.945-39.869,4.014-20.765,9.621-31.147,16.82-31.147,5.673,0,8.513,3.255,8.513,9.759,0,1.527-1.039,7.476-3.114,17.859l-.207,1.45c9.966-19.376,19.795-29.068,29.485-29.068,3.875,0,7.684,2.423,11.42,7.268,3.737,4.849,5.607,9.275,5.607,13.288v14.327l-7.476,31.977v4.155h.623c3.598-2.632,6.919-6.44,9.966-11.424,2.493-4.426,4.984-8.855,7.477-13.288h9.552c-.97,9.277-4.017,17.997-9.139,26.164-6.226,9.828-13.565,14.741-22.008,14.741" fill="#26668f" stroke-width="0"/>
  <g>
    <path d="M431.457,430.566c2.56-8.618,4.958-16.772,7.411-24.911,1.601-5.317,2.958-10.702,4.464-16.043,3.57-12.665,12.704-19.378,25.159-21.342,11.452-1.807,21.125,2.032,27.734,11.92,8.837,13.22,4.571,31.992-9.406,41.704-5.838,4.058-12.26,6.425-19.561,5.842-2.656-.212-3.92,1.468-4.614,3.898-3.41,11.929-6.589,23.939-10.486,35.709-1.981,5.984-1.445,11.1.943,16.81,13.962,33.387,27.626,66.899,41.389,100.369.036.086.054.179.087.265,2.132,5.255,1.551,6.143-4.144,6.106-9.744-.064-19.474.242-29.196.852-4.146.259-5.666-.602-7.273-4.476-6.704-16.157-13.389-32.322-20.087-48.48-.349-.843-.761-1.66-1.419-3.086-1.865,6.311-3.586,12.065-5.268,17.831-5.028,17.244-9.893,34.536-15.098,51.725-6.283,20.742-32.13,28.079-48.472,13.919-9.306-8.064-11.634-23.458-4.909-35.256,6.283-11.024,15.653-17.328,28.759-17.177,4.518.052,5.112-.467,6.379-4.851,3.803-13.164,7.619-26.324,11.437-39.483,1.236-4.257.651-5.036-3.906-5.036-47.529-.002-95.058-.002-142.588,0-3.135,0-3.145.012-1.511,2.87,11.548,20.195,23.039,40.422,34.674,60.568,5.712,9.888,7.149,19.979,2.062,30.483-5.511,11.374-17.636,18.244-28.955,16.613-12.801-1.843-22.918-11.66-25.012-24.536-1.948-11.983,1.027-22.419,10.288-30.686,1.097-.978,1.587-1.947.756-3.374-7.224-12.407-14.421-24.83-21.634-37.243-.126-.217-.371-.363-.807-.776-2.191,5.229-4.391,10.263-6.419,15.367-4.819,12.121-10.316,23.964-14.624,36.298-2.391,6.848-5.797,8.83-12.966,8.12-9.912-.98-19.844-.387-29.765-.479-2.308-.022-3.026-.115-1.973-2.734,12.672-31.516,25.352-63.027,38.494-94.352,1.779-4.241,1.546-7.861-.769-11.832-13.765-23.611-27.464-47.261-41.023-70.99-8.582-15.022-1.443-35.751,14.378-42.414,15.558-6.554,32.82,2.017,38.117,18.97,3.623,11.6,1.888,22.114-6.375,31.34-3.49,3.895-3.496,5.997-.835,10.457,4.408,7.392,8.72,14.842,13.228,22.534,3.609-8.749,7.169-17.261,10.638-25.81,23.135-57.038,46.248-114.083,69.372-171.125,1.799-4.437,3.28-5.381,7.99-5.295,14.657.268,29.315.306,43.971.002,5.728-.119,7.326.902,9.481,6.17,23.37,57.136,46.74,114.272,70.12,171.402.449,1.097,1.031,2.14,1.764,3.642ZM329.494,286.883c-1.616.955-1.936,2.475-2.481,3.803-10.399,25.331-20.76,50.677-31.153,76.011-14.573,35.526-29.166,71.043-43.742,106.568-1.902,4.633-1.46,5.271,3.516,5.278,48.527.068,97.051.138,145.576.206,7.609.01,7.872-.427,4.985-7.368-22.351-53.732-44.687-107.47-67.028-161.207-3.214-7.735-6.426-15.47-9.673-23.289Z" fill="#ad2e2a" fill-rule="evenodd" stroke-width="0"/>
    <path d="M227.531,106.663c2.655-.177,3.738,1.435,4.068,3.671.489,3.312,1.453,6.5,2.301,9.721.939,3.564.896,3.649-2.603,4.523-14.1,3.519-28.199,7.043-42.299,10.561-3.143.786-6.317,1.462-9.419,2.381-2.202.653-3.423-.155-4.024-2.153-.905-3.011-1.833-6.024-2.531-9.086-.823-3.608.174-5.365,3.668-6.676,5.041-1.892,10.336-2.897,15.537-4.219,10.945-2.782,21.91-5.482,32.868-8.209.804-.199,1.622-.343,2.434-.513ZM175.731,124.814c.618,2.32,1.366,4.615,1.817,6.967.444,2.321,1.417,3.137,3.841,2.462,4.096-1.14,8.269-2,12.403-3.011,11.411-2.792,22.861-5.437,34.136-8.761,3.47-1.023,3.948-2.089,2.612-5.482-.471-1.201-.98-2.411-1.237-3.665-.68-3.314-1.376-3.952-4.653-3.145-15.541,3.831-31.061,7.75-46.592,11.624-1.589.395-2.43,1.27-2.326,3.011Z" fill="#26668f" fill-rule="evenodd" stroke-width="0"/>
    <path d="M455.439,136.827c-6.233-.815-12.258-2.693-18.375-4.151-10.36-2.468-20.692-5.054-31.044-7.554-4.691-1.133-5.236-2.101-3.891-6.82.837-2.937,1.573-5.908,2.228-8.89.52-2.367,1.693-3.267,4.16-2.654,17.165,4.261,34.351,8.445,51.519,12.702,2.996.744,3.697,1.927,3.021,4.839-.731,3.155-1.379,6.341-2.632,9.347-.907,2.175-2.391,3.537-4.986,3.182ZM409.909,109.993c-2.111-.306-2.843.456-3.187,1.637-.517,1.776-.983,3.571-1.42,5.37-.972,3.986-.479,4.881,3.549,5.906,6.369,1.62,12.767,3.114,19.14,4.71,8.258,2.067,16.501,4.185,24.753,6.277,4.038,1.023,5.039.402,6.006-3.702.297-1.261.57-2.527.893-3.782.921-3.578.63-4.118-3-5.011-12.309-3.029-24.622-6.041-36.934-9.05-3.507-.857-7.02-1.687-9.8-2.355Z" fill="#26668f" fill-rule="evenodd" stroke-width="0"/>
    <g>
      <path d="M193.842,56.069c-2.915-.562-4.938.161-6.538,2.418-2.704,3.814-6.059,4.57-10.169,2.5-3.953-1.991-5.558-5.551-4.379-9.71,1.217-4.293,4.214-6.283,8.762-5.891.909.078,1.865.063,2.748-.133,1.01-.225,1.996-.795,2.31-1.829.382-1.259-.98-1.394-1.629-1.885-5.399-4.084-6.263-8.353-2.551-12.992,2.199-2.75,5.395-3.569,9.028-2.311,3.448,1.192,5.14,3.451,5.228,7.042.023.926-.209,1.877-.065,2.775.157.986-1.407,2.298.166,2.853,1.355.479,2.976.323,4.181-.814.533-.504.974-1.112,1.42-1.7,2.439-3.217,5.597-4.078,9.341-2.529,3.981,1.646,5.96,4.889,5.33,8.735-.705,4.308-3.252,6.93-7.226,7.239-1.561.122-3.146-.116-4.719-.104-1.022.007-1.777.495-1.951,1.605-.173,1.117.398,1.772,1.392,2.089,8.187,2.619,16.209,5.915,25.09,5.447,12.158-.641,21.065-6.839,28.182-16.194,1.388-1.826.231-2.97-1.047-4.243-4.563-4.542-3.021-11.939,2.892-14.068,3.355-1.208,6.218-.002,8.748,2.109,2.473,2.064,3.212,4.93,2.099,7.807-1.187,3.074.054,4.598,2.436,6.136,16.879,10.909,34.431,8.942,48.037-5.519.65-.691,2.247-1.363,1.254-2.635-.89-1.142-2.241-2.099-3.889-1.567-.946.305-1.837.865-2.666,1.437-2.983,2.062-5.442,2.203-8.229.386-3.167-2.065-5.082-5.948-4.256-9.001.82-3.027,2.581-5.513,5.696-6.319,3-.776,6.104-.853,8.279,2.125.714.977,1.609.824,2.441.244.933-.649,1.849-1.416,1.184-2.746-.326-.656-.862-1.205-1.226-1.847-1.87-3.3-1.248-7.335,1.505-9.933,3.133-2.954,7.023-3.343,10.407-1.038,3.144,2.14,4.636,6.44,3.451,9.807-.23.652-.576,1.164-1.125,1.53-1.191.792-1.78,1.64-.492,2.869,1.137,1.084,2.226,2.05,3.789.615,2.722-2.499,5.898-2.69,9.025-1.159,3.126,1.531,4.991,4.2,4.753,7.836-.24,3.661-2.385,6.146-5.563,7.739-1.763.883-3.561.749-5.329-.213-3.852-2.098-5.847-2.209-10.149-.619,4.964,6.858,11.712,11.032,19.563,13.532,8.959,2.854,17.876,2.756,26.658-.879,2.307-.955,4.692-1.73,6.988-2.709,2.877-1.227,3.503-2.509,2.178-5.199-1.566-3.179-1.624-6.087.89-8.693,2.393-2.479,5.357-3.845,8.805-2.772,3.448,1.073,5.529,3.596,6.222,7.185.464,2.402-.392,4.302-2.072,6.014-2.653,2.703-2.619,3.526-.002,6.213,6.798,6.98,14.454,12.504,24.376,14.031,8.679,1.335,16.73-.88,24.499-4.537.6-.283,1.241-.567.971-1.417-.319-1.006-.835-1.864-1.956-2.151-1.215-.31-2.388-.002-3.569.239-4.441.909-7.707-1.035-9.244-5.488-1.471-4.263.022-7.888,4.118-9.997,4.011-2.064,7.641-1.219,10.256,2.414.863,1.199,1.534,2.644,3.414,2.306,1.518-.273,2.619-.398,2.066-2.738-1.752-7.406,2.231-12.389,8.768-11.418,3.712.551,6.247,2.908,7.037,6.541.777,3.572-.436,6.522-3.589,8.624-.901.601-1.859,1.118-2.927,1.755,2.049,2.081,4.321,2.811,6.93,2.35,3.529-.624,6.251.516,7.997,3.626,1.636,2.915,2.156,6.002.116,8.938-2.118,3.049-5.105,4.501-8.874,4.042-1.892-.232-3.162-1.437-4.233-2.897-1.43-1.944-3.348-2.8-5.755-2.806-1.716-.002-1.839.552-1.061,1.933,5.796,10.301,14.546,16.296,26.175,18.247,8.56,1.435,16.556-.975,24.514-3.516,2.767-.883,3.288-2.666,1.888-5.839-1.132-2.563-1.55-4.988.393-7.276,2.233-2.63,5.081-4.033,8.584-3.6,3.188.395,6.082,3.193,6.797,6.557.782,3.677-.695,6.526-3.581,8.73-3.1,2.37-3.138,2.376-.69,5.577,8.79,11.49,19.594,19.929,34.26,22.451,3.294.566,6.669,1.243,9.954.751,3.512-.526,6.86-1.292,8.821-5.304,6.509-13.316,13.448-26.419,20.183-39.624,3.276-6.421,10.838-7.85,16.235-2.992,1.532,1.379,2.662,3.064,3.706,4.837,1.445,2.456,1.246,4.685-.403,6.977-19.447,27.029-38.862,54.082-58.306,81.115-6.082,8.455-10.577,17.806-15.489,26.805.423.868,1.061.581,1.549.577,11.136-.107,22.272.256,33.406-.19,5.218-.21,6.511,1.05,6.502,6.524-.025,15.778-.185,31.553-.192,47.331-.027,56.812-.01,113.625-.01,170.437,0,77.236-.283,154.473.14,231.706.168,30.605-22.858,58.565-54.012,63.237-2.743.412-5.541.648-8.315.65-44.094.041-88.189.067-132.283-.001-9.37-.017-18.747-.395-28.106.073-8.106.402-14.739,3.955-19.861,10.311-3.23,4.008-4.215,4.103-8.023.672-8.456-7.621-18.394-11.2-29.72-11.187-53.374.061-106.749.12-160.125.156-32.533.024-58.692-22.281-63.693-54.342-.469-3.01-.642-6.099-.643-9.149-.032-121.61-.021-243.218-.031-364.826-.002-27.756-.053-55.51-.081-83.265-.001-.837-.023-1.673.007-2.507.15-4.419,1.561-5.99,5.946-5.79,8.536.391,17.069.194,25.603.159.779-.003,1.853.451,2.285-.378.416-.799-.504-1.484-.901-2.18-20.129-35.33-43.037-68.858-66.191-102.23-1.161-1.674-2.328-3.365-3.276-5.163-2.459-4.668-1.639-8.831,2.511-12.132,3.909-3.111,8.439-4.533,13.472-4.286,2.389.118,3.904,1.288,4.913,3.446,6.514,13.925,13.097,27.817,19.604,41.746.696,1.489,1.545,2.177,3.268,2.38,6.995.827,13.925,1.987,21.041,1.091,11.21-1.411,19.549-6.962,25.206-16.662,1.866-3.202,1.72-3.61-1.684-5.086-4.577-1.985-6.148-5.558-4.46-10.145,1.681-4.563,5.319-6.477,9.913-5.213,4.927,1.356,7.032,4.64,5.956,9.62-.432,1.996-.357,3.62,1.886,4.175,10.227,2.531,20.501,4.575,30.987,1.458,9.173-2.727,15.331-8.905,19.827-17.299ZM566.514,412.36v-216.11c0-.836.021-1.672-.008-2.506-.11-3.239-1.099-4.372-4.284-4.614-5.374-.405-10.755-.034-16.131-.033-104.621.021-209.241.016-313.861.014-1.851,0-3.706-.095-5.552.003-4.244.226-5.221,1.215-5.26,5.406-.032,3.431.125,6.863.133,10.295.042,18.75.067,37.501.087,56.252.005,4.517-1.257,5.743-5.836,5.735-38.149-.059-76.299-.122-114.447-.18-6.197-.009-7.265,1.072-7.265,7.284v255.076c0,31.285.005,62.568-.006,93.851-.002,3.808.058,7.611.565,11.388,1.867,13.881,7.826,25.411,19.522,33.564,9.257,6.454,19.765,8.683,30.822,8.678,52.63-.031,105.261-.153,157.892-.178,10.34-.006,20.31,1.715,29.224,7.454,1.955,1.258,3.76,1.041,5.62-.416,5.588-4.383,12.071-6.304,19.079-6.775,6.397-.43,12.791-.108,19.187-.1,45.302.061,90.604.036,135.905.022,2.687,0,5.38-.062,8.062-.229,14.225-.882,26.556-5.864,35.767-17.125,7.862-9.614,10.789-20.929,10.788-33.156-.003-71.201-.001-142.401-.001-213.604ZM319.696,73.429c-2.226,0-4.453-.031-6.678.008-2.315.04-4.629.156-6.945.225-31.738.951-62.863,6.018-93.556,13.967-37.68,9.758-73.861,23.664-109.323,39.56-4.029,1.807-4.293,2.498-2.483,6.538,5.086,11.35,11.034,22.235,17.687,32.738,5.034,7.949,6.14,8.316,14.859,4.704,25.862-10.71,52.141-20.245,79.041-28.021,30.843-8.916,62.285-14.325,94.377-15.68,38.086-1.607,75.474,3.193,112.384,12.428,32.661,8.17,64.455,18.971,95.783,31.192,4.379,1.708,8.836,1.849,13.321,2.258,1.633.148,3.027-.863,3.997-2.195.869-1.194,1.684-2.446,2.38-3.748,5.666-10.628,11.456-21.188,17.576-31.564,2.321-3.934,1.917-5.262-2.232-7.012-34.323-14.471-69.105-27.656-105.084-37.481-40.954-11.184-82.549-17.934-125.103-17.917ZM570.122,104.299c-2.073,0-3.714-.047-5.352.008-11.889.398-22.742-2.597-32.343-9.772-5.326-3.981-9.761-8.816-13.736-14.112-2.859-3.81-4.275-4.189-8.816-2.577-1.831.651-3.659,1.318-5.518,1.888-13.652,4.185-26.547,3.29-38.205-5.766-4.201-3.265-7.819-7.105-11.073-11.302-2.985-3.851-3.496-3.979-7.917-2.188-1.03.418-2.069.813-3.116,1.187-17.522,6.268-36.12,1.315-48.183-12.827-4.078-4.781-5.323-5.003-10.891-2.106-9.811,5.106-20.115,7.441-31.174,5.453-9.413-1.691-17.333-6.317-24.486-12.447-2.735-2.345-3.398-2.352-6.068.103-.411.376-.796.78-1.206,1.156-8.286,7.572-17.806,11.963-29.265,11.162-8.237-.576-15.64-3.64-22.606-7.905-4.709-2.885-5.363-2.773-8.583,1.619-7.897,10.772-18.217,17.347-31.803,17.808-8.827.3-17.31-1.541-25.357-5.282-4.072-1.893-5.289-1.521-7.414,2.326-6.707,12.137-17.315,17.823-30.825,18.813-7.678.563-15.143-.564-22.531-2.557-3.91-1.055-5.734-.405-7.409,2.929-6.844,13.629-18.356,19.529-33.076,20.186-5.012.223-10.012-.138-15.006-.5-2.075-.15-2.802.125-1.911,2.51,2.046,5.477,4.989,10.536,7.107,15.97.935,2.397,2.788,3.095,5.192,2.341.968-.304,1.919-.684,2.847-1.102,26.435-11.94,53.432-22.409,81.067-31.248,49.487-15.828,100.056-24.205,152.147-22.668,27.9.823,55.396,4.492,82.615,10.533,39.264,8.714,77.212,21.53,114.44,36.6,7.383,2.988,14.703,6.129,22.112,9.05,4.063,1.601,5.964,1.097,8.185-1.676,3.637-4.543,5.459-10.013,8.157-15.605ZM491.694,172.346c-112.019-47.617-224.021-49.901-335.988.186,111.991.822,223.983.798,335.988-.186Z" fill="#26668f" fill-rule="evenodd" stroke-width="0"/>
      <path d="M358.092,106.624c-23.142,9.709-46.841,9.312-69.888-.347,21.066-9.562,48.189-9.022,69.888.347Z" fill="#26668f" fill-rule="evenodd" stroke-width="0"/>
      <path d="M154.07,144.551c-4.484.03-8.341-3.724-8.476-8.251-.134-4.508,3.913-8.615,8.45-8.578,4.45.037,8.313,3.949,8.313,8.418,0,4.513-3.81,8.38-8.287,8.411Z" fill="#26668f" fill-rule="evenodd" stroke-width="0"/>
      <path d="M486.071,128.482c4.65.022,8.393,3.663,8.421,8.194.028,4.437-3.828,8.346-8.311,8.424-4.548.079-8.624-3.95-8.565-8.468.06-4.564,3.803-8.172,8.455-8.15Z" fill="#26668f" fill-rule="evenodd" stroke-width="0"/>
      <path d="M261.639,117.994c-4.826.037-8.356-3.518-8.347-8.407.009-4.752,3.489-8.187,8.271-8.166,4.69.022,8.277,3.583,8.303,8.245.026,4.604-3.619,8.293-8.226,8.327Z" fill="#26668f" fill-rule="evenodd" stroke-width="0"/>
      <path d="M371.472,109.471c.058-4.693,3.672-8.162,8.381-8.046,4.596.113,8.356,3.926,8.252,8.363-.109,4.554-3.856,8.215-8.405,8.206-4.758-.007-8.289-3.666-8.228-8.523Z" fill="#26668f" fill-rule="evenodd" stroke-width="0"/>
    </g>
    <g>
      <path d="M744.988,227.266l16.218,28.611-6.392,3.624,67.274,53.765,7.611-4.311,16.218,28.61-48.7,27.603-16.217-28.61,4.11-2.33-5.017-4.593-33.638,19.062,1.218,6.751,4.105-2.325,16.222,28.611-48.551,27.517-16.219-28.61,7.611-4.316-11.572-85.336-5.481,3.108-16.217-28.615,67.418-38.216ZM741.327,319.429l16.131-9.142-19.449-15.515,3.318,24.657Z" fill="#26668f" stroke-width="0"/>
      <polygon points="943.706 197.83 912.47 207.545 909.926 199.358 901.571 201.954 925.312 278.296 933.662 275.699 943.429 307.107 888.299 324.246 878.536 292.842 887.053 290.193 863.317 213.852 854.8 216.501 857.345 224.684 826.103 234.399 813.796 194.808 931.399 158.239 943.706 197.83" fill="#26668f" stroke-width="0"/>
      <polygon points="1019.059 175.746 1031.028 254.794 1056.975 250.864 1055.666 242.214 1088.01 237.316 1094.246 278.482 987.699 294.618 982.772 262.103 991.423 260.79 979.45 181.746 970.804 183.054 965.877 150.538 1022.783 141.917 1027.711 174.437 1019.059 175.746" fill="#26668f" stroke-width="0"/>
      <polygon points="1156.351 242.849 1181.887 242.295 1181.763 236.524 1214.642 235.817 1215.476 274.467 1108.267 276.787 1107.555 243.904 1116.302 243.717 1114.573 163.787 1105.828 163.978 1105.116 131.094 1212.326 128.779 1213.161 167.253 1180.278 167.963 1180.159 162.369 1154.622 162.922 1155.129 186.358 1161.077 186.229 1160.953 180.634 1193.659 179.923 1194.619 224.173 1161.913 224.88 1161.787 219.108 1155.839 219.237 1156.351 242.849" fill="#26668f" stroke-width="0"/>
      <polygon points="1365.901 184.148 1333.395 180.486 1334.354 171.969 1325.66 170.99 1316.714 250.435 1325.408 251.414 1321.727 284.097 1264.363 277.637 1268.039 244.954 1276.909 245.952 1285.851 166.508 1276.985 165.51 1276.026 174.026 1243.52 170.365 1248.16 129.165 1370.541 142.948 1365.901 184.148" fill="#26668f" stroke-width="0"/>
      <polygon points="1424.13 304.587 1368.092 291.453 1375.592 259.434 1384.11 261.429 1402.345 183.589 1393.829 181.593 1401.334 149.575 1457.372 162.703 1449.867 194.722 1441.355 192.726 1423.114 270.567 1431.629 272.562 1424.13 304.587" fill="#26668f" stroke-width="0"/>
      <polygon points="1575.758 261.63 1538.234 247.599 1544.679 230.36 1542.063 224.374 1522.073 216.897 1515.996 219.657 1491.229 285.872 1494.064 291.778 1514.053 299.254 1519.91 296.59 1526.037 280.205 1563.56 294.236 1552.465 323.898 1522.523 337.537 1462.389 315.046 1448.74 285.128 1483.447 192.335 1513.442 178.557 1573.576 201.048 1587.182 231.085 1575.758 261.63" fill="#26668f" stroke-width="0"/>
      <path d="M1623.45,247.031l32.124-7.586,54.505,33.929,7.381,32.172-52.353,84.108-32.034,7.433-54.51-33.924-7.471-32.024,52.357-84.109ZM1675.949,296.423l-1.37-6.407-18.118-11.276-6.502,1.503-37.356,60.019,1.607,6.35,18.123,11.276,6.258-1.446,37.357-60.019Z" fill="#26668f" stroke-width="0"/>
    </g>
    <path d="M738.469,517.412c5.103,0,7.657,2.076,7.657,6.235,0,3.117-2.363,5.481-7.089,7.09-8.13,2.931-12.193,8.172-12.193,15.735,0,6.049,2.363,10.77,7.09,14.174,4.062,2.836,9.214,4.255,15.454,4.255,12.474,0,23.388-3.638,32.744-10.919,5.858-4.627,8.79-10.488,8.79-17.577,0-4.344-.854-8.264-2.554-11.764-1.795-3.59-4.536-8.125-8.221-13.61-5.672-8.503-10.446-16.251-14.318-23.246-4.349-7.748-6.521-15.358-6.521-22.824,0-17.669,8.741-34.206,26.224-49.611,9.261-8.03,19.468-14.552,30.62-19.564,9.262-4.058,18.189-6.092,26.792-6.092,5.571,0,10.298,1.466,14.174,4.392,4.727,3.499,7.089,8.269,7.089,14.318,0,9.452-5.103,19.659-15.31,30.621-9.639,10.298-20.886,18.709-33.737,25.23-6.426,3.213-11.296,4.817-14.599,4.817-2.178,0-4.111-.892-5.816-2.692-1.132-1.227-1.699-2.597-1.699-4.111,0-3.494,3.117-6.33,9.357-8.502,11.434-4.063,21.545-9.782,30.334-17.153,11.339-9.448,17.01-17.721,17.01-24.806,0-2.74-1.136-4.964-3.404-6.664-1.795-1.322-3.919-1.986-6.377-1.986-6.522,0-14.695,2.507-24.525,7.514-13.228,6.712-23.626,15.358-31.183,25.942-6.616,9.166-9.92,18.099-9.92,26.792,0,6.33,1.747,12.852,5.241,19.559,2.927,5.39,6.665,11.481,11.2,18.29,4.344,6.521,8.03,12.57,11.057,18.141,3.494,6.617,5.242,12.809,5.242,18.571,0,11.152-6.378,21.03-19.135,29.627-10.87,7.181-23.154,10.77-36.855,10.77-13.516,0-24.099-3.728-31.752-11.195-5.762-5.672-8.647-12.193-8.647-19.563,0-8.222,2.741-15.119,8.222-20.696,3.304-3.403,7.228-5.953,11.764-7.652,3.117-1.228,5.719-1.843,7.796-1.843" fill="#26668f" stroke-width="0"/>
    <path d="M853.078,556.006c-5.679,9.274-13.36,13.91-23.05,13.91-7.888,0-14.049-3.733-18.479-11.206-3.601-6.234-5.399-13.568-5.399-22.015,0-13.98,4.911-26.579,14.743-37.792,8.858-9.966,17.094-14.949,24.709-14.949,5.949,0,11.282,2.771,15.988,8.308,4.568-4.568,8.443-6.854,11.629-6.854,4.702,0,7.058,3.671,7.058,11.006,0,4.152-1.214,11.213-3.632,21.18-2.424,9.966-3.634,17.305-3.634,22.007v13.707c3.044-1.108,5.608-3.39,7.682-6.854,3.183-5.398,5.052-8.374,5.606-8.927,2.909-3.324,7.196-5.607,12.875-6.854-1.663,9.416-4.848,17.859-9.554,25.333-5.953,9.274-13.01,13.91-21.176,13.91-6.369,0-11.494-4.637-15.367-13.91M852.663,503.059c-.97-1.108-2.562-1.662-4.775-1.662-4.432,0-8.516,6.438-12.252,19.309-1.247,4.433-3.186,13.288-5.815,26.579.138,1.939,1.797,4.229,4.984,6.854,5.399-.97,10.105-7.338,14.122-19.105,3.458-9.828,5.192-18.271,5.192-25.332,0-2.906-.488-5.119-1.455-6.642" fill="#26668f" stroke-width="0"/>
    <path d="M953.45,571.579c-5.537,0-9.966-3.187-13.29-9.551-2.49-5.118-3.737-10.797-3.737-17.028,0-12.179,2.908-27.13,8.719-44.85-.692-.689-1.177-1.039-1.45-1.039-4.294,0-8.654,5.399-13.084,16.197-1.108,2.631-2.906,7.061-5.399,13.287l-8.096,20.556c-5.538,13.845-11.076,20.764-16.612,20.764-5.676,0-8.512-3.667-8.512-11.002v-3.528c0-12.46,1.311-25.752,3.944-39.87,4.013-20.764,9.62-31.146,16.82-31.146,5.672,0,8.512,3.255,8.512,9.759,0,1.527-1.039,7.476-3.113,17.859l-.208,1.451c9.966-19.376,19.795-29.069,29.485-29.069,3.875,0,7.684,2.424,11.421,7.269,3.737,4.848,5.606,9.274,5.606,13.288v14.327l-7.476,31.978v4.155h.623c3.598-2.633,6.92-6.441,9.967-11.425,2.493-4.426,4.984-8.855,7.477-13.287h9.551c-.97,9.277-4.017,17.997-9.139,26.164-6.226,9.827-13.564,14.742-22.008,14.742" fill="#26668f" stroke-width="0"/>
    <path d="M1187.975,556.333c-8.724,8.581-16.685,12.87-23.881,12.87h-11.834c-5.679,0-11.352-3.187-17.028-9.552-6.645-7.473-9.966-16.405-9.966-26.784,0-4.571,1.52-10.451,4.567-17.651,9.274-21.315,22.635-31.977,40.075-31.977,13.98,0,20.973,7.133,20.973,21.387,0,9.551-3.737,17.72-11.213,24.501-3.322,2.909-11.144,7.823-23.463,14.742-3.462,1.943-5.191,3.325-5.191,4.155,0,1.797,1.071,3.393,3.218,4.779,2.143,1.385,4.185,2.071,6.125,2.071,6.504,0,11.486-1.589,14.949-4.775l23.878-23.878v17.024c-4.707,6.094-8.443,10.455-11.21,13.086M1168.351,499.851c-.346-.415-1.005-.623-1.972-.623-2.909,0-5.814,3.048-8.72,9.136-1.801,4.432-3.601,8.862-5.399,13.291v7.057c11.071-6.226,16.609-14.254,16.609-24.085,0-2.767-.175-4.359-.518-4.775" fill="#26668f" stroke-width="0"/>
    <path d="M1255.121,554.255l-10.589,2.283c-6.507,15.084-15.231,22.631-26.164,22.631-7.199,0-13.08-3.107-17.648-9.333-4.153-5.528-6.23-12.098-6.23-19.703v-26.965c0-4.01,1.662-15.346,4.984-34.012,3.874-21.296,8.512-39.547,13.91-54.758,9.413-26.961,19.795-40.444,31.147-40.444,5.26,0,9.274,2.629,12.044,7.879,2.352,4.291,3.529,9.268,3.529,14.937,0,11.751-3.945,25.922-11.837,42.512-4.016,8.298-11.144,23.158-21.384,44.59-7.477,16.177-11.213,30.002-11.213,41.479v14.518c0,3.041.482,4.834,1.455,5.389.274.277,1.104.416,2.489.416,1.798,0,4.601-1.94,8.41-5.812,3.806-3.871,5.847-6.852,6.125-8.93-5.676-12.595-8.513-19.725-8.513-21.387v-14.327c0-4.429,1.519-9.62,4.567-15.573,3.598-6.92,7.612-10.382,12.045-10.382,3.456,0,6.366,2.216,8.72,6.645,2.074,3.737,3.113,7.473,3.113,11.213v12.872c-.97,7.889-2.217,13.912-3.737,18.064v2.077h3.114c2.628-1.662,4.567-2.489,5.814-2.489.831,0,1.798.277,2.909.827.135.143,2.213.208,6.226.208-4.706,8.723-9.136,13.914-13.289,15.576M1244.741,414.498c0-2.483-.426-3.723-1.277-3.723-4.241,0-7.921,7.866-11.032,23.594-1.702,8.282-3.963,22.081-6.793,41.397,12.734-26.906,19.102-46.572,19.102-58.988v-2.28ZM1239.341,515.217l-.831,4.775c0,4.568.276,7.822.831,9.759,1.247-5.533,1.87-9.343,1.87-11.421-.141-.416-.762-1.451-1.87-3.114" fill="#26668f" stroke-width="0"/>
    <path d="M1311.587,555.29c-5.679,9.274-13.36,13.912-23.05,13.912-7.889,0-14.05-3.734-18.478-11.207-3.602-6.234-5.399-13.568-5.399-22.014,0-13.981,4.91-26.579,14.742-37.793,8.859-9.967,17.094-14.949,24.709-14.949,5.949,0,11.283,2.77,15.989,8.308,4.568-4.568,8.443-6.854,11.628-6.854,4.704,0,7.058,3.67,7.058,11.005,0,4.152-1.214,11.214-3.631,21.18-2.425,9.967-3.634,17.305-3.634,22.008v13.706c3.043-1.108,5.606-3.391,7.681-6.854,3.184-5.399,5.053-8.373,5.608-8.927,2.908-3.325,7.196-5.607,12.875-6.854-1.662,9.416-4.849,17.859-9.555,25.332-5.953,9.274-13.01,13.912-21.177,13.912-6.368,0-11.494-4.639-15.366-13.912M1311.172,502.345c-.97-1.108-2.563-1.663-4.776-1.663-4.433,0-8.515,6.437-12.253,19.31-1.246,4.432-3.185,13.288-5.814,26.579.138,1.939,1.797,4.229,4.983,6.854,5.399-.97,10.106-7.338,14.122-19.106,3.456-9.828,5.191-18.271,5.191-25.332,0-2.905-.488-5.119-1.454-6.642" fill="#26668f" stroke-width="0"/>
    <path d="M1407.709,560.066c-6.369,6.095-12.183,9.137-17.443,9.137h-11.211c-4.848,0-9.415-2.217-13.705-6.643-5.4-5.95-8.097-14.123-8.097-24.504,0-3.041,3.528-12.734,10.589-29.069,1.663-3.737,3.946-8.374,6.854-13.911,4.153-7.889,6.92-11.837,8.304-11.837,5.119,0,7.682,2.908,7.682,8.723v9.343c0,1.524,2.355,6.405,7.062,14.637,4.702,8.239,7.06,15.264,7.06,21.078-.697,4.152-1.246,7.473-1.663,9.966.689-.554,1.248-1.247,1.663-2.078,2.209-4.702,6.988-8.789,14.326-12.249v11.625c-2.632,5.68-6.438,10.94-11.421,15.782M1382.792,527.676c0-1.798-1.038-5.468-3.113-11.006-.973,1.524-2.566,4.846-4.775,9.967,2.209,2.632,3.32,6.022,3.32,10.175,0,3.602-.831,6.922-2.492,9.966-.97,1.939-1.525,3.044-1.659,3.322,0,1.114.273,1.662.831,1.662.55,0,1.866-1.035,3.945-3.117,2.628-2.767,3.944-5.88,3.944-9.343v-11.626Z" fill="#26668f" stroke-width="0"/>
    <path d="M1448.935,490.923c-.69.139-3.17.208-7.444.208-.551,0-1.17.281-1.857.845-.145.827-1.124,7.334-2.948,19.511-2.513,16.609-3.769,30.727-3.769,42.353,0,2.216.276,3.324.831,3.324.965,0,3.324-3.463,7.061-10.386,2.766-5.399,4.702-9.482,5.814-12.252h8.305v12.875c-7.477,17.717-15.854,26.576-25.124,26.576-4.707,0-8.585-2.217-11.629-6.643-2.49-4.016-3.737-8.515-3.737-13.495v-17.235c0-4.845.966-13.707,2.905-26.579l3.116-18.063c-1.737-1.797-3.745-3.74-6.021-5.815v-10.382c6.691,0,10.86-4.914,12.499-14.742,2.053-13.707,5.672-20.558,10.864-20.558,5.462,0,8.2,4.499,8.2,13.496,0,4.152-1.04,9.898-3.117,17.235v4.568h6.854c1.246,0,3.32-.343,6.23-1.039v13.704c-3.448,1.526-5.793,2.354-7.032,2.492" fill="#26668f" stroke-width="0"/>
    <path d="M1484.909,561.312c-6.227,8.998-13.01,13.497-20.348,13.497-5.812,0-10.521-3.735-14.119-11.213-2.632-5.258-3.944-10.098-3.944-14.534v-12.665c4.287-33.64,10.659-50.457,19.102-50.457,4.428,0,7.126,1.524,8.099,4.568.551,1.385.828,4.775.828,10.174,0,5.538-1.108,14.571-3.322,27.096-2.216,12.529-3.32,21.698-3.32,27.513,0,1.8.416,2.704,1.246,2.704.551,0,2.002-1.734,4.361-5.191l14.327-21.599c1.246,1.108,2.628,2.771,4.152,4.983.416.97.624,2.632.624,4.983,0,5.953-2.563,12.667-7.685,20.141M1477.436,462.682c-2.771,2.494-5.192,3.74-7.269,3.74-3.46,0-6.405-1.56-8.823-4.674-2.424-3.113-3.634-6.401-3.634-9.861,0-4.014,1.248-7.82,3.737-11.422,2.767-4.152,6.022-6.23,9.758-6.23,7.477,0,11.213,5.33,11.213,15.989,0,4.983-1.662,9.136-4.982,12.457" fill="#26668f" stroke-width="0"/>
    <path d="M1526.826,555.29c-5.679,9.274-13.36,13.912-23.05,13.912-7.888,0-14.049-3.734-18.478-11.207-3.602-6.234-5.399-13.568-5.399-22.014,0-13.981,4.911-26.579,14.743-37.793,8.858-9.967,17.093-14.949,24.709-14.949,5.949,0,11.281,2.77,15.989,8.308,4.568-4.568,8.443-6.854,11.628-6.854,4.703,0,7.058,3.67,7.058,11.005,0,4.152-1.214,11.214-3.632,21.18-2.424,9.967-3.634,17.305-3.634,22.008v13.706c3.044-1.108,5.606-3.391,7.682-6.854,3.183-5.399,5.052-8.373,5.606-8.927,2.909-3.325,7.197-5.607,12.876-6.854-1.663,9.416-4.849,17.859-9.555,25.332-5.953,9.274-13.01,13.912-21.177,13.912-6.368,0-11.494-4.639-15.366-13.912M1526.411,502.345c-.97-1.108-2.562-1.663-4.775-1.663-4.432,0-8.516,6.437-12.253,19.31-1.246,4.432-3.185,13.288-5.814,26.579.138,1.939,1.797,4.229,4.983,6.854,5.399-.97,10.106-7.338,14.122-19.106,3.457-9.828,5.191-18.271,5.191-25.332,0-2.905-.489-5.119-1.455-6.642" fill="#26668f" stroke-width="0"/>
    <path d="M742.193,517.412c5.104,0,7.657,2.076,7.657,6.235,0,3.117-2.363,5.481-7.088,7.09-8.131,2.931-12.194,8.172-12.194,15.735,0,6.049,2.364,10.77,7.09,14.174,4.063,2.836,9.214,4.255,15.454,4.255,12.474,0,23.388-3.638,32.744-10.919,5.859-4.627,8.79-10.488,8.79-17.577,0-4.344-.855-8.264-2.554-11.764-1.795-3.59-4.535-8.125-8.221-13.61-5.672-8.503-10.446-16.251-14.318-23.246-4.349-7.748-6.521-15.358-6.521-22.824,0-17.669,8.741-34.206,26.224-49.611,9.261-8.03,19.468-14.552,30.621-19.564,9.261-4.058,18.188-6.092,26.792-6.092,5.571,0,10.297,1.466,14.173,4.392,4.726,3.499,7.09,8.269,7.09,14.318,0,9.452-5.103,19.659-15.311,30.621-9.639,10.298-20.886,18.709-33.737,25.23-6.426,3.213-11.295,4.817-14.599,4.817-2.178,0-4.111-.892-5.815-2.692-1.132-1.227-1.7-2.597-1.7-4.111,0-3.494,3.117-6.33,9.358-8.502,11.433-4.063,21.544-9.782,30.333-17.153,11.339-9.448,17.01-17.721,17.01-24.806,0-2.74-1.136-4.964-3.404-6.664-1.795-1.322-3.919-1.986-6.377-1.986-6.522,0-14.694,2.507-24.524,7.514-13.228,6.712-23.627,15.358-31.183,25.942-6.617,9.166-9.921,18.099-9.921,26.792,0,6.33,1.747,12.852,5.242,19.559,2.926,5.39,6.664,11.481,11.2,18.29,4.345,6.521,8.029,12.57,11.056,18.141,3.494,6.617,5.243,12.809,5.243,18.571,0,11.152-6.378,21.03-19.135,29.627-10.87,7.181-23.154,10.77-36.855,10.77-13.515,0-24.1-3.728-31.752-11.195-5.763-5.672-8.646-12.193-8.646-19.563,0-8.222,2.74-15.119,8.221-20.696,3.304-3.403,7.228-5.953,11.763-7.652,3.117-1.228,5.72-1.843,7.796-1.843" fill="#26668f" stroke-width="0"/>
    <path d="M1065.3,516.696c5.103,0,7.658,2.076,7.658,6.234,0,3.117-2.363,5.481-7.089,7.09-8.13,2.931-12.193,8.173-12.193,15.735,0,6.049,2.363,10.77,7.09,14.174,4.062,2.836,9.213,4.255,15.453,4.255,12.475,0,23.389-3.637,32.745-10.919,5.859-4.626,8.79-10.488,8.79-17.577,0-4.344-.855-8.264-2.554-11.764-1.795-3.59-4.536-8.125-8.221-13.61-5.672-8.503-10.446-16.251-14.318-23.245-4.349-7.748-6.521-15.358-6.521-22.825,0-17.669,8.741-34.206,26.224-49.612,9.262-8.03,19.468-14.552,30.621-19.564,9.262-4.058,18.188-6.092,26.792-6.092,5.571,0,10.298,1.465,14.173,4.392,4.727,3.499,7.089,8.268,7.089,14.317,0,9.452-5.103,19.66-15.309,30.621-9.639,10.297-20.887,18.709-33.737,25.23-6.426,3.214-11.295,4.817-14.599,4.817-2.178,0-4.111-.892-5.816-2.692-1.131-1.227-1.699-2.597-1.699-4.111,0-3.495,3.117-6.33,9.357-8.502,11.433-4.063,21.545-9.782,30.334-17.154,11.339-9.447,17.01-17.721,17.01-24.805,0-2.74-1.136-4.965-3.404-6.664-1.795-1.323-3.92-1.986-6.377-1.986-6.522,0-14.695,2.506-24.525,7.514-13.228,6.712-23.627,15.358-31.184,25.942-6.617,9.167-9.92,18.099-9.92,26.792,0,6.33,1.747,12.852,5.241,19.559,2.927,5.39,6.665,11.481,11.2,18.29,4.345,6.521,8.03,12.57,11.057,18.141,3.494,6.616,5.242,12.808,5.242,18.57,0,11.153-6.378,21.03-19.135,29.628-10.87,7.18-23.154,10.77-36.855,10.77-13.516,0-24.1-3.728-31.752-11.195-5.763-5.672-8.646-12.193-8.646-19.564,0-8.22,2.74-15.118,8.221-20.695,3.304-3.403,7.227-5.953,11.764-7.652,3.117-1.227,5.719-1.843,7.795-1.843" fill="#26668f" stroke-width="0"/>
    <path d="M1061.304,516.696c5.103,0,7.657,2.076,7.657,6.234,0,3.117-2.364,5.481-7.089,7.09-8.13,2.931-12.193,8.173-12.193,15.735,0,6.049,2.363,10.77,7.089,14.174,4.064,2.836,9.215,4.255,15.454,4.255,12.475,0,23.387-3.637,32.745-10.919,5.858-4.626,8.789-10.488,8.789-17.577,0-4.344-.854-8.264-2.554-11.764-1.795-3.59-4.535-8.125-8.221-13.61-5.671-8.503-10.445-16.251-14.317-23.245-4.349-7.748-6.522-15.358-6.522-22.825,0-17.669,8.741-34.206,26.223-49.612,9.262-8.03,19.468-14.552,30.621-19.564,9.261-4.058,18.189-6.092,26.792-6.092,5.571,0,10.297,1.465,14.174,4.392,4.727,3.499,7.089,8.268,7.089,14.317,0,9.452-5.103,19.66-15.31,30.621-9.639,10.297-20.887,18.709-33.739,25.23-6.425,3.214-11.295,4.817-14.599,4.817-2.176,0-4.11-.892-5.814-2.692-1.132-1.227-1.7-2.597-1.7-4.111,0-3.495,3.117-6.33,9.357-8.502,11.433-4.063,21.545-9.782,30.334-17.154,11.339-9.447,17.01-17.721,17.01-24.805,0-2.74-1.137-4.965-3.404-6.664-1.795-1.323-3.919-1.986-6.378-1.986-6.521,0-14.694,2.506-24.523,7.514-13.229,6.712-23.627,15.358-31.184,25.942-6.617,9.167-9.92,18.099-9.92,26.792,0,6.33,1.747,12.852,5.241,19.559,2.926,5.39,6.664,11.481,11.2,18.29,4.345,6.521,8.03,12.57,11.056,18.141,3.495,6.616,5.243,12.808,5.243,18.57,0,11.153-6.378,21.03-19.134,29.628-10.87,7.18-23.154,10.77-36.856,10.77-13.515,0-24.099-3.728-31.752-11.195-5.762-5.672-8.646-12.193-8.646-19.564,0-8.22,2.741-15.118,8.222-20.695,3.303-3.403,7.227-5.953,11.764-7.652,3.117-1.227,5.718-1.843,7.795-1.843" fill="#26668f" stroke-width="0"/>
  </g>
</svg>