<?xml version="1.0" encoding="UTF-8"?>
<svg id="Capa_1" data-name="Capa 1" xmlns="http://www.w3.org/2000/svg" version="1.1" viewBox="0 0 510.236 623.622">
  <path d="M343.998,377.501c2.206-7.426,4.272-14.452,6.386-21.465,1.38-4.582,2.549-9.222,3.847-13.824,3.076-10.913,10.946-16.697,21.679-18.39,9.868-1.557,18.203,1.751,23.898,10.271,7.614,11.392,3.938,27.566-8.106,35.935-5.03,3.496-10.564,5.536-16.854,5.034-2.289-.183-3.378,1.265-3.976,3.358-2.939,10.279-5.678,20.627-9.036,30.769-1.707,5.156-1.245,9.565.812,14.485,12.03,28.769,23.805,57.644,35.664,86.484.031.074.046.154.075.228,1.837,4.527,1.336,5.293-3.571,5.261-8.395-.055-16.78.209-25.157.734-3.572.224-4.882-.518-6.267-3.856-5.776-13.922-11.537-27.851-17.309-41.773-.301-.727-.655-1.431-1.223-2.659-1.608,5.438-3.09,10.396-4.539,15.364-4.332,14.858-8.524,29.759-13.01,44.57-5.414,17.873-27.685,24.194-41.767,11.993-8.019-6.948-10.024-20.213-4.23-30.379,5.414-9.499,13.487-14.931,24.78-14.801,3.894.045,4.405-.402,5.497-4.18,3.277-11.343,6.564-22.683,9.855-34.022,1.064-3.668.56-4.339-3.366-4.34-40.954-.002-81.908-.002-122.863,0-2.701,0-2.71.01-1.302,2.473,9.95,17.401,19.852,34.831,29.878,52.19,4.922,8.52,6.16,17.216,1.776,26.267-4.748,9.801-15.196,15.72-24.95,14.315-11.03-1.589-19.747-10.047-21.552-21.142-1.679-10.325.885-19.318,8.865-26.441.945-.843,1.367-1.678.651-2.907-6.225-10.691-12.426-21.395-18.642-32.092-.108-.187-.319-.312-.695-.669-1.888,4.506-3.783,8.844-5.531,13.241-4.152,10.444-8.889,20.649-12.601,31.277-2.06,5.9-4.995,7.608-11.173,6.997-8.541-.845-17.099-.334-25.648-.413-1.988-.019-2.607-.099-1.699-2.355,10.919-27.156,21.845-54.309,33.169-81.3,1.532-3.654,1.332-6.773-.663-10.195-11.861-20.345-23.665-40.723-35.348-61.17-7.396-12.944-1.243-30.806,12.389-36.547,13.406-5.647,28.28,1.738,32.845,16.346,3.122,9.995,1.627,19.055-5.493,27.005-3.007,3.356-3.013,5.167-.72,9.011,3.799,6.369,7.514,12.789,11.398,19.417,3.109-7.539,6.178-14.873,9.166-22.24,19.935-49.147,39.851-98.302,59.775-147.453,1.55-3.823,2.826-4.637,6.885-4.562,12.63.231,25.26.264,37.889.002,4.935-.103,6.312.777,8.169,5.316,20.137,49.232,40.274,98.465,60.42,147.692.387.945.889,1.844,1.52,3.138ZM256.141,253.693c-1.392.823-1.668,2.133-2.138,3.276-8.96,21.827-17.889,43.667-26.844,65.496-12.557,30.611-25.131,61.216-37.691,91.826-1.639,3.992-1.258,4.542,3.03,4.548,41.813.059,83.626.119,125.438.177,6.557.009,6.783-.368,4.295-6.349-19.259-46.3-38.506-92.605-57.756-138.907-2.77-6.665-5.537-13.33-8.335-20.067Z" fill="#ac2e29" fill-rule="evenodd" stroke-width="0"/>
  <path d="M168.282,98.404c2.287-.153,3.221,1.236,3.505,3.163.422,2.855,1.252,5.601,1.983,8.376.809,3.071.771,3.145-2.243,3.897-12.149,3.033-24.298,6.068-36.447,9.101-2.708.677-5.443,1.26-8.116,2.052-1.898.562-2.949-.134-3.467-1.855-.779-2.595-1.579-5.191-2.182-7.83-.709-3.108.15-4.623,3.161-5.753,4.344-1.63,8.906-2.496,13.388-3.635,9.431-2.397,18.879-4.724,28.321-7.074.692-.172,1.397-.296,2.097-.442ZM123.647,114.044c.532,1.999,1.177,3.977,1.565,6.003.383,2,1.222,2.703,3.31,2.121,3.529-.982,7.125-1.724,10.687-2.595,9.833-2.406,19.699-4.685,29.414-7.549,2.99-.882,3.401-1.8,2.251-4.724-.406-1.034-.845-2.077-1.066-3.158-.586-2.855-1.185-3.405-4.009-2.709-13.392,3.301-26.765,6.678-40.147,10.016-1.369.341-2.094,1.095-2.004,2.595Z" fill="#24658e" fill-rule="evenodd" stroke-width="0"/>
  <path d="M364.663,124.395c-5.37-.702-10.562-2.32-15.833-3.577-8.927-2.127-17.829-4.354-26.749-6.509-4.043-.977-4.512-1.811-3.353-5.876.722-2.531,1.355-5.09,1.92-7.661.447-2.039,1.459-2.815,3.584-2.287,14.791,3.672,29.6,7.277,44.392,10.945,2.581.641,3.186,1.66,2.604,4.169-.63,2.718-1.189,5.464-2.268,8.054-.781,1.874-2.061,3.048-4.297,2.742ZM325.432,101.273c-1.819-.264-2.45.393-2.746,1.41-.445,1.531-.847,3.077-1.224,4.627-.837,3.434-.413,4.206,3.059,5.089,5.487,1.395,11.001,2.684,16.492,4.059,7.115,1.781,14.219,3.606,21.329,5.408,3.479.882,4.342.347,5.175-3.189.256-1.087.491-2.178.77-3.259.794-3.083.543-3.548-2.585-4.317-10.606-2.61-21.216-5.205-31.825-7.798-3.022-.739-6.049-1.454-8.444-2.029Z" fill="#24658e" fill-rule="evenodd" stroke-width="0"/>
  <path d="M139.253,54.809c-2.512-.484-4.255.139-5.634,2.084-2.33,3.286-5.221,3.938-8.762,2.154-3.406-1.716-4.789-4.783-3.773-8.367,1.049-3.699,3.631-5.414,7.55-5.076.783.067,1.606.055,2.368-.115.87-.194,1.72-.686,1.99-1.576.329-1.085-.845-1.202-1.404-1.624-4.651-3.519-5.397-7.197-2.198-11.195,1.896-2.37,4.648-3.075,7.779-1.991,2.971,1.027,4.429,2.973,4.505,6.068.02.798-.18,1.617-.056,2.391.135.85-1.213,1.981.143,2.459,1.168.413,2.564.279,3.603-.702.459-.434.839-.959,1.224-1.465,2.102-2.772,4.823-3.514,8.049-2.179,3.431,1.419,5.136,4.213,4.593,7.527-.607,3.712-2.802,5.971-6.226,6.238-1.345.105-2.711-.1-4.066-.089-.881.006-1.531.426-1.681,1.383-.149.963.343,1.527,1.199,1.801,7.054,2.257,13.967,5.097,21.618,4.693,10.477-.552,18.151-5.893,24.284-13.954,1.196-1.573.199-2.559-.902-3.656-3.933-3.914-2.603-10.288,2.492-12.122,2.891-1.04,5.357-.002,7.537,1.817,2.131,1.779,2.768,4.248,1.809,6.727-1.022,2.648.047,3.961,2.099,5.288,14.545,9.4,29.668,7.705,41.393-4.755.561-.596,1.936-1.175,1.081-2.27-.768-.984-1.932-1.809-3.352-1.35-.815.263-1.583.745-2.297,1.238-2.57,1.777-4.689,1.898-7.091.333-2.728-1.779-4.379-5.125-3.667-7.756.707-2.608,2.224-4.75,4.908-5.445,2.585-.668,5.26-.735,7.134,1.831.615.842,1.387.71,2.103.21.804-.559,1.593-1.22,1.021-2.366-.281-.566-.743-1.039-1.057-1.592-1.611-2.843-1.075-6.32,1.297-8.558,2.699-2.546,6.051-2.88,8.967-.895,2.709,1.844,3.995,5.549,2.974,8.451-.198.561-.496,1.002-.97,1.318-1.026.683-1.533,1.413-.424,2.472.979.934,1.918,1.767,3.265.53,2.346-2.153,5.082-2.318,7.776-.999,2.694,1.319,4.301,3.619,4.096,6.752-.207,3.154-2.055,5.295-4.794,6.668-1.52.761-3.068.646-4.592-.184-3.319-1.808-5.038-1.903-8.745-.533,4.277,5.909,10.092,9.506,16.856,11.661,7.72,2.459,15.403,2.375,22.971-.757,1.988-.823,4.043-1.491,6.021-2.335,2.479-1.057,3.019-2.162,1.877-4.48-1.349-2.74-1.398-5.245.768-7.491,2.061-2.136,4.615-3.313,7.587-2.388,2.971.924,4.764,3.098,5.361,6.191.399,2.07-.338,3.707-1.786,5.182-2.286,2.329-2.257,3.038-.002,5.354,5.858,6.015,12.455,10.774,21.004,12.09,7.479,1.151,14.416-.758,21.11-3.91.518-.244,1.069-.488.837-1.221-.274-.867-.72-1.606-1.685-1.853-1.047-.268-2.058-.002-3.075.206-3.827.783-6.642-.892-7.966-4.729-1.268-3.673.02-6.797,3.548-8.614,3.456-1.779,6.584-1.051,8.838,2.08.743,1.033,1.321,2.278,2.941,1.986,1.308-.235,2.257-.342,1.78-2.358-1.51-6.381,1.923-10.675,7.556-9.838,3.198.475,5.383,2.505,6.063,5.636.669,3.078-.376,5.62-3.093,7.431-.776.518-1.602.963-2.522,1.512,1.765,1.793,3.723,2.422,5.971,2.025,3.041-.538,5.387.445,6.891,3.124,1.41,2.511,1.857,5.172.101,7.701-1.825,2.627-4.4,3.879-7.647,3.483-1.631-.199-2.725-1.238-3.648-2.496-1.231-1.675-2.885-2.413-4.959-2.417-1.479-.002-1.584.475-.914,1.665,4.994,8.876,12.533,14.042,22.554,15.723,7.376,1.237,14.266-.84,21.123-3.029,2.384-.761,2.833-2.298,1.627-5.032-.975-2.208-1.335-4.298.339-6.269,1.924-2.266,4.378-3.475,7.397-3.102,2.747.34,5.241,2.751,5.858,5.65.674,3.168-.599,5.623-3.086,7.523-2.671,2.042-2.704,2.048-.595,4.805,7.574,9.901,16.884,17.172,29.521,19.346,2.839.488,5.746,1.071,8.577.647,3.026-.454,5.911-1.113,7.601-4.571,5.608-11.474,11.588-22.765,17.392-34.143,2.822-5.533,9.338-6.764,13.989-2.578,1.32,1.188,2.294,2.64,3.193,4.168,1.245,2.116,1.074,4.037-.347,6.012-16.758,23.29-33.486,46.601-50.241,69.894-5.24,7.285-9.113,15.343-13.347,23.098.365.748.914.501,1.335.497,9.596-.092,19.191.221,28.785-.164,4.496-.181,5.61.905,5.603,5.622-.022,13.595-.159,27.189-.166,40.783-.022,48.953-.009,97.907-.009,146.86,0,66.552-.244,133.104.121,199.653.145,26.371-19.696,50.464-46.541,54.489-2.363.355-4.774.559-7.164.56-37.995.034-75.99.059-113.984-.003-8.074-.013-16.153-.339-24.218.062-6.985.348-12.7,3.41-17.114,8.887-2.783,3.454-3.632,3.535-6.913.578-7.286-6.565-15.85-9.65-25.608-9.639-45.991.053-91.983.104-137.975.135-28.033.02-50.573-19.198-54.882-46.824-.404-2.595-.554-5.255-.555-7.884-.027-104.787-.019-209.573-.026-314.359-.002-23.916-.046-47.831-.07-71.747,0-.721-.02-1.441.006-2.16.129-3.808,1.346-5.162,5.123-4.989,7.356.337,14.708.167,22.062.137.671-.003,1.597.389,1.969-.325.358-.689-.434-1.279-.776-1.879-17.345-30.442-37.084-59.333-57.035-88.088-1-1.442-2.006-2.9-2.822-4.449-2.119-4.023-1.412-7.609,2.164-10.454,3.368-2.68,7.272-3.906,11.608-3.693,2.059.102,3.364,1.11,4.233,2.969,5.612,11.999,11.285,23.97,16.892,35.971.6,1.283,1.332,1.876,2.816,2.051,6.027.712,11.999,1.712,18.13.94,9.659-1.216,16.845-5.999,21.72-14.357,1.608-2.759,1.482-3.111-1.451-4.383-3.944-1.711-5.298-4.789-3.843-8.742,1.448-3.932,4.583-5.581,8.541-4.492,4.246,1.168,6.06,3.999,5.133,8.289-.372,1.72-.308,3.119,1.625,3.598,8.812,2.181,17.665,3.942,26.701,1.256,7.903-2.35,13.21-7.673,17.084-14.906ZM460.373,361.813v-186.215c0-.72.018-1.441-.007-2.159-.095-2.791-.947-3.768-3.691-3.976-4.631-.35-9.268-.029-13.9-.028-90.148.018-180.296.014-270.444.013-1.595,0-3.193-.082-4.783.003-3.657.194-4.499,1.047-4.532,4.658-.027,2.956.107,5.914.114,8.871.036,16.156.058,32.314.075,48.471.004,3.893-1.083,4.948-5.028,4.942-32.872-.051-65.744-.105-98.616-.155-5.339-.008-6.26.924-6.26,6.276v219.791c0,26.957.004,53.913-.006,80.869-.001,3.281.05,6.558.487,9.811,1.608,11.962,6.743,21.896,16.821,28.922,7.976,5.56,17.031,7.481,26.559,7.477,45.35-.026,90.7-.132,136.051-.152,8.909-.005,17.5,1.478,25.181,6.423,1.685,1.084,3.24.896,4.843-.359,4.814-3.774,10.401-5.432,16.439-5.836,5.513-.37,11.021-.094,16.533-.087,39.035.053,78.07.031,117.104.019,2.315,0,4.636-.054,6.946-.197,12.258-.761,22.883-5.053,30.819-14.757,6.774-8.284,9.297-18.033,9.296-28.569-.003-61.352,0-122.703,0-184.056ZM247.697,69.767c-1.918,0-3.837-.026-5.754.007-1.995.035-3.989.135-5.984.194-27.348.819-54.167,5.186-80.614,12.035-32.468,8.408-63.645,20.39-94.2,34.088-3.472,1.557-3.699,2.152-2.14,5.634,4.383,9.78,9.508,19.159,15.24,28.21,4.338,6.849,5.291,7.165,12.804,4.054,22.284-9.23,44.929-17.445,68.108-24.145,26.576-7.683,53.669-12.344,81.321-13.511,32.817-1.385,65.033,2.751,96.838,10.709,28.143,7.04,55.539,16.347,82.533,26.877,3.772,1.472,7.613,1.593,11.477,1.945,1.407.128,2.608-.743,3.444-1.892.749-1.029,1.451-2.107,2.051-3.23,4.882-9.158,9.871-18.257,15.145-27.198,2-3.39,1.652-4.534-1.923-6.042-29.575-12.469-59.546-23.83-90.548-32.296-35.289-9.637-71.13-15.453-107.798-15.439ZM463.481,96.367c-1.786,0-3.2-.041-4.611.006-10.244.343-19.596-2.237-27.869-8.42-4.589-3.43-8.411-7.596-11.836-12.16-2.464-3.283-3.684-3.61-7.597-2.22-1.578.56-3.153,1.136-4.755,1.627-11.764,3.606-22.875,2.835-32.92-4.969-3.62-2.813-6.737-6.122-9.541-9.738-2.572-3.318-3.012-3.429-6.821-1.885-.888.36-1.783.7-2.685,1.022-15.099,5.401-31.124,1.133-41.518-11.053-3.514-4.119-4.587-4.311-9.385-1.814-8.454,4.399-17.333,6.411-26.861,4.699-8.111-1.457-14.936-5.443-21.099-10.726-2.356-2.021-2.929-2.026-5.229.088-.353.325-.685.672-1.039.996-7.14,6.525-15.343,10.309-25.217,9.618-7.098-.496-13.477-3.136-19.478-6.812-4.058-2.485-4.621-2.389-7.396,1.395-6.805,9.282-15.697,14.948-27.403,15.345-7.605.258-14.916-1.328-21.85-4.551-3.509-1.631-4.558-1.31-6.389,2.003-5.779,10.458-14.92,15.357-26.561,16.21-6.616.485-13.049-.486-19.414-2.204-3.369-.909-4.941-.349-6.384,2.524-5.897,11.743-15.817,16.827-28.501,17.393-4.318.193-8.627-.119-12.93-.43-1.788-.129-2.414.107-1.647,2.162,1.763,4.72,4.299,9.079,6.124,13.761.806,2.066,2.402,2.667,4.474,2.017.835-.262,1.654-.589,2.453-.949,22.778-10.288,46.041-19.309,69.852-26.925,42.642-13.639,86.215-20.856,131.101-19.533,24.041.709,47.732,3.87,71.186,9.076,33.833,7.509,66.531,18.551,98.609,31.537,6.361,2.575,12.669,5.282,19.053,7.798,3.501,1.38,5.139.945,7.053-1.444,3.134-3.914,4.704-8.627,7.028-13.446ZM395.903,155.001c-96.523-41.03-193.032-42.998-289.511.16,96.499.708,192.999.688,289.511-.16Z" fill="#24658e" fill-rule="evenodd" stroke-width="0"/>
  <path d="M280.782,98.37c-19.94,8.366-40.361,8.024-60.22-.298,18.151-8.24,41.522-7.774,60.22.298Z" fill="#24658e" fill-rule="evenodd" stroke-width="0"/>
  <path d="M104.983,131.051c-3.863.026-7.188-3.209-7.304-7.109-.115-3.885,3.371-7.424,7.281-7.392,3.834.032,7.163,3.402,7.163,7.254.001,3.889-3.282,7.221-7.141,7.247Z" fill="#24658e" fill-rule="evenodd" stroke-width="0"/>
  <path d="M391.058,117.204c4.007.019,7.233,3.156,7.256,7.061.023,3.823-3.299,7.191-7.161,7.259-3.919.068-7.431-3.403-7.38-7.297.052-3.933,3.277-7.042,7.285-7.023Z" fill="#24658e" fill-rule="evenodd" stroke-width="0"/>
  <path d="M197.672,108.168c-4.158.032-7.2-3.032-7.192-7.244.008-4.095,3.006-7.054,7.127-7.036,4.041.018,7.132,3.087,7.154,7.105.022,3.967-3.118,7.145-7.089,7.176Z" fill="#24658e" fill-rule="evenodd" stroke-width="0"/>
  <path d="M292.311,100.823c.05-4.043,3.164-7.033,7.222-6.933,3.96.098,7.2,3.383,7.11,7.206-.094,3.925-3.323,7.079-7.242,7.072-4.1-.007-7.143-3.16-7.09-7.345Z" fill="#24658e" fill-rule="evenodd" stroke-width="0"/>
</svg>