<?xml version="1.0" encoding="UTF-8"?>
<svg id="LOGOS" xmlns="http://www.w3.org/2000/svg" version="1.1" xmlns:xlink="http://www.w3.org/1999/xlink" viewBox="0 0 1984.252 1984.252">
  <!-- Generator: Adobe Illustrator 30.0.0, SVG Export Plug-In . SVG Version: 2.1.1 Build 123)  -->
  <defs>
    <clipPath id="clippath">
      <polygon points="464.257 1764.841 164.091 984.807 442.446 219.851 867.069 1031.99 464.257 1764.841" fill="none"/>
    </clipPath>
    <clipPath id="clippath-1">
      <polygon points="867.069 1031.99 442.446 219.851 1322.895 286.471 1820.12 973.784 867.069 1031.99" fill="none"/>
    </clipPath>
    <clipPath id="clippath-2">
      <polygon points="1820.12 973.784 1318.703 1613.568 464.257 1764.841 867.069 1031.99 1820.12 973.784" fill="none"/>
    </clipPath>
  </defs>
  <g isolation="isolate">
    <g clip-path="url(#clippath)">
      <path d="M220.036,831.462l-55.873,153.532,61.814,160.635c1.226-4.761-.49-14.253-3.751-26.539-3.251-12.248-8.028-27.233-12.944-43.06-4.893-15.751-9.923-32.333-13.746-47.948s-6.43-30.201-6.537-42.207c-.106-11.933,2.225-25.663,5.676-40.031,3.468-14.441,8.076-29.567,12.478-44.134,4.43-14.658,8.649-28.741,11.267-40.913s3.633-22.46,1.617-29.334"/>
      <path d="M540.821,1201.778c-1.537,3.158-2.931,6.439-4.181,9.845-1.248,3.4-2.354,6.925-3.318,10.574-.963,3.645-1.784,7.416-2.464,11.313s-1.219,7.914-1.619,12.063c-.4,4.144-.668,8.311-.803,12.502-.136,4.189-.139,8.402-.012,12.641.128,4.238.387,8.502.778,12.792.391,4.291.914,8.609,1.568,12.956.656,4.354,1.435,8.64,2.336,12.858.902,4.221,1.928,8.374,3.078,12.462,1.151,4.092,2.426,8.119,3.827,12.082,1.402,3.968,2.93,7.872,4.585,11.715,1.657,3.848,3.359,7.442,5.105,10.782s3.542,6.435,5.381,9.27,3.729,5.425,5.663,7.753,3.92,4.409,5.949,6.229c.667.598,1.334,1.165,2.001,1.7s1.335,1.041,2.003,1.515,1.337.916,2.006,1.327,1.339.79,2.01,1.137c.017.011.035.021.053.03s.036.019.054.028.036.018.054.028.036.019.053.03l-5.33,10.213,11.84,27.454,93.518-176.657-12.941-27.886-35.414,67.86c-.003-.038-.007-.077-.009-.117s-.006-.079-.008-.119-.005-.08-.008-.119-.006-.079-.01-.117c-.106-1.475-.229-2.952-.367-4.431s-.292-2.962-.461-4.446c-.17-1.485-.355-2.972-.555-4.462s-.417-2.983-.648-4.479c-.209-1.339-.43-2.672-.663-3.998-.232-1.326-.476-2.645-.732-3.957s-.522-2.617-.801-3.915c-.278-1.298-.568-2.588-.869-3.872l-12.153,23.571c.286,2.611.499,5.21.639,7.795s.207,5.159.201,7.717-.085,5.102-.237,7.63c-.152,2.528-.377,5.04-.675,7.536-.262,2.199-.582,4.347-.961,6.442-.379,2.095-.816,4.138-1.311,6.129s-1.048,3.928-1.659,5.815c-.611,1.885-1.28,3.719-2.006,5.501-.113.277-.227.553-.343.827s-.233.548-.352.82-.239.543-.361.813-.245.539-.37.806l-2.936,5.627c-.137.233-.274.463-.411.691s-.276.452-.414.673-.278.439-.417.654-.279.427-.42.635c-.9,1.34-1.821,2.556-2.761,3.649s-1.898,2.059-2.877,2.904-1.975,1.565-2.992,2.163-2.051,1.072-3.106,1.424c-1.369.461-2.738.722-4.105.786-1.366.064-2.731-.07-4.095-.4s-2.724-.856-4.085-1.577-2.717-1.636-4.075-2.746c-1.356-1.108-2.679-2.397-3.971-3.864s-2.549-3.11-3.775-4.934-2.419-3.821-3.582-5.998c-1.161-2.175-2.291-4.528-3.389-7.059-1.108-2.551-2.126-5.147-3.056-7.787s-1.77-5.321-2.523-8.049-1.417-5.499-1.993-8.319c-.577-2.818-1.066-5.683-1.468-8.595-.404-2.917-.717-5.815-.939-8.696-.222-2.881-.354-5.745-.394-8.593s.009-5.682.149-8.501c.14-2.82.371-5.626.692-8.419.319-2.793.73-5.505,1.234-8.135.504-2.631,1.1-5.181,1.788-7.65.689-2.47,1.47-4.859,2.344-7.166.875-2.31,1.842-4.538,2.902-6.684,1.072-2.171,2.178-4.139,3.316-5.904,1.14-1.767,2.313-3.329,3.519-4.687s2.45-2.515,3.726-3.466c1.277-.952,2.589-1.698,3.935-2.239,1.175-.473,2.352-.797,3.533-.973s2.366-.202,3.554-.079,2.38.397,3.575.822c1.196.425,2.395,1.001,3.596,1.729l-.053-.119,11.84-23.696c-.585-.679-1.174-1.335-1.766-1.968s-1.187-1.241-1.787-1.826-1.201-1.146-1.807-1.684-1.214-1.051-1.826-1.541c-2.078-1.653-4.147-3.011-6.209-4.073s-4.108-1.826-6.15-2.298-4.068-.649-6.089-.536c-2.017.114-4.027.518-6.027,1.213-1.997.692-3.939,1.699-5.825,3.021s-3.709,2.952-5.482,4.899c-1.769,1.943-3.484,4.198-5.144,6.765-1.657,2.563-3.261,5.436-4.811,8.621"/>
      <path d="M593.162,1214.525c-.365.726-.698,1.49-1,2.292s-.572,1.641-.81,2.518-.446,1.792-.621,2.745-.32,1.944-.432,2.972c-.112,1.03-.193,2.065-.242,3.105s-.068,2.085-.056,3.135c.012,1.05.056,2.105.131,3.166s.181,2.127.318,3.198c.136,1.071.302,2.116.5,3.133.198,1.018.427,2.008.687,2.972s.551,1.901.873,2.81.674,1.792,1.058,2.648.783,1.651,1.197,2.383.843,1.401,1.287,2.007.904,1.15,1.378,1.631.965.899,1.47,1.255c.504.355,1.007.644,1.51.865s1.004.376,1.504.464,1,.108,1.499.06.996-.163,1.492-.346.977-.434,1.442-.751.915-.703,1.349-1.156.853-.973,1.255-1.562.79-1.245,1.161-1.969.712-1.489,1.021-2.29.587-1.64.833-2.516.461-1.79.645-2.742.336-1.941.457-2.967c.121-1.027.209-2.059.263-3.098s.076-2.083.064-3.133-.057-2.106-.135-3.167-.189-2.127-.333-3.199c-.145-1.073-.32-2.12-.526-3.14s-.442-2.013-.71-2.98-.565-1.906-.894-2.819-.688-1.799-1.078-2.658-.793-1.652-1.211-2.385-.851-1.402-1.298-2.01-.907-1.152-1.382-1.633-.963-.9-1.465-1.256c-.503-.357-1.005-.647-1.507-.869s-1.003-.377-1.504-.464-1.002-.107-1.502-.06-1,.161-1.5.343c-.499.183-.981.434-1.447.753s-.914.707-1.346,1.162-.847.979-1.246,1.571-.781,1.251-1.147,1.979"/>
      <path d="M358.418,694.183c-.285.742-.546,1.51-.782,2.304s-.446,1.614-.632,2.461-.347,1.719-.484,2.617-.248,1.823-.336,2.773c-.087.953-.149,1.903-.184,2.85-.036.947-.045,1.891-.029,2.833s.058,1.881.125,2.818c.068.937.161,1.872.281,2.805.119.933.263,1.836.43,2.708s.357,1.714.572,2.526c.214.812.453,1.593.714,2.345s.548,1.473.857,2.164.632,1.326.964,1.9.676,1.09,1.03,1.546.72.854,1.096,1.192.764.618,1.163.839c.399.221.798.38,1.196.479s.797.136,1.195.112.796-.109,1.193-.255.795-.355,1.192-.624c.397-.268.78-.596,1.15-.982s.727-.832,1.07-1.336.674-1.068.99-1.691.62-1.305.91-2.046.555-1.514.794-2.313.453-1.627.64-2.482.35-1.739.486-2.651c.136-.912.247-1.852.332-2.821s.145-1.935.18-2.9.044-1.928.028-2.889-.057-1.92-.124-2.877-.159-1.912-.276-2.864c-.117-.952-.259-1.872-.426-2.76-.167-.888-.358-1.743-.574-2.566s-.456-1.613-.722-2.372-.555-1.483-.87-2.176-.639-1.322-.977-1.89-.685-1.076-1.045-1.522-.731-.831-1.114-1.155-.777-.587-1.182-.789c-.405-.202-.808-.342-1.21-.421s-.801-.097-1.199-.053-.794.147-1.189.312-.787.39-1.179.676c-.391.287-.768.63-1.132,1.031s-.716.858-1.054,1.373-.663,1.086-.975,1.715-.611,1.315-.897,2.058"/>
      <polyline points="350.063 724.383 317.162 809.688 326.805 832.044 360.066 746.796 350.063 724.383"/>
      <path d="M535.176,1086.082c-.343.73-.657,1.493-.942,2.291s-.54,1.628-.765,2.493-.422,1.763-.589,2.695c-.167.932-.305,1.897-.414,2.897-.109,1.002-.187,2.007-.234,3.015s-.064,2.018-.05,3.032.058,2.031.134,3.051.181,2.045.318,3.073c.137,1.028.302,2.03.496,3.004s.416,1.922.666,2.842c.25.92.529,1.814.837,2.681s.643,1.707,1.008,2.52.743,1.568,1.135,2.262.797,1.326,1.216,1.898.851,1.083,1.297,1.534.906.841,1.379,1.17c.473.329.947.593,1.42.792s.947.331,1.42.399.947.068,1.421.004.948-.196,1.422-.393c.474-.196.932-.458,1.374-.786s.87-.723,1.281-1.185.808-.99,1.188-1.584.745-1.256,1.094-1.984.669-1.496.958-2.298c.289-.802.548-1.641.776-2.515s.426-1.786.594-2.733.304-1.931.411-2.95c.107-1.02.183-2.043.23-3.071s.063-2.06.049-3.095-.058-2.075-.132-3.117-.178-2.089-.313-3.138c-.134-1.049-.298-2.07-.492-3.061s-.416-1.954-.669-2.887c-.252-.933-.534-1.837-.846-2.712s-.652-1.72-1.023-2.537-.754-1.566-1.152-2.254-.81-1.313-1.236-1.875-.866-1.06-1.319-1.496-.921-.808-1.402-1.118c-.481-.31-.96-.554-1.438-.731s-.953-.288-1.427-.334-.946-.025-1.416.061-.939.237-1.406.453c-.466.218-.917.499-1.352.845s-.856.756-1.261,1.23-.795,1.012-1.169,1.615-.734,1.269-1.078,2.001"/>
      <polyline points="525.084 1116.535 485.61 1200.216 496.912 1226.42 536.849 1142.896 525.084 1116.535"/>
      <polyline points="360.8 569.453 292.3 752.421 301.544 773.854 370.781 590.959 360.8 569.453"/>
      <path d="M412.932,917.946c-.847,1.814-1.716,3.476-2.606,4.985-.889,1.508-1.799,2.865-2.731,4.071-.931,1.204-1.883,2.258-2.856,3.161s-1.965,1.654-2.98,2.256c-1.14.68-2.281,1.176-3.424,1.489s-2.283.442-3.426.39-2.284-.286-3.428-.702-2.284-1.01-3.427-1.785c-1.141-.776-2.256-1.725-3.346-2.846-1.088-1.12-2.151-2.413-3.189-3.878-1.036-1.463-2.047-3.099-3.032-4.906s-1.943-3.783-2.875-5.932c-.941-2.167-1.807-4.392-2.599-6.676s-1.509-4.624-2.152-7.024c-.643-2.399-1.213-4.857-1.71-7.375-.497-2.517-.92-5.093-1.271-7.73-.352-2.642-.628-5.283-.827-7.924-.2-2.641-.323-5.282-.372-7.924s-.021-5.287.082-7.933c.103-2.647.281-5.296.535-7.948.252-2.652.583-5.249.994-7.79.411-2.543.901-5.03,1.47-7.462.57-2.434,1.219-4.814,1.948-7.138.73-2.327,1.539-4.599,2.428-6.816.882-2.198,1.794-4.218,2.736-6.06.944-1.843,1.918-3.507,2.922-4.991s2.042-2.791,3.109-3.914,2.167-2.069,3.297-2.83c1.13-.764,2.264-1.345,3.4-1.743s2.279-.614,3.424-.646,2.296.122,3.449.46,2.313.864,3.475,1.575c1.162.707,2.301,1.595,3.417,2.666,1.117,1.072,2.211,2.326,3.281,3.764s2.12,3.061,3.145,4.866,2.028,3.798,3.007,5.973c.971,2.157,1.867,4.384,2.688,6.68s1.568,4.666,2.238,7.104c.671,2.439,1.266,4.946,1.784,7.522s.962,5.223,1.328,7.936c.367,2.712.654,5.429.86,8.15.207,2.721.333,5.445.378,8.171s.011,5.454-.105,8.184c-.116,2.729-.312,5.458-.589,8.187-.247,2.428-.557,4.804-.931,7.128-.374,2.323-.812,4.594-1.315,6.811s-1.068,4.38-1.697,6.49-1.322,4.164-2.079,6.165l-2.431,5.787M363.622,800.71c-1.286,3.246-2.449,6.578-3.491,9.996-1.04,3.413-1.958,6.912-2.755,10.497-.796,3.582-1.471,7.25-2.026,11.007-.554,3.753-.988,7.595-1.302,11.525-.315,3.928-.519,7.854-.612,11.779-.093,3.923-.076,7.846.051,11.769.127,3.922.365,7.845.713,11.769.348,3.925.807,7.851,1.375,11.78.57,3.936,1.244,7.784,2.02,11.545.777,3.763,1.657,7.441,2.642,11.033s2.075,7.107,3.269,10.534c1.196,3.431,2.497,6.78,3.903,10.047,1.409,3.271,2.853,6.297,4.334,9.076,1.483,2.784,3.002,5.322,4.557,7.613,1.558,2.295,3.153,4.342,4.784,6.142,1.634,1.803,3.306,3.357,5.016,4.663.578.441,1.155.853,1.732,1.234s1.155.732,1.732,1.052,1.155.61,1.732.867,1.155.485,1.733.679l-26.873,63.962,9.904,23.464,75.163-176.742-10.726-23.664-4.681,11.141c-.095-1.385-.203-2.77-.326-4.155s-.259-2.77-.41-4.155-.315-2.769-.494-4.153-.371-2.767-.577-4.15c-.611-4.094-1.333-8.092-2.167-11.992s-1.778-7.696-2.834-11.395c-1.055-3.696-2.22-7.292-3.495-10.787s-2.657-6.881-4.15-10.169-3.016-6.3-4.574-9.052c-1.557-2.747-3.147-5.23-4.771-7.448s-3.276-4.166-4.964-5.855c-1.685-1.686-3.403-3.11-5.154-4.274-1.746-1.156-3.486-2.037-5.219-2.643s-3.452-.937-5.167-.996-3.416.154-5.113.638c-1.694.483-3.38,1.237-5.058,2.26-1.676,1.02-3.302,2.32-4.88,3.9-1.575,1.577-3.101,3.433-4.578,5.567s-2.901,4.538-4.28,7.223-2.704,5.636-3.984,8.868"/>
      <path d="M469.329,915.967l-9.318,21.466-22.146,51.022c-2.144,4.938-4.006,9.794-5.589,14.57-1.58,4.766-2.883,9.456-3.909,14.071-1.025,4.609-1.776,9.146-2.253,13.615-.477,4.465-.68,8.864-.611,13.198l.008.196c.074,4.218.407,8.54,1,12.969.592,4.431,1.445,8.97,2.557,13.62,1.113,4.655,2.488,9.423,4.124,14.306,1.639,4.891,3.541,9.901,5.709,15.032.054.129.109.257.163.385s.109.255.163.382.109.253.163.379.108.252.163.378c.069.161.139.321.208.481s.139.319.208.477.139.316.208.473.139.313.208.468c2.202,4.988,4.365,9.395,6.488,13.216,2.127,3.83,4.214,7.072,6.26,9.726,2.05,2.659,4.06,4.726,6.028,6.2s3.903,2.357,5.792,2.639l.088.024c1.961.276,3.957-.084,5.987-1.082,2.035-1,4.105-2.641,6.21-4.925s4.257-5.225,6.44-8.811c2.189-3.594,4.414-7.842,6.677-12.746l23.391-50.685,9.845-21.334-11.626-25.649-1.358,2.982-12.083,26.529-17.24,37.851c-1.664,3.654-3.279,6.871-4.845,9.655-1.563,2.779-3.078,5.125-4.544,7.04-1.464,1.912-2.879,3.396-4.246,4.451s-2.683,1.682-3.953,1.884c-.3.046-.6.07-.901.07s-.602-.023-.904-.069-.605-.116-.908-.21-.608-.21-.913-.351c-1.06-.943-2.098-2.023-3.114-3.241s-2.008-2.57-2.979-4.06-1.919-3.115-2.845-4.877c-.926-1.761-1.83-3.657-2.712-5.69-.909-2.093-1.752-4.23-2.531-6.41-.778-2.179-1.491-4.402-2.14-6.669-.648-2.266-1.232-4.576-1.751-6.931s-.973-4.752-1.363-7.196c-.046-.643-.084-1.284-.113-1.923s-.049-1.276-.06-1.911-.014-1.269-.007-1.901.022-1.263.046-1.892c.111-2.829.407-5.758.889-8.787.482-3.031,1.151-6.164,2.006-9.399.856-3.239,1.9-6.582,3.132-10.03,1.233-3.453,2.656-7.013,4.269-10.682l16.649-37.876,11.757-26.746,1.315-2.992-11.187-24.679"/>
    </g>
  </g>
  <g isolation="isolate">
    <g clip-path="url(#clippath-1)">
      <path d="M1096.719,455.558c-6.254,1.506-13.005,2.87-20.088,4.069-7.109,1.203-14.552,2.241-22.16,3.089-7.635.851-15.436,1.511-23.228,1.956-7.819.447-15.627.677-23.248.667,0,0-.601.035-1.736.079-1.136.044-2.806.097-4.946.131-2.142.034-4.755.05-7.772.021-3.021-.029-6.449-.104-10.217-.251-1.208-.047-2.45-.102-3.726-.165s-2.585-.134-3.924-.215-2.711-.17-4.11-.27-2.829-.21-4.284-.332l17.565,28.645,64.134,2.188,224.848,357.561-47.473,12.565-2.07,17.291,209.179-7.784-15.827-30.504-66.258,5.957-109.734-169.124c-9.576-14.872-18.069-28.699-25.495-41.497-7.382-12.723-13.711-24.436-19.001-35.153-5.261-10.66-9.496-20.339-12.713-29.049-3.202-8.669-5.398-16.382-6.597-23.151-1.192-6.737-1.97-12.602-2.338-17.604-.367-4.985-.326-9.116.121-12.401s1.296-5.712,2.549-7.312c1.252-1.597,2.907-2.362,4.967-2.297,1.309.042,2.596.293,3.859.755,1.263.462,2.505,1.134,3.724,2.017,1.219.883,2.417,1.976,3.594,3.281s2.333,2.822,3.469,4.55l11.3,19.441c4.291,6.536,8.728,12.287,13.306,17.244,4.586,4.965,9.309,9.129,14.165,12.484,4.858,3.357,9.843,5.903,14.95,7.634,5.103,1.73,10.323,2.645,15.654,2.746,2.908.055,5.489-.175,7.745-.69s4.181-1.313,5.784-2.395c1.601-1.08,2.877-2.443,3.83-4.088s1.579-3.565,1.885-5.767c.305-2.197.266-4.572-.115-7.122s-1.102-5.268-2.164-8.166c-1.06-2.893-2.459-5.96-4.197-9.202s-3.807-6.647-6.216-10.23c-2.603-3.873-5.382-7.604-8.337-11.194-2.951-3.585-6.078-7.031-9.383-10.339s-6.78-6.472-10.437-9.504c-3.655-3.03-7.489-5.924-11.504-8.686-4.013-2.757-7.979-5.186-11.9-7.287-3.921-2.101-7.799-3.875-11.634-5.321-3.837-1.448-7.634-2.569-11.391-3.363s-7.484-1.263-11.172-1.404c-8.44-.322-15.244,1.114-20.409,4.319-5.187,3.219-8.728,8.227-10.612,15.041-1.895,6.852-2.117,15.54-.652,26.088,1.476,10.62,4.664,23.14,9.588,37.592l4.508,9.201-73.66-114.748"/>
      <path d="M1250.751,312.698l-6.478-.452c1.432,10.2,2.495,19.102,3.216,27.068.725,8.012,1.102,15.067,1.162,21.544.06,6.509-.202,12.43-.754,18.154-.555,5.75-1.403,11.301-2.514,17.054l94.962,138.19-56.301-1.607,14.713,21.803,56.415,1.382,122.902,178.841,30.324,43.922c4.961,7.219,9.76,14.081,14.396,20.583,4.648,6.519,9.13,12.674,13.444,18.461s8.477,11.229,12.457,16.283c3.988,5.064,7.801,9.75,11.438,14.057,3.643,4.315,7.453,8.453,11.427,12.415,3.979,3.967,8.122,7.754,12.429,11.362,4.31,3.61,8.782,7.039,13.415,10.285,4.635,3.247,9.43,6.311,14.383,9.189,4.457,2.59,9.463,4.888,14.749,6.864s10.842,3.628,16.409,4.93c5.561,1.301,11.127,2.252,16.433,2.826,5.297.573,10.334.77,14.847.565.499-.023.992-.05,1.478-.083s.965-.07,1.437-.113.937-.09,1.394-.143.907-.11,1.349-.173c3.114-.441,6.579-1.205,10.065-2.202,3.48-.995,6.98-2.223,10.177-3.596,3.19-1.37,6.079-2.884,8.344-4.456,2.261-1.569,3.904-3.196,4.608-4.797l-5.882-8.268c-.382.143-.883.3-1.495.46s-1.334.32-2.16.47-1.756.287-2.781.4-2.147.201-3.356.251c-3.266.134-7.176-.011-11.576-.698-4.405-.688-9.301-1.921-14.529-3.96-5.232-2.04-10.792-4.886-16.521-8.798s-11.61-8.88-17.489-15.162c-3.11-3.324-6.65-7.328-10.602-12.019-3.945-4.683-8.296-10.049-13.034-16.103-4.727-6.04-9.834-12.761-15.302-20.168s-11.256-15.446-17.392-24.188l-34.664-49.338-123.684-176.2,62.906,1.54-15.632-21.072-62.231-1.776-156.904-223.525"/>
      <path d="M926.526,788.921c-3.657.068-7.499-.374-11.525-1.327-4.03-.954-8.242-2.419-12.635-4.396-4.395-1.977-8.968-4.465-13.719-7.462-4.75-2.996-9.674-6.501-14.77-10.511-5.092-4.006-10.05-8.423-14.873-13.25-4.816-4.82-9.494-10.045-14.031-15.672-4.529-5.616-8.915-11.629-13.158-18.035-4.232-6.39-8.319-13.166-12.258-20.325-5.388-9.79-9.846-18.963-13.383-27.524-3.522-8.526-6.129-16.445-7.826-23.763s-2.481-13.98-2.374-20.08c.106-6.076,1.102-11.565,2.982-16.471,1.874-4.886,5.266-9.208,10.166-12.97s11.253-6.935,19.11-9.569c7.821-2.622,17.108-4.693,27.849-6.218,10.689-1.517,22.813-2.491,36.359-2.927l37.71,64.896c4.138,7.121,7.915,13.882,11.327,20.278,3.423,6.414,6.479,12.461,9.166,18.137,2.695,5.691,5.019,11.008,6.97,15.949,1.956,4.953,3.537,9.526,4.741,13.717,1.205,4.202,2.105,8.409,2.702,12.621.598,4.222.891,8.451.877,12.686-.014,4.247-.336,8.502-.968,12.765-.633,4.276-1.577,8.561-2.834,12.857-1.259,4.313-2.94,8.106-5.044,11.376-2.11,3.279-4.645,6.031-7.606,8.254-2.968,2.228-6.363,3.924-10.184,5.084-3.829,1.163-8.086,1.789-12.77,1.876M722.241,353.164c-10.544-.596-20.976-1.048-30.847-1.11-9.907-.063-19.25.267-27.572,1.238-8.354.975-15.682,2.595-21.523,5.113-5.864,2.528-10.229,5.96-12.63,10.552-1.424,2.722-1.662,6.344-1.023,10.262.641,3.927,2.163,8.149,4.255,12.055,2.096,3.913,4.762,7.504,7.683,10.155,2.922,2.653,6.095,4.361,9.197,4.507.046.002.093.004.139.005s.093.003.139.003.093.001.139.001.093,0,.139,0c7.627-.107,12.654-2.175,16.683-5.172,4.014-2.987,7.035-6.894,10.649-10.7,3.6-3.791,7.788-7.48,14.133-10.056,6.319-2.566,14.778-4.029,26.927-3.391,3.837.201,7.739.727,11.615,1.507s7.723,1.811,11.459,3.027,7.357,2.612,10.779,4.123c3.421,1.51,6.641,3.133,9.572,4.799,2.152,1.225,4.216,2.423,6.224,3.645,2.008,1.222,3.961,2.468,5.893,3.789s3.842,2.717,5.766,4.239,3.861,3.171,5.844,4.996c1.527,1.405,4.11,4.511,7.544,9.101,3.441,4.598,7.741,10.692,12.699,18.069,4.974,7.401,10.615,16.102,16.722,25.893s12.743,20.777,19.624,32.619l34.231,58.91c-36.529,1.478-67.14,5.943-91.69,13.458-24.89,7.619-43.535,18.367-55.795,32.302-12.423,14.12-18.282,31.503-17.446,52.201.847,20.961,8.561,45.309,23.264,73.09,4.766,9.006,10.01,17.688,15.732,26.041,5.739,8.379,11.955,16.419,18.645,24.115,6.706,7.714,13.885,15.077,21.533,22.082s15.788,13.67,24.377,19.954c8.594,6.292,17.199,11.775,25.809,16.446,8.61,4.67,17.216,8.523,25.813,11.555,8.588,3.03,17.159,5.238,25.705,6.626,8.529,1.385,17.027,1.951,25.487,1.701,12.716-.376,23.711-2.998,32.986-7.845,9.219-4.817,16.724-11.825,22.523-20.993,5.755-9.099,9.821-20.311,12.213-33.598,2.371-13.167,3.094-28.352,2.194-45.509,11.97,17.005,23.842,31.953,35.592,44.799,11.796,12.897,23.439,23.643,34.905,32.207,11.482,8.576,22.756,14.942,33.801,19.086,11.032,4.139,21.806,6.051,32.304,5.74,10.832-.321,19.323-2.592,25.484-6.8,6.131-4.188,9.95-10.291,11.47-18.291,1.512-7.955.75-17.779-2.264-29.45-2.995-11.596-8.212-25.007-15.626-40.205l-10.484.128c.631,5.122.855,9.622.671,13.494-.184,3.882-.778,7.133-1.784,9.747-1.007,2.62-2.427,4.599-4.26,5.937-1.835,1.339-4.084,2.034-6.745,2.081-1.776.032-3.598-.203-5.464-.704-1.867-.501-3.778-1.269-5.733-2.304s-3.953-2.336-5.994-3.903c-2.04-1.567-4.123-3.4-6.246-5.498-2.121-2.095-4.617-4.994-7.485-8.693s-6.098-8.185-9.698-13.466c-3.593-5.27-7.547-11.324-11.861-18.154-4.301-6.811-8.956-14.39-13.959-22.728l-129.806-216.311c-4.7-7.831-9.249-15.199-13.65-22.108-4.388-6.888-8.631-13.324-12.732-19.312-4.09-5.973-8.04-11.503-11.852-16.594s-7.473-9.727-11.007-13.942c-3.527-4.205-7.374-8.256-11.54-12.155-4.162-3.894-8.645-7.637-13.45-11.231-4.802-3.591-9.928-7.035-15.379-10.332-5.45-3.296-11.227-6.448-17.334-9.455-6.11-3.006-12.669-5.703-19.68-8.093-7.019-2.392-14.496-4.478-22.439-6.258-7.957-1.783-16.386-3.261-25.295-4.432-8.932-1.175-18.353-2.043-28.27-2.603"/>
      <path d="M1322.803,286.34l-179.982-13.623c3.521,3.841,13.016,6.823,25.921,9.513,12.861,2.68,29.066,5.061,46.1,7.72,16.945,2.645,34.705,5.563,50.876,9.335,16.105,3.757,30.678,8.371,41.397,14.44,10.646,6.027,21.417,15.705,32.073,26.954,10.701,11.296,21.313,24.205,31.544,36.586,10.285,12.446,20.18,24.351,29.341,33.488,9.189,9.165,17.607,15.51,24.87,16.777l-102.141-141.19"/>
    </g>
  </g>
  <g isolation="isolate">
    <g clip-path="url(#clippath-2)">
      <path d="M743.021,1553.755c-4.89.73-9.546,1.278-13.967,1.642-4.428.365-8.621.547-12.578.545-3.964-.002-7.692-.189-11.183-.56-3.498-.373-6.758-.931-9.78-1.676-3.031-.745-5.834-1.636-8.409-2.675-2.581-1.041-4.932-2.229-7.055-3.566-2.127-1.34-4.024-2.828-5.691-4.465s-3.11-3.432-4.318-5.372c-1.211-1.945-2.214-3.997-3.009-6.156-.797-2.164-1.384-4.436-1.76-6.817-.378-2.386-.544-4.88-.497-7.484s.307-5.328.781-8.158c.474-2.835,1.128-5.742,1.964-8.722.838-2.986,1.857-6.045,3.06-9.177,1.205-3.138,2.593-6.349,4.165-9.634,1.575-3.291,3.335-6.656,5.279-10.094,1.99-3.518,4.103-7.013,6.341-10.483,2.242-3.477,4.609-6.929,7.101-10.356s5.117-6.841,7.864-10.222,5.628-6.748,8.63-10.083c3.002-3.335,6.122-6.607,9.358-9.815s6.597-6.359,10.069-9.44c3.476-3.084,7.068-6.103,10.774-9.053,3.709-2.953,7.533-5.838,11.471-8.654,3.94-2.818,7.995-5.526,12.165-8.126,4.171-2.6,8.455-5.089,12.852-7.468s8.906-4.646,13.525-6.801c4.618-2.154,9.345-4.197,14.181-6.126,4.83-1.926,9.712-3.689,14.646-5.287s9.907-3.029,14.933-4.297c5.02-1.266,10.087-2.367,15.198-3.304s10.25-1.705,15.439-2.31c5.072-.592,9.871-.979,14.398-1.161,4.519-.182,8.766-.161,12.742.064,3.968.224,7.667.65,11.095,1.278,3.421.626,6.574,1.454,9.459,2.481,2.877,1.026,5.5,2.202,7.868,3.527,2.363,1.322,4.473,2.792,6.331,4.409,1.854,1.614,3.456,3.375,4.809,5.282,1.349,1.903,2.45,3.952,3.302,6.146.847,2.192,1.488,4.48,1.924,6.865.435,2.379.667,4.854.694,7.424s-.147,5.225-.524,7.98c-.376,2.749-.953,5.593-1.731,8.532-.777,2.934-1.716,5.911-2.817,8.932-1.099,3.015-2.358,6.073-3.779,9.175-1.418,3.096-2.995,6.235-4.733,9.418s-3.628,6.398-5.681,9.662c-2.005,3.188-4.133,6.363-6.383,9.525-2.247,3.157-4.617,6.302-7.109,9.436-2.488,3.128-5.099,6.245-7.832,9.351s-5.58,6.192-8.553,9.273c-2.969,3.075-6.042,6.095-9.221,9.059-3.175,2.961-6.456,5.868-9.843,8.721-3.384,2.85-6.874,5.647-10.471,8.391-3.594,2.742-7.296,5.431-11.106,8.069-3.809,2.637-7.69,5.175-11.646,7.613-3.954,2.438-7.984,4.778-12.088,7.02-4.104,2.242-8.285,4.387-12.542,6.436-4.258,2.049-8.595,4.002-13.01,5.859-4.417,1.857-8.874,3.571-13.371,5.141-4.501,1.571-9.044,3-13.63,4.284-4.591,1.286-9.225,2.429-13.905,3.429-4.686,1.001-9.418,1.858-14.197,2.572M1071.808,1230.702l-23.406,2.328-90.921,144.536-1.211.15c.711-4.092.87-7.917.474-11.472s-1.353-6.863-2.871-9.887c-1.523-3.034-3.611-5.795-6.268-8.281-2.666-2.494-5.905-4.712-9.719-6.653-3.828-1.944-8.028-3.553-12.603-4.826s-9.554-2.213-14.895-2.809c-5.357-.597-11.09-.852-17.201-.761-6.127.091-12.632.529-19.516,1.315-11.903,1.359-23.569,3.368-34.987,6.029-11.451,2.668-22.636,5.988-33.545,9.958-10.926,3.976-21.56,8.6-31.892,13.868-10.334,5.269-20.352,11.175-30.044,17.712-9.679,6.528-18.789,13.383-27.325,20.557-8.518,7.159-16.455,14.629-23.807,22.403-7.329,7.75-14.069,15.794-20.218,24.124s-11.655,16.867-16.594,25.705c-2.256,4.036-4.294,7.975-6.114,11.817s-3.416,7.568-4.8,11.206-2.546,7.163-3.497,10.601c-.949,3.429-1.684,6.762-2.205,9.999-.526,3.229-.802,6.329-.83,9.301-.028,2.965.191,5.801.656,8.511s1.173,5.278,2.126,7.726c.951,2.442,2.144,4.759,3.579,6.949,1.429,2.185,3.135,4.192,5.116,6.023,1.976,1.825,4.226,3.475,6.75,4.948s5.307,2.765,8.368,3.886c3.053,1.118,6.377,2.064,9.97,2.836,3.582.772,7.435,1.337,11.559,1.695s8.498.509,13.151.456c4.643-.053,9.554-.31,14.732-.77,5.168-.459,10.603-1.121,16.304-1.984,13.595-2.058,26.852-4.997,39.792-8.816,12.904-3.808,25.517-8.499,37.856-14.076,12.327-5.572,24.404-12.039,36.247-19.411,11.853-7.378,23.494-15.676,34.938-24.907l1.185-.17-28.045,44.582,22.188-3.342,197.525-311.056"/>
      <path d="M1028.618,1413.64c2.092-2.787,4.307-5.576,6.646-8.369s4.807-5.596,7.396-8.399c2.593-2.806,5.309-5.615,8.151-8.426,2.845-2.814,5.814-5.631,8.909-8.45,3.093-2.82,6.276-5.597,9.546-8.33s6.635-5.426,10.084-8.071,6.991-5.248,10.617-7.803c3.628-2.556,7.343-5.066,11.143-7.528,3.799-2.462,7.637-4.826,11.516-7.09,3.879-2.265,7.796-4.43,11.751-6.494,3.955-2.065,7.947-4.029,11.975-5.892,4.027-1.863,8.09-3.624,12.187-5.284,4.094-1.658,8.163-3.166,12.204-4.523,4.038-1.356,8.049-2.562,12.03-3.617,3.978-1.054,7.926-1.957,11.844-2.709,3.913-.751,7.795-1.351,11.645-1.8,4.03-.47,7.854-.774,11.473-.913s7.023-.111,10.227.082,6.194.548,8.986,1.069,5.37,1.202,7.75,2.048c2.371.845,4.537,1.81,6.498,2.896s3.711,2.288,5.26,3.612c1.547,1.321,2.89,2.762,4.032,4.322,1.139,1.557,2.076,3.232,2.812,5.026.73,1.792,1.282,3.671,1.656,5.635s.57,4.007.59,6.139-.137,4.342-.469,6.642c-.331,2.295-.838,4.676-1.519,7.142-.684,2.461-1.521,4.965-2.513,7.511-.989,2.542-2.132,5.126-3.428,7.754-1.293,2.623-2.739,5.289-4.338,7.997-1.596,2.704-3.343,5.451-5.243,8.241l-209.422,27.583M1206.17,1296.368c-5.176.591-10.361,1.374-15.555,2.349-5.202.977-10.411,2.146-15.624,3.508s-10.443,2.92-15.668,4.668-10.459,3.693-15.687,5.827c-5.234,2.136-10.398,4.405-15.491,6.806-5.094,2.402-10.116,4.936-15.063,7.601-4.947,2.665-9.819,5.461-14.615,8.386-4.794,2.925-9.511,5.978-14.149,9.159-4.637,3.18-9.168,6.437-13.591,9.771-4.419,3.332-8.73,6.739-12.932,10.222-4.197,3.479-8.285,7.033-12.262,10.66s-7.833,7.318-11.583,11.084c-3.747,3.764-7.341,7.543-10.781,11.337-3.434,3.788-6.715,7.59-9.843,11.407-3.122,3.809-6.09,7.632-8.906,11.468s-5.467,7.668-7.971,11.52c-5.131,7.893-9.293,15.307-12.491,22.246-3.183,6.907-5.412,13.343-6.692,19.311-1.274,5.939-1.609,11.414-1.011,16.428.595,4.989,2.114,9.521,4.549,13.599,2.422,4.058,5.785,7.406,10.085,10.051,4.28,2.633,9.488,4.569,15.621,5.814,6.107,1.24,13.132,1.795,21.072,1.669,7.909-.125,16.729-.926,26.456-2.398,8.335-1.262,16.522-2.848,24.566-4.758s15.916-4.136,23.675-6.691c7.747-2.551,15.37-5.426,22.872-8.628,7.496-3.199,14.878-6.727,22.15-10.584,7.27-3.859,14.312-7.989,21.129-12.391,6.822-4.406,13.425-9.089,19.811-14.051,6.396-4.97,12.579-10.224,18.554-15.767,5.988-5.555,11.77-11.403,17.349-17.55l-20.107,2.801c-4.502,4.881-9.215,9.559-14.141,14.035-4.917,4.469-10.049,8.74-15.399,12.816-5.343,4.071-10.906,7.95-16.69,11.638s-11.788,7.184-18.022,10.496c-6.236,3.314-12.507,6.334-18.815,9.06-6.312,2.728-12.666,5.165-19.063,7.31-6.406,2.148-12.859,4.005-19.364,5.573s-13.088,2.85-19.718,3.84c-8.195,1.223-15.583,1.839-22.161,1.843-6.6.004-12.388-.607-17.359-1.837s-9.159-3.092-12.505-5.577c-3.359-2.495-5.888-5.624-7.583-9.391-1.703-3.782-2.654-7.929-2.848-12.444-.195-4.534.374-9.437,1.711-14.713,1.342-5.297,3.459-10.969,6.354-17.017,2.907-6.072,6.599-12.523,11.08-19.355l229.159-30.705,2.902-4.057c.377-.417.726-.808,1.046-1.173s.613-.702.876-1.013.497-.595.702-.852.38-.487.525-.69c2.575-3.599,4.958-7.126,7.149-10.579s4.197-6.85,6.004-10.165,3.429-6.573,4.851-9.749c1.425-3.184,2.655-6.294,3.688-9.332,1.032-3.041,1.841-5.979,2.425-8.811s.945-5.573,1.078-8.202.039-5.164-.284-7.587c-.324-2.428-.878-4.75-1.663-6.965-.79-2.217-1.847-4.278-3.172-6.181s-2.923-3.658-4.789-5.249c-1.87-1.595-4.01-3.03-6.423-4.304-2.418-1.278-5.109-2.394-8.073-3.348-2.974-.957-6.227-1.722-9.761-2.294-3.542-.573-7.365-.952-11.47-1.137s-8.511-.174-13.192.032c-4.69.207-9.664.61-14.923,1.211"/>
      <polyline points="1572.574 1259.056 1551.966 1261.428 1323.824 1459.321 1322.828 1459.468 1367.031 1282.717 1343.624 1285.411 1298.95 1477.791 1322.258 1474.28 1572.574 1259.056"/>
      <path d="M1419.397,1485.09c-5.166,1.401-12.518,7.496-21.29,16.205-8.737,8.674-18.849,19.908-29.61,31.658-10.695,11.679-22.026,23.865-33.328,34.602-11.248,10.687-22.5,19.97-33.154,25.963-10.578,5.949-24.464,10.852-39.691,15.181-15.288,4.346-31.97,8.125-47.994,11.788-16.106,3.682-31.54,7.245-44.145,11.129-12.643,3.896-22.392,8.101-27.047,13.035l175.567-31.083,100.692-128.478"/>
    </g>
  </g>
  <path d="M670.817,236.992l-228.454-17.291.18.344-73.471,201.889c2.39,3.232,6.67-2.273,12.131-12.466,5.496-10.259,12.205-25.299,19.399-41.011,7.255-15.846,15.01-32.392,22.497-45.382,7.552-13.101,14.824-22.57,21.007-24.016,6.18-1.445,13.512,4.596,21.281,14.111,7.826,9.586,16.098,22.703,24.073,35.24,8.033,12.63,15.76,24.666,22.407,31.887,6.689,7.266,12.273,9.646,15.96,2.856l-.14-.268c6.041-.541,6.405-7.476,3.968-17.894-2.423-10.359-7.61-24.135-12.715-38.464-5.067-14.221-10.049-28.975-12.177-41.495-2.112-12.425-1.415-22.66,4.803-28.021,6.139-5.294,19.855-7.763,36.784-8.855,16.808-1.084,36.773-.811,55.65-.601,18.743.208,36.424.354,48.92-.955,12.423-1.302,19.744-4.044,17.899-9.607Z"/>
  <path d="M1120.25,1017.923c-4.519-5.643-16.814-8.657-33.66-10.516-16.922-1.867-38.51-2.577-61.465-3.594-23.114-1.024-47.624-2.36-70.03-5.495-22.529-3.152-42.851-8.11-57.304-16.345-14.353-8.179-28.004-22.473-40.997-39.293-12.921-16.726-25.147-35.894-36.807-54.043-11.581-18.026-22.613-35.062-33.291-47.819-10.635-12.705-20.97-21.227-31.258-22.326l.026.05c-2.227,6.672.546,18.932,5.97,34.643,5.448,15.78,13.594,35.112,22.065,55.784,8.527,20.808,17.386,42.983,24.109,64.147,6.757,21.27,11.331,41.44,11.206,57.983-.124,16.414-4.909,35.057-11.76,54.277-6.803,19.089-15.618,38.678-23.919,57.273-8.233,18.443-15.969,35.925-20.793,51.107-4.205,13.233-6.216,24.78-4.425,33.799l-1.385,2.521c.607-.132,1.227-.326,1.852-.548.159.579.332,1.148.526,1.704l1.375-2.5c6.518-3.128,13.955-10.616,22.2-20.799,9.923-12.257,21.061-28.455,33.158-45.612,12.196-17.297,25.374-35.581,39.195-51.688,13.911-16.213,28.419-30.157,43.074-38.531,14.562-8.321,34.408-14.093,56.255-18.527,21.726-4.41,45.353-7.482,67.764-10.455,22.257-2.953,43.334-5.809,60.313-9.806,15.785-3.715,28.1-8.435,34.644-15.185l3.361-.206Z"/>
  <path d="M1820.965,974.949l-128.901-178.18c-4.222.988-2.052,8.343,3.445,19.288,5.528,11.006,14.435,25.669,23.618,41.168,9.25,15.613,18.79,32.089,25.429,46.513,6.689,14.531,10.43,26.971,7.955,34.308-2.472,7.331-12.041,12.235-24.843,15.908-12.896,3.7-29.082,6.154-44.595,8.572-15.628,2.436-30.563,4.833-40.724,8.425-9.633,3.405-14.95,7.878-12.498,14.453l-.61.037c-2.592,4.822,3.494,7.391,14.154,8.957,10.594,1.556,25.68,2.118,41.221,2.925,15.419.801,31.271,1.842,43.644,4.335,12.275,2.474,21.136,6.38,22.78,12.911,1.624,6.442-3.17,17.751-10.841,31.056-7.608,13.197-18.041,28.345-27.85,42.669-9.73,14.208-18.854,27.615-24.029,37.541-5.141,9.862-6.396,16.312-.467,16.718l131.268-167.491,1.844-.113Z"/>
  <path d="M665.12,1722.475c-12.534.643-29.963,2.627-48.278,4.555-18.451,1.942-37.819,3.83-53.973,4.231-16.277.404-29.283-.702-34.76-4.78-5.474-4.077-5.426-12.6-2.745-23.118,2.702-10.604,8.083-23.245,13.184-35.392,5.144-12.249,10.001-23.986,11.528-32.589,1.445-8.139-.095-13.451-7.172-13.723-2.844-3.427-7.477-.649-13.22,5.459-6.201,6.595-13.67,17.032-21.545,27.631-7.807,10.508-16.006,21.164-23.779,28.412-7.707,7.188-15.004,11.032-21.115,8.073-6.031-2.923-13.091-13.506-20.465-27.419-7.322-13.815-14.951-30.907-22.2-47.05-7.199-16.032-14.026-31.138-19.818-41.198-5.759-10.002-10.503-15.031-13.582-11.024l76.494,198.784-.986,1.795,1.569-.278.477,1.24.807-1.467,218.59-38.7c1.106-3.393-6.547-4.079-19.01-3.44Z"/>
</svg>