<?xml version="1.0" encoding="UTF-8"?>
<svg id="LOGOS" xmlns="http://www.w3.org/2000/svg" version="1.1" xmlns:xlink="http://www.w3.org/1999/xlink" viewBox="0 0 712.64 712.64">
  <!-- Generator: Adobe Illustrator 30.0.0, SVG Export Plug-In . SVG Version: 2.1.1 Build 123)  -->
  <defs>
    <clipPath id="clippath">
      <polygon points="157.678 647.944 44.58 354.039 149.46 65.816 309.451 371.817 157.678 647.944" fill="none"/>
    </clipPath>
    <clipPath id="clippath-1">
      <polygon points="309.451 371.817 149.46 65.816 481.199 90.917 668.546 349.886 309.451 371.817" fill="none"/>
    </clipPath>
    <clipPath id="clippath-2">
      <polygon points="668.546 349.886 479.62 590.946 157.678 647.944 309.451 371.817 668.546 349.886" fill="none"/>
    </clipPath>
  </defs>
  <g isolation="isolate">
    <g clip-path="url(#clippath)">
      <path d="M65.659,296.261l-21.052,57.848,23.291,60.525c.462-1.794-.185-5.37-1.413-9.999s-3.025-10.261-4.877-16.224-3.739-12.183-5.179-18.066-2.423-11.379-2.463-15.903c-.04-4.496.838-9.669,2.138-15.083,1.307-5.441,3.043-11.14,4.702-16.629,1.669-5.523,3.259-10.829,4.245-15.415s1.369-8.463.609-11.053" fill="#424242"/>
      <path d="M186.526,435.79c-.579,1.19-1.104,2.426-1.575,3.709s-.887,2.609-1.25,3.984-.672,2.794-.929,4.263-.459,2.982-.61,4.545c-.151,1.561-.252,3.132-.303,4.71s-.053,3.166-.004,4.763.146,3.203.293,4.82.344,3.244.591,4.881c.247,1.641.541,3.255.88,4.845s.726,3.155,1.16,4.696.914,3.059,1.442,4.552,1.104,2.966,1.728,4.414,1.266,2.804,1.923,4.063,1.335,2.425,2.028,3.493,1.405,2.044,2.134,2.921,1.477,1.661,2.241,2.347c.251.225.502.439.754.641s.503.392.755.571.504.345.756.5.505.298.757.428c.007.004.013.008.02.011s.014.007.02.01.014.007.02.01.013.007.02.011l-2.008,3.848,4.461,10.344,35.236-66.562-4.876-10.507-13.344,25.569c-.001-.014-.002-.029-.004-.044s-.002-.03-.003-.045-.002-.03-.003-.045-.002-.03-.004-.044c-.04-.556-.086-1.112-.138-1.67s-.11-1.116-.174-1.675-.134-1.12-.209-1.681-.157-1.124-.244-1.688c-.079-.505-.162-1.007-.25-1.507s-.18-.997-.276-1.491-.197-.986-.302-1.475-.214-.975-.328-1.459l-4.579,8.881c.108.984.188,1.963.241,2.937s.078,1.944.076,2.908-.032,1.922-.089,2.875-.142,1.899-.254,2.839c-.099.829-.219,1.638-.362,2.427s-.307,1.559-.494,2.309-.395,1.48-.625,2.191-.482,1.401-.756,2.073c-.043.104-.086.208-.129.312s-.088.206-.133.309-.09.205-.136.306-.092.203-.139.304l-1.106,2.12c-.051.088-.103.175-.155.26s-.104.17-.156.254-.105.166-.157.247-.105.161-.158.239c-.339.505-.686.963-1.04,1.375s-.715.776-1.084,1.094-.744.59-1.127.815-.773.404-1.17.537c-.516.174-1.032.272-1.547.296s-1.029-.026-1.543-.151-1.026-.322-1.539-.594-1.024-.616-1.535-1.035c-.511-.418-1.01-.903-1.496-1.456s-.96-1.172-1.423-1.859-.912-1.44-1.349-2.26-.863-1.706-1.277-2.66c-.417-.961-.801-1.939-1.151-2.934s-.667-2.005-.95-3.033-.534-2.072-.751-3.134-.402-2.141-.553-3.239c-.152-1.099-.27-2.191-.354-3.277s-.133-2.165-.149-3.238.003-2.141.056-3.203.14-2.12.261-3.172c.12-1.053.275-2.074.465-3.065s.414-1.952.674-2.882.554-1.831.883-2.7.694-1.71,1.094-2.518c.404-.818.821-1.56,1.249-2.224s.871-1.254,1.326-1.766.923-.948,1.404-1.306.975-.64,1.483-.844c.443-.178.886-.3,1.331-.366s.892-.076,1.339-.03.897.15,1.347.31.902.377,1.355.652l-.02-.045,4.461-8.928c-.22-.256-.442-.503-.665-.741s-.447-.468-.673-.688-.452-.432-.681-.634-.457-.396-.688-.581c-.783-.623-1.563-1.134-2.34-1.535s-1.548-.688-2.317-.866-1.533-.245-2.294-.202-1.517.195-2.271.457c-.753.261-1.484.64-2.195,1.138s-1.398,1.112-2.065,1.846-1.313,1.582-1.938,2.549-1.229,2.048-1.813,3.248" fill="#424242"/>
      <path d="M206.247,440.593c-.138.274-.263.561-.377.864s-.215.618-.305.949-.168.675-.234,1.034-.12.732-.163,1.12c-.042.388-.073.778-.091,1.17s-.026.786-.021,1.181.021.793.049,1.193.068.801.12,1.205c.051.404.114.797.189,1.181s.161.757.259,1.12.208.716.329,1.059.254.675.398.998.295.622.451.898.318.528.485.756.34.433.519.615.364.339.554.473c.19.134.38.243.569.326s.378.142.567.175.377.041.565.023.375-.061.562-.13.368-.163.544-.283.345-.265.508-.435.321-.367.473-.588.298-.469.437-.742.268-.561.385-.863.221-.618.314-.948.174-.675.243-1.033.127-.731.172-1.118c.046-.387.079-.776.099-1.167s.028-.785.024-1.18-.022-.793-.051-1.193-.071-.802-.126-1.205c-.055-.404-.121-.799-.198-1.183s-.167-.759-.267-1.123-.213-.718-.337-1.062-.259-.678-.406-1.001-.299-.623-.456-.899-.321-.528-.489-.757-.342-.434-.521-.615-.363-.339-.552-.473c-.189-.135-.379-.244-.568-.328s-.378-.142-.567-.175-.377-.04-.566-.023-.377.061-.565.129c-.188.069-.37.164-.545.284s-.344.266-.507.438-.319.369-.47.592-.294.471-.432.746" fill="#424242"/>
      <path d="M117.799,244.536c-.108.279-.206.569-.295.868s-.168.608-.238.927-.131.648-.182.986-.094.687-.126,1.045c-.033.359-.056.717-.069,1.074s-.017.713-.011,1.067.022.709.047,1.062.061.705.106,1.057c.045.352.099.692.162,1.02s.135.646.215.952.171.6.269.883.206.555.323.815.238.5.363.716.255.411.388.583.271.322.413.449.288.233.438.316c.15.083.301.143.451.181s.3.051.45.042.3-.041.45-.096.3-.134.449-.235c.15-.101.294-.224.433-.37s.274-.313.403-.504.254-.403.373-.637.234-.492.343-.771.209-.57.299-.871.171-.613.241-.935.132-.655.183-.999.093-.698.125-1.063.055-.729.068-1.093.017-.727.011-1.089-.022-.724-.047-1.084-.06-.72-.104-1.079c-.044-.359-.098-.705-.16-1.04s-.135-.657-.216-.967-.172-.608-.272-.894-.209-.559-.328-.82-.241-.498-.368-.712-.258-.405-.394-.573-.275-.313-.42-.435-.293-.221-.445-.297c-.153-.076-.305-.129-.456-.159s-.302-.036-.452-.02-.299.056-.448.118-.297.147-.444.255c-.147.108-.289.237-.427.388s-.27.323-.397.517-.25.409-.368.646-.23.495-.338.776" fill="#424242"/>
      <polyline points="114.651 255.915 102.255 288.057 105.888 296.48 118.42 264.36 114.651 255.915" fill="#424242"/>
      <path d="M184.399,392.198c-.129.275-.248.563-.355.863s-.203.614-.288.939-.159.664-.222,1.015-.115.715-.156,1.091c-.041.378-.07.756-.088,1.136s-.024.76-.019,1.142.022.765.05,1.15.068.771.12,1.158c.052.387.114.765.187,1.132s.157.724.251,1.071.199.683.315,1.01.242.643.38.949.28.591.428.852.3.5.458.715.321.408.489.578.341.317.52.441c.178.124.357.224.535.298s.357.125.535.15.357.026.535.001.357-.074.536-.148c.178-.074.351-.172.518-.296s.328-.273.483-.446.304-.373.448-.597.281-.473.412-.748.252-.564.361-.866.206-.618.292-.948.161-.673.224-1.03.115-.727.155-1.112c.04-.384.069-.77.087-1.157s.024-.776.019-1.166-.022-.782-.05-1.175-.067-.787-.118-1.182c-.051-.395-.112-.78-.185-1.154s-.157-.736-.252-1.088-.201-.692-.319-1.022-.246-.648-.385-.956-.284-.59-.434-.849-.305-.495-.466-.706-.326-.4-.497-.564-.347-.305-.528-.421c-.181-.117-.362-.209-.542-.275s-.359-.109-.537-.126-.356-.009-.533.023-.354.089-.53.171c-.176.082-.345.188-.509.319s-.322.285-.475.463-.299.381-.441.609-.276.478-.406.754" fill="#424242"/>
      <polyline points="180.596 403.672 165.723 435.202 169.982 445.075 185.029 413.604 180.596 403.672" fill="#424242"/>
      <polyline points="118.697 197.54 92.887 266.479 96.37 274.555 122.457 205.643 118.697 197.54" fill="#424242"/>
      <path d="M138.339,328.847c-.319.683-.646,1.31-.982,1.878s-.678,1.08-1.029,1.534-.709.851-1.076,1.191-.74.623-1.123.85c-.43.256-.86.443-1.29.561s-.86.167-1.291.147-.861-.108-1.291-.264-.861-.381-1.291-.673c-.43-.292-.85-.65-1.261-1.072s-.811-.909-1.201-1.461-.771-1.168-1.142-1.849-.732-1.425-1.083-2.235c-.354-.816-.681-1.655-.979-2.516s-.568-1.742-.811-2.646-.457-1.83-.644-2.779-.347-1.919-.479-2.912c-.133-.995-.236-1.99-.312-2.985s-.122-1.99-.14-2.986-.008-1.992.031-2.989.106-1.995.202-2.995c.095-.999.22-1.978.374-2.935s.339-1.895.554-2.812.459-1.814.734-2.689.58-1.733.915-2.568c.332-.828.676-1.589,1.031-2.283s.723-1.321,1.101-1.88.769-1.051,1.172-1.475.817-.779,1.242-1.066c.426-.288.853-.507,1.281-.657s.859-.232,1.29-.243.865.046,1.299.173.871.325,1.309.594c.438.266.867.601,1.287,1.004s.833.877,1.236,1.418.799,1.153,1.185,1.834.764,1.431,1.133,2.25c.366.813.703,1.652,1.013,2.517s.591,1.758.843,2.677.477,1.864.672,2.834.362,1.968.5,2.99c.138,1.022.246,2.046.324,3.071s.125,2.051.143,3.079.004,2.055-.04,3.083-.118,2.056-.222,3.085c-.093.915-.21,1.81-.351,2.686s-.306,1.731-.495,2.566-.402,1.65-.64,2.445-.498,1.569-.783,2.323l-.916,2.18M119.76,284.674c-.485,1.223-.923,2.479-1.315,3.766s-.738,2.604-1.038,3.955-.554,2.732-.763,4.147-.372,2.862-.49,4.342c-.119,1.48-.195,2.959-.231,4.438s-.029,2.956.019,4.434.138,2.956.269,4.434.304,2.958.518,4.438c.215,1.483.469,2.933.761,4.35s.624,2.804.995,4.157.782,2.678,1.232,3.969.941,2.555,1.471,3.785,1.075,2.372,1.633,3.42,1.131,2.005,1.717,2.868,1.188,1.636,1.803,2.314,1.246,1.265,1.89,1.757c.218.166.435.321.653.465s.435.276.653.397.435.23.653.327.435.183.653.256l-10.125,24.1,3.732,8.841,28.32-66.594-4.041-8.916-1.764,4.198c-.036-.522-.077-1.044-.123-1.566s-.098-1.044-.155-1.566-.119-1.043-.186-1.565-.14-1.043-.217-1.564c-.23-1.543-.502-3.049-.817-4.518s-.67-2.9-1.068-4.294-.836-2.747-1.317-4.064-1.001-2.593-1.564-3.832-1.136-2.374-1.724-3.411-1.186-1.97-1.798-2.806-1.234-1.57-1.87-2.206-1.282-1.172-1.942-1.61c-.658-.435-1.314-.767-1.966-.996s-1.301-.353-1.947-.375-1.287.058-1.926.24-1.273.466-1.906.852c-.631.384-1.244.874-1.839,1.469s-1.168,1.294-1.725,2.098-1.093,1.71-1.612,2.721-1.019,2.124-1.501,3.341" fill="#424242"/>
      <path d="M159.589,328.101l-3.511,8.088-8.344,19.224c-.808,1.861-1.509,3.69-2.106,5.49s-1.086,3.563-1.473,5.302-.669,3.446-.849,5.13-.256,3.34-.23,4.973l.003.074c.028,1.589.153,3.218.377,4.887s.544,3.38.963,5.132.937,3.55,1.554,5.39,1.334,3.73,2.151,5.664c.02.049.041.097.061.145s.041.096.061.144.041.095.061.143.041.095.061.142c.026.061.052.121.078.181s.052.12.078.18.052.119.078.178.052.118.078.176c.83,1.88,1.645,3.54,2.444,4.98s1.588,2.665,2.359,3.665,1.53,1.781,2.271,2.336,1.471.888,2.182.994l.033.009c.739.104,1.491-.032,2.256-.408s1.547-.995,2.34-1.856,1.604-1.969,2.427-3.32,1.663-2.955,2.516-4.803l8.813-19.097,3.71-8.038-4.381-9.664-.512,1.123-4.553,9.996-6.496,14.262c-.627,1.377-1.236,2.589-1.826,3.638s-1.16,1.931-1.712,2.653-1.085,1.279-1.6,1.677-1.011.634-1.489.71c-.113.017-.226.026-.34.026s-.227-.009-.341-.026-.228-.044-.342-.079-.229-.079-.344-.132c-.399-.355-.79-.762-1.173-1.221s-.757-.968-1.122-1.53-.723-1.174-1.072-1.837-.689-1.378-1.022-2.144c-.342-.789-.66-1.594-.954-2.415s-.562-1.659-.806-2.513-.464-1.724-.66-2.611-.367-1.791-.514-2.711c-.017-.242-.032-.484-.042-.724s-.018-.481-.023-.72-.005-.478-.003-.716.008-.476.017-.713c.042-1.066.153-2.17.335-3.311s.434-2.322.756-3.541.716-2.48,1.18-3.779,1.001-2.643,1.608-4.025l6.273-14.271,4.43-10.077.496-1.127-4.215-9.299" fill="#424242"/>
    </g>
  </g>
  <g isolation="isolate">
    <g clip-path="url(#clippath-1)">
      <path d="M395.98,154.626c-2.356.567-4.9,1.081-7.569,1.533-2.678.453-5.483.844-8.349,1.164s-5.816.569-8.752.737-5.888.255-8.759.251c0,0-.226.013-.654.03s-1.057.036-1.864.049-1.791.019-2.929.008-2.43-.039-3.85-.095c-.455-.018-.923-.038-1.404-.062s-.974-.051-1.479-.081-1.021-.064-1.549-.102-1.066-.079-1.614-.125l6.618,10.793,24.165.825,84.719,134.724-17.887,4.734-.78,6.515,78.815-2.933-5.963-11.494-24.965,2.244-41.346-63.723c-3.608-5.603-6.808-10.813-9.606-15.636-2.781-4.794-5.166-9.207-7.159-13.245-1.982-4.016-3.578-7.663-4.79-10.945s-2.034-6.173-2.486-8.723c-.449-2.538-.742-4.748-.881-6.633s-.123-3.435.046-4.672.488-2.152.961-2.755,1.095-.89,1.871-.865c.493.016.978.111,1.454.285s.944.427,1.403.76.911.745,1.354,1.236.879,1.063,1.307,1.715l4.258,7.325c1.617,2.463,3.288,4.629,5.013,6.497s3.507,3.439,5.337,4.704,3.709,2.224,5.633,2.876,3.89.997,5.898,1.035c1.096.021,2.068-.066,2.918-.26s1.575-.495,2.179-.902,1.084-.921,1.443-1.54.595-1.343.71-2.173c.115-.828.1-1.723-.043-2.684s-.415-1.985-.815-3.077-.927-2.246-1.581-3.467-1.434-2.504-2.342-3.855c-.981-1.459-2.028-2.865-3.141-4.218s-2.29-2.649-3.535-3.896-2.555-2.438-3.933-3.581-2.822-2.232-4.335-3.273c-1.512-1.039-3.006-1.954-4.484-2.746s-2.938-1.46-4.383-2.005c-1.446-.545-2.876-.968-4.292-1.267s-2.82-.476-4.209-.529c-3.18-.121-5.744.42-7.69,1.627s-3.288,3.1-3.998,5.667c-.714,2.582-.798,5.855-.246,9.829.556,4.002,1.757,8.719,3.613,14.164l1.699,3.467-27.754-43.235" fill="#424242"/>
      <path d="M454.016,100.799l-2.441-.17c.54,3.843.94,7.197,1.212,10.199.273,3.019.415,5.677.438,8.117s-.076,4.683-.284,6.84-.529,4.258-.947,6.426l35.78,52.068-21.213-.606,5.544,8.215,21.256.521,46.308,67.384,11.426,16.549c1.869,2.72,3.678,5.306,5.424,7.755s3.44,4.775,5.066,6.956,3.194,4.231,4.694,6.135,2.939,3.674,4.31,5.296c1.373,1.626,2.808,3.185,4.305,4.678s3.06,2.922,4.683,4.281,3.309,2.652,5.055,3.875,3.553,2.378,5.419,3.462c1.679.976,3.566,1.842,5.557,2.586s4.085,1.367,6.183,1.858,4.192.848,6.192,1.065,3.894.29,5.594.213c.188-.009.374-.019.557-.031s.364-.026.541-.042.353-.034.525-.054.342-.042.508-.065c1.173-.166,2.479-.454,3.792-.83s2.63-.838,3.835-1.355,2.29-1.087,3.144-1.679,1.471-1.204,1.736-1.807l-2.216-3.115c-.144.054-.333.113-.563.173s-.503.121-.814.177-.662.108-1.048.151-.809.076-1.265.095c-1.231.051-2.704-.004-4.362-.263s-3.504-.724-5.474-1.492-4.066-1.841-6.225-3.315-4.375-3.346-6.59-5.713c-1.172-1.253-2.506-2.761-3.995-4.529-1.486-1.765-3.126-3.786-4.911-6.067s-3.705-4.808-5.765-7.599-4.241-5.82-6.553-9.114l-13.061-18.59-46.602-66.389,23.702.58-5.89-7.94-23.448-.669-59.119-84.221" fill="#424242"/>
      <path d="M331.854,280.232c-1.378.026-2.825-.141-4.343-.5s-3.105-.912-4.761-1.656-3.379-1.682-5.169-2.811-3.645-2.449-5.565-3.96c-1.919-1.509-3.787-3.174-5.604-4.992-1.815-1.816-3.577-3.785-5.287-5.905-1.706-2.116-3.359-4.382-4.958-6.795s-3.134-4.961-4.619-7.658c-2.03-3.689-3.71-7.145-5.042-10.371s-2.309-6.196-2.949-8.953-.935-5.268-.894-7.566.415-4.357,1.124-6.206c.706-1.841,1.984-3.47,3.83-4.887s4.24-2.613,7.2-3.605,6.446-1.768,10.493-2.343,8.596-.939,13.699-1.103l14.209,24.452c1.559,2.683,2.982,5.23,4.268,7.64,1.29,2.417,2.441,4.695,3.454,6.834s1.891,4.148,2.626,6.009,1.333,3.589,1.786,5.168c.454,1.583.793,3.168,1.018,4.756s.336,3.184.33,4.78-.127,3.203-.365,4.81-.594,3.226-1.068,4.844c-.474,1.625-1.108,3.054-1.901,4.286s-1.75,2.273-2.866,3.11-2.397,1.478-3.837,1.916-3.047.674-4.811.707M254.882,116.046c-3.973-.224-7.903-.395-11.623-.418s-7.253.101-10.389.467c-3.148.367-5.909.978-8.11,1.926s-3.854,2.246-4.759,3.976c-.536,1.026-.626,2.39-.385,3.867s.815,3.071,1.603,4.542,1.794,2.827,2.895,3.826c1.101,1,2.296,1.643,3.465,1.698.018,0,.035.002.052.002s.035,0,.052.001.035,0,.052,0,.035,0,.052,0c2.874-.04,4.768-.82,6.286-1.949s2.651-2.598,4.012-4.032,2.934-2.818,5.325-3.789c2.381-.967,5.568-1.518,10.146-1.278,1.446.076,2.916.274,4.376.568s2.91.682,4.318,1.14,2.772.984,4.061,1.553,2.502,1.18,3.607,1.808c.811.461,1.588.913,2.345,1.373s1.492.93,2.22,1.428,1.448,1.024,2.172,1.597,1.455,1.195,2.202,1.882c.575.53,1.548,1.7,2.842,3.429,1.296,1.733,2.917,4.029,4.785,6.808s4,6.067,6.301,9.756,4.801,7.828,7.394,12.29l12.898,22.196c-13.763.557-25.297,2.239-34.547,5.071-9.378,2.871-16.403,6.92-21.023,12.171-4.681,5.32-6.888,11.87-6.573,19.669.319,7.898,3.226,17.072,8.766,27.539,1.796,3.393,3.772,6.665,5.927,9.812,2.162,3.157,4.504,6.186,7.025,9.086s5.232,5.681,8.113,8.32,5.949,5.15,9.185,7.518c3.238,2.371,6.48,4.437,9.724,6.197s6.487,3.211,9.726,4.354,6.465,1.974,9.685,2.497,6.415.735,9.603.641c4.791-.142,8.934-1.13,12.429-2.956,3.474-1.815,6.301-4.456,8.486-7.91,2.168-3.428,3.7-7.653,4.602-12.659.893-4.961,1.166-10.683.827-17.147,4.51,6.407,8.983,12.039,13.41,16.88s8.831,8.908,13.152,12.135c4.326,3.231,8.574,5.63,12.736,7.191s8.216,2.28,12.172,2.163c4.081-.121,7.281-.977,9.602-2.562,2.31-1.578,3.749-3.878,4.322-6.892.57-2.997.283-6.699-.853-11.096-1.129-4.369-3.094-9.422-5.887-15.149l-3.95.048c.238,1.93.322,3.625.253,5.084s-.293,2.687-.672,3.672-.915,1.733-1.605,2.237-1.539.766-2.541.784c-.669.012-1.356-.076-2.059-.265s-1.424-.478-2.16-.868-1.49-.88-2.259-1.471-1.553-1.281-2.353-2.071c-.799-.789-1.74-1.882-2.82-3.276s-2.298-3.084-3.654-5.074c-1.354-1.986-2.844-4.267-4.469-6.84-1.621-2.566-3.374-5.422-5.26-8.564l-48.909-81.503c-1.771-2.951-3.485-5.727-5.143-8.33-1.653-2.595-3.252-5.02-4.797-7.277s-3.029-4.334-4.466-6.253-2.816-3.665-4.147-5.253c-1.329-1.585-2.778-3.111-4.348-4.58s-3.257-2.877-5.068-4.232-3.741-2.651-5.795-3.893c-2.053-1.242-4.23-2.429-6.531-3.563-2.302-1.133-4.773-2.149-7.415-3.049-2.645-.901-5.462-1.687-8.455-2.358s-6.174-1.229-9.531-1.67-6.915-.77-10.652-.981" fill="#424242"/>
      <path d="M481.164,90.868l-67.814-5.133c1.327,1.447,4.904,2.571,9.767,3.584,4.846,1.01,10.952,1.907,17.37,2.909,6.385.996,13.076,2.096,19.169,3.517,6.068,1.416,11.559,3.154,15.598,5.441,4.011,2.271,8.07,5.917,12.085,10.156,4.032,4.256,8.03,9.12,11.885,13.785,3.875,4.689,7.603,9.175,11.055,12.618,3.462,3.453,6.634,5.844,9.371,6.321l-38.485-53.198" fill="#424242"/>
    </g>
  </g>
  <g isolation="isolate">
    <g clip-path="url(#clippath-2)">
      <path d="M262.712,568.409c-1.843.275-3.597.481-5.262.619s-3.248.206-4.739.205-2.898-.071-4.214-.211-2.546-.351-3.685-.631c-1.142-.281-2.198-.617-3.168-1.008s-1.858-.84-2.658-1.344-1.516-1.065-2.144-1.682-1.172-1.293-1.627-2.024c-.456-.733-.834-1.506-1.134-2.32s-.521-1.672-.663-2.568-.205-1.839-.187-2.82.116-2.008.294-3.074c.179-1.068.425-2.164.74-3.286s.7-2.278,1.153-3.458.977-2.392,1.569-3.63,1.256-2.508,1.989-3.803c.75-1.326,1.546-2.642,2.389-3.95s1.737-2.611,2.675-3.902,1.928-2.577,2.963-3.852,2.12-2.543,3.252-3.799c1.131-1.257,2.307-2.489,3.526-3.698s2.486-2.396,3.794-3.557c1.31-1.162,2.663-2.299,4.06-3.411s2.838-2.2,4.322-3.261c1.485-1.062,3.012-2.082,4.584-3.062,1.572-.98,3.186-1.918,4.843-2.814s3.355-1.75,5.096-2.562,3.521-1.581,5.343-2.308c1.82-.726,3.659-1.39,5.518-1.992s3.733-1.141,5.627-1.619c1.892-.477,3.8-.892,5.726-1.245s3.862-.642,5.817-.871c1.911-.223,3.719-.369,5.425-.438s3.303-.061,4.801.024,2.889.245,4.18.482,2.477.548,3.564.935c1.084.387,2.072.83,2.965,1.329s1.685,1.052,2.385,1.661,1.302,1.272,1.812,1.99.923,1.489,1.244,2.316c.319.826.561,1.688.725,2.587s.251,1.829.262,2.797-.055,1.969-.197,3.007-.359,2.107-.652,3.215c-.293,1.105-.647,2.227-1.061,3.365s-.889,2.288-1.424,3.457-1.129,2.349-1.783,3.549-1.367,2.411-2.141,3.641c-.755,1.201-1.557,2.397-2.405,3.589s-1.739,2.375-2.678,3.555-1.921,2.353-2.951,3.523-2.103,2.333-3.223,3.494c-1.119,1.159-2.277,2.296-3.474,3.413s-2.432,2.211-3.709,3.286-2.59,2.128-3.945,3.162-2.749,2.046-4.185,3.04c-1.435.994-2.898,1.95-4.388,2.869s-3.008,1.8-4.555,2.645-3.122,1.653-4.726,2.425-3.238,1.508-4.902,2.208c-1.664.7-3.343,1.345-5.038,1.937s-3.408,1.13-5.135,1.614-3.476.915-5.239,1.292-3.549.7-5.349.969M386.594,446.688l-8.819.877-34.257,54.459-.456.056c.268-1.542.328-2.983.179-4.323s-.51-2.586-1.082-3.725-1.361-2.184-2.362-3.12-2.225-1.776-3.662-2.507c-1.442-.733-3.025-1.339-4.749-1.818s-3.6-.834-5.612-1.058-4.179-.321-6.481-.287-4.76.199-7.353.496c-4.485.512-8.88,1.269-13.182,2.272s-8.529,2.256-12.639,3.752c-4.117,1.498-8.124,3.24-12.016,5.225-3.894,1.985-7.668,4.211-11.32,6.674-3.647,2.46-7.08,5.042-10.296,7.746s-6.2,5.512-8.97,8.441c-2.761,2.92-5.301,5.951-7.618,9.089s-4.392,6.355-6.253,9.685c-.85,1.521-1.618,3.005-2.304,4.452s-1.287,2.851-1.809,4.222-.959,2.699-1.318,3.994-.634,2.548-.831,3.768c-.198,1.217-.302,2.385-.313,3.505s.072,2.186.247,3.207.442,1.989.801,2.911.808,1.793,1.348,2.618c.539.823,1.181,1.58,1.928,2.269s1.592,1.309,2.543,1.864,2,1.042,3.153,1.464,2.403.778,3.757,1.069c1.35.291,2.802.504,4.355.638s3.202.192,4.955.172,3.6-.117,5.551-.29,3.995-.422,6.143-.747c5.122-.775,10.117-1.883,14.993-3.322s9.614-3.202,14.263-5.304c4.645-2.099,9.195-4.536,13.657-7.314,4.466-2.78,8.852-5.906,13.164-9.385l.446-.064-10.567,16.798,8.36-1.259,74.424-117.201" fill="#424242"/>
      <path d="M370.32,515.616c.788-1.05,1.623-2.101,2.504-3.153s1.811-2.109,2.787-3.165,2-2.115,3.071-3.175,2.191-2.122,3.357-3.184c1.166-1.063,2.365-2.109,3.597-3.139s2.5-2.044,3.8-3.041,2.634-1.978,4-2.94,2.767-1.909,4.199-2.836c1.431-.928,2.878-1.818,4.339-2.672,1.461-.853,2.937-1.669,4.428-2.447s2.994-1.518,4.512-2.22,3.048-1.366,4.592-1.991c1.543-.625,3.076-1.193,4.598-1.704s3.033-.965,4.533-1.363,2.986-.737,4.463-1.021,2.937-.509,4.388-.678c1.518-.177,2.959-.292,4.323-.344s2.646-.042,3.853.031,2.334.207,3.386.403,2.023.453,2.92.772c.893.318,1.709.682,2.448,1.091s1.398.862,1.982,1.361,1.089,1.041,1.519,1.629.782,1.218,1.06,1.894c.275.675.483,1.383.624,2.123s.215,1.51.222,2.313-.052,1.636-.177,2.502-.316,1.762-.572,2.691c-.258.927-.573,1.871-.947,2.83s-.803,1.932-1.292,2.922-1.032,1.993-1.634,3.013-1.26,2.054-1.975,3.105l-78.907,10.393M437.219,471.43c-1.95.223-3.904.518-5.861.885s-3.923.809-5.887,1.322-3.935,1.1-5.904,1.759-3.941,1.391-5.911,2.196c-1.972.805-3.918,1.66-5.837,2.565s-3.811,1.86-5.675,2.864-3.7,2.058-5.507,3.16-3.584,2.252-5.331,3.451c-1.747,1.198-3.454,2.425-5.121,3.682s-3.289,2.539-4.873,3.852c-1.581,1.311-3.122,2.65-4.62,4.017s-2.951,2.757-4.364,4.176c-1.412,1.418-2.766,2.842-4.062,4.272s-2.53,2.86-3.709,4.298-2.295,2.876-3.356,4.321-2.06,2.889-3.003,4.34c-1.933,2.974-3.501,5.767-4.706,8.382s-2.039,5.027-2.521,7.276-.606,4.301-.381,6.19.796,3.587,1.714,5.124c.913,1.529,2.18,2.79,3.8,3.787s3.575,1.722,5.886,2.191,4.948.676,7.94.629,6.303-.349,9.968-.904c3.14-.475,6.225-1.073,9.256-1.793s5.997-1.558,8.92-2.521c2.919-.961,5.791-2.045,8.618-3.251s5.606-2.535,8.346-3.988c2.739-1.454,5.392-3.01,7.961-4.669s5.058-3.424,7.465-5.294c2.41-1.873,4.74-3.852,6.991-5.941s4.435-4.297,6.537-6.612l-7.576,1.055c-1.696,1.839-3.472,3.602-5.328,5.288s-3.786,3.293-5.802,4.829c-2.013,1.534-4.109,2.995-6.289,4.385s-4.441,2.707-6.79,3.955c-2.35,1.249-4.712,2.386-7.089,3.414s-4.772,1.946-7.183,2.754-4.845,1.509-7.296,2.1-4.931,1.074-7.429,1.447c-3.088.461-5.871.693-8.35.694s-4.667-.229-6.541-.692-3.451-1.165-4.712-2.101-2.219-2.119-2.857-3.538c-.642-1.425-1-2.988-1.073-4.689s.141-3.556.645-5.544,1.303-4.133,2.394-6.412,2.486-4.719,4.175-7.293l86.344-11.569,1.094-1.529c.142-.157.273-.305.394-.442s.231-.265.33-.382.187-.224.264-.321.143-.184.198-.26c.97-1.356,1.868-2.685,2.694-3.986s1.581-2.581,2.262-3.83,1.292-2.476,1.828-3.673,1-2.372,1.39-3.516c.389-1.146.694-2.253.914-3.32s.356-2.1.406-3.09.015-1.946-.107-2.859-.331-1.79-.627-2.624c-.298-.835-.696-1.612-1.195-2.329s-1.101-1.378-1.804-1.978-1.511-1.142-2.42-1.622-1.925-.902-3.042-1.261c-1.12-.361-2.346-.649-3.678-.864s-2.775-.359-4.322-.428-3.207-.066-4.97.012-3.641.23-5.623.456" fill="#424242"/>
      <polyline points="575.274 457.371 567.509 458.265 481.549 532.828 481.174 532.884 497.829 466.287 489.01 467.302 472.177 539.788 480.959 538.465 575.274 457.371" fill="#424242"/>
      <path d="M517.559,542.538c-1.947.528-4.717,2.824-8.022,6.106-3.292,3.268-7.102,7.501-11.156,11.928-4.03,4.401-8.299,8.992-12.558,13.038-4.238,4.027-8.478,7.525-12.492,9.782-3.986,2.242-9.218,4.089-14.955,5.72-5.76,1.637-12.046,3.061-18.083,4.441-6.069,1.387-11.884,2.73-16.633,4.193s-8.437,3.052-10.191,4.911l66.151-11.712,37.939-48.408" fill="#424242"/>
    </g>
  </g>
  <path d="M235.506,72.274l-86.078-6.515.068.13-27.683,76.068c.9,1.218,2.513-.856,4.571-4.697,2.071-3.865,4.599-9.532,7.309-15.452,2.733-5.97,5.655-12.205,8.477-17.099,2.845-4.936,5.585-8.504,7.915-9.049,2.329-.544,5.091,1.732,8.018,5.317,2.949,3.612,6.066,8.554,9.07,13.278,3.027,4.759,5.938,9.294,8.443,12.015,2.52,2.738,4.624,3.635,6.013,1.076l-.053-.101c2.276-.204,2.413-2.817,1.495-6.742-.913-3.903-2.867-9.094-4.791-14.493-1.909-5.358-3.786-10.917-4.588-15.635-.796-4.682-.533-8.538,1.81-10.558,2.313-1.995,7.481-2.925,13.86-3.337,6.333-.409,13.856-.305,20.968-.226,7.062.079,13.724.133,18.432-.36,4.681-.49,7.439-1.524,6.744-3.62Z" fill="#424242"/>
  <path d="M404.846,366.517c-1.703-2.126-6.335-3.262-12.683-3.962-6.376-.704-14.51-.971-23.159-1.354-8.709-.386-17.944-.889-26.386-2.07-8.488-1.187-16.146-3.056-21.591-6.159-5.408-3.082-10.551-8.468-15.447-14.805-4.868-6.302-9.475-13.524-13.868-20.363-4.363-6.792-8.52-13.211-12.543-18.017-4.007-4.787-7.901-7.998-11.778-8.412l.01.019c-.839,2.514.206,7.133,2.25,13.053,2.053,5.946,5.122,13.23,8.314,21.018,3.213,7.84,6.551,16.195,9.084,24.17,2.546,8.014,4.269,15.614,4.222,21.847-.047,6.185-1.85,13.209-4.431,20.451-2.563,7.192-5.884,14.573-9.012,21.58-3.102,6.949-6.017,13.536-7.835,19.256-1.584,4.986-2.342,9.337-1.667,12.735l-.522.95c.229-.05.462-.123.698-.206.06.218.125.433.198.642l.518-.942c2.456-1.178,5.258-4,8.364-7.837,3.739-4.618,7.936-10.721,12.493-17.186,4.595-6.517,9.561-13.406,14.768-19.475,5.242-6.109,10.708-11.363,16.23-14.518,5.487-3.135,12.964-5.31,21.196-6.981,8.186-1.662,17.088-2.819,25.533-3.939,8.386-1.113,16.327-2.189,22.725-3.695,5.948-1.4,10.588-3.178,13.053-5.722l1.266-.078Z" fill="#424242"/>
  <path d="M668.864,350.325l-48.568-67.135c-1.591.372-.773,3.144,1.298,7.267,2.083,4.147,5.439,9.672,8.899,15.512,3.485,5.883,7.08,12.09,9.581,17.525,2.52,5.475,3.93,10.162,2.997,12.927-.932,2.762-4.537,4.61-9.36,5.994-4.859,1.394-10.958,2.319-16.803,3.23-5.888.918-11.516,1.821-15.344,3.175-3.629,1.283-5.633,2.968-4.709,5.446l-.23.014c-.976,1.817,1.316,2.785,5.333,3.375,3.992.586,9.676.798,15.531,1.102,5.81.302,11.782.694,16.444,1.634,4.625.932,7.964,2.404,8.583,4.865.612,2.427-1.195,6.688-4.085,11.701-2.867,4.972-6.797,10.68-10.493,16.077-3.666,5.353-7.104,10.405-9.054,14.145-1.937,3.716-2.41,6.146-.176,6.299l49.46-63.108.695-.043Z" fill="#424242"/>
  <path d="M233.36,631.981c-4.723.242-11.289.99-18.19,1.716-6.952.732-14.25,1.443-20.336,1.594-6.133.152-11.033-.265-13.097-1.801-2.063-1.536-2.044-4.748-1.034-8.711,1.018-3.995,3.045-8.758,4.968-13.335,1.938-4.615,3.768-9.038,4.344-12.279.545-3.067-.036-5.068-2.702-5.171-1.071-1.291-2.817-.245-4.981,2.057-2.336,2.485-5.151,6.417-8.118,10.411-2.942,3.959-6.031,7.974-8.96,10.705-2.904,2.708-5.653,4.157-7.956,3.042-2.273-1.101-4.933-5.089-7.711-10.331-2.759-5.205-5.633-11.645-8.365-17.728-2.712-6.041-5.285-11.732-7.467-15.523-2.17-3.769-3.957-5.663-5.117-4.154l28.822,74.899-.371.676.591-.105.18.467.304-.553,82.361-14.582c.417-1.278-2.467-1.537-7.163-1.296Z" fill="#424242"/>
</svg>