<?xml version="1.0" encoding="UTF-8"?>
<svg id="Capa_2" xmlns="http://www.w3.org/2000/svg" version="1.1" viewBox="0 0 226.772 226.772">
  <!-- Generator: Adobe Illustrator 29.5.0, SVG Export Plug-In . SVG Version: 2.1.0 Build 137)  -->
  <path d="M75.253,86.225c-1.659,2.599-2.777,5.48-3.102,8.55-.336,3.164.812,6.675,3.303,8.747,4.021,3.344,9.774,4.066,14.779,2.964,2.339-.515,4.767-1.702,6.327-3.56,2.077-2.474,2.789-5.83,2.867-9,.131-5.319-2.323-11.154-7.141-13.81-2.616-1.443-5.817-1.903-8.688-.96-3.56,1.168-6.183,3.77-8.199,6.846-1.293,1.973-.459,5.061,1.614,6.157,2.249,1.188,4.777.491,6.157-1.614.225-.344.474-.671.703-1.011-.819,1.216-.036.074.239-.223.237-.257.484-.504.742-.739.123-.112.252-.217.375-.328.581-.522-.942.651-.305.237.253-.165.499-.337.763-.486.126-.071.256-.134.383-.203.623-.337-.435.191-.538.211.567-.11,1.093-.364,1.678-.448l-1.196.161c.548-.065,1.089-.066,1.637-.002l-1.196-.161c.413.059.818.149,1.214.281.086.029.265.13.346.126.003,0-1.13-.532-.668-.277.174.096.356.178.528.277.197.114.382.243.573.367.655.426-.89-.76-.304-.231.356.321.684.653,1.001,1.012.534.604-.661-.941-.204-.265.14.208.282.413.412.628.118.194.229.392.334.594.112.215.495,1.086.144.25-.349-.832-.011-.002.062.208.09.257.171.518.243.781.149.544.256,1.096.336,1.654l-.161-1.196c.163,1.272.15,2.545-.02,3.816l.161-1.196c-.085.573-.194,1.141-.34,1.701-.056.217-.117.433-.183.648-.044.145-.091.29-.139.434-.149.413-.051.19.294-.667-.174.278-.335.579-.504.862.735-1.225.578-.713.239-.37-.119.12-.251.225-.372.342-.26.25,1.136-.767.382-.307-.172.105-.338.215-.514.312-.135.074-.273.14-.41.21-.618.316,1.277-.492.35-.149-.779.288-1.59.469-2.411.588l1.196-.161c-1.377.182-2.765.174-4.143,0l1.196.161c-.768-.105-1.528-.257-2.271-.48-.299-.09-.59-.196-.883-.304-.648-.239,1.23.597.396.158-.126-.066-.254-.127-.379-.195-.229-.126-1.077-.734-.37-.183.743.578-.017-.036-.158-.176-.142-.141-.264-.312-.408-.449.9.857.452.615.21.192-.249-.434-.22-.932.091.31-.107-.426-.254-.827-.323-1.266l.161,1.196c-.091-.707-.079-1.405.006-2.112l-.161,1.196c.154-1.095.501-2.094.87-3.13-.512,1.44-.196.471-.032.13.119-.247.243-.49.373-.731.252-.469.525-.926.812-1.375,1.269-1.988.477-5.052-1.614-6.157-2.228-1.177-4.803-.507-6.157,1.614h0Z" fill="#fff"/>
  <path d="M139.612,79.378c.287.449.56.906.812,1.375.13.241.254.485.373.731.164.341.48,1.31-.032-.13.368,1.035.715,2.035.87,3.13-.054-.399-.107-.798-.161-1.196.085.707.097,1.405.006,2.112l.161-1.196c-.07.441-.213.838-.323,1.266.32-1.253.351-.78.138-.392-.062.112-.127.221-.196.328-.253.367-.134.221.359-.438-.295.281-.595.581-.882.871.917-.923.687-.513.303-.272-.116.073-.235.142-.356.208-.125.069-.253.129-.379.195-.791.416.854-.325.466-.186-.317.114-.63.235-.953.332-.743.224-1.503.375-2.271.48l1.196-.161c-1.378.174-2.766.182-4.143,0l1.196.161c-.821-.119-1.632-.299-2.411-.588-.927-.343.966.466.35.149-.137-.07-.275-.136-.41-.21-.176-.097-.343-.208-.514-.312-.754-.46.642.557.382.307-.121-.117-.253-.221-.372-.342-.372-.376-.38-.783.239.37-.153-.284-.334-.589-.504-.862.346.857.444,1.08.294.667-.048-.144-.095-.289-.139-.434-.065-.215-.127-.431-.183-.648-.145-.561-.255-1.128-.34-1.701l.161,1.196c-.17-1.271-.183-2.544-.02-3.816l-.161,1.196c.076-.528.176-1.05.313-1.565.123-.461.428-.988.487-1.454-.013.108-.529,1.155-.206.513.052-.103.1-.208.153-.311.104-.203.214-.402.33-.598.128-.216.264-.427.407-.633.55-.788-.673.779-.156.198.3-.337.602-.664.942-.962.074-.065.174-.125.237-.2.007-.008-1.005.707-.545.424.193-.119.374-.257.57-.373.172-.102.351-.188.526-.283.652-.355-1.189.409-.325.142.424-.131.843-.242,1.284-.304l-1.196.161c.548-.065,1.089-.064,1.637.002l-1.196-.161c.556.08,1.072.235,1.601.418.478.165-1.123-.528-.538-.219.127.067.257.129.383.199.291.161.563.345.839.528.568.377-.771-.647-.381-.299.123.11.253.211.376.321.258.231.506.475.743.728.15.16.297.325.439.492.116.137.557.698.081.081-.5-.648.003.017.075.12.144.204.282.412.419.621,1.289,1.966,4.042,2.978,6.157,1.614,1.963-1.265,2.994-4.051,1.614-6.157-1.776-2.71-4.022-5.109-7.048-6.387-2.423-1.023-5.23-1.317-7.751-.411-2.768.994-4.886,2.766-6.559,5.165-1.6,2.293-2.306,5.036-2.597,7.776-.313,2.946.215,6.224,1.502,8.896,1.221,2.537,3.655,4.091,6.208,5.036,2.168.802,4.683,1.02,6.98.831,2.561-.211,5.122-.746,7.375-2.04,3.292-1.891,5.267-5.428,5.201-9.217-.058-3.346-1.384-6.636-3.164-9.425-1.265-1.982-4.059-2.967-6.157-1.614-1.983,1.278-2.969,4.034-1.614,6.157h0Z" fill="#fff"/>
  <path d="M67.135,152.783c1.27-5.941,2.151-11.984,3.983-17.792.4-1.268,1.105-2.574,1.396-3.86-.335,1.483-.236.563-.012.078.154-.334.313-.666.478-.996.383-.764.794-1.515,1.238-2.245.38-.625.799-1.22,1.21-1.825.735-1.081-.903,1.046-.048.055.16-.185.312-.376.472-.561.476-.55.97-1.09,1.517-1.57l.26-.219c.488-.391.351-.286-.41.316.374-.13.781-.539,1.125-.749.579-.353,1.181-.649,1.787-.951,1.114-.556-1.366.48-.185.083.322-.108.638-.23.962-.333.542-.172,1.091-.319,1.645-.445.334-.076.672-.131,1.007-.202,1.06-.223-1.576.145.11-.014,1.381-.131,2.775-.132,4.157-.013.443.038,1.617.294-.21-.054.228.043.46.07.689.11.801.14,1.595.321,2.378.542.671.189,1.321.427,1.98.654,1.199.414-1.296-.623-.155-.073.311.15.625.291.933.448.612.312,1.209.652,1.788,1.022.192.123.382.248.57.377.187.129.373.26.556.395-.76-.598-.896-.702-.409-.312.553.481,1.095.964,1.604,1.493.259.269.51.545.754.827l.24.282c.4.494.317.378-.25-.348.166.579.911,1.287,1.235,1.815.381.622.734,1.261,1.06,1.914.163.327.312.66.47.989.257.586.2.445-.173-.424.092.226.181.454.268.683.305.804.577,1.62.821,2.445.459,1.548.819,3.123,1.114,4.71.16.86.291,1.724.425,2.588.208,1.345-.175-1.46-.013-.11.059.495.121.989.176,1.484.191,1.707.343,3.418.491,5.129.27,3.119,2.566,6.154,6,6,3.018-.135,6.29-2.651,6-6-.591-6.815-1.162-13.895-3.781-20.287-1.547-3.776-3.499-7.216-6.352-10.182-2.732-2.84-6.074-4.792-9.699-6.246-6.238-2.502-13.949-2.744-20.211-.187-3.571,1.458-6.768,3.466-9.232,6.488-2.612,3.203-4.461,6.585-6.023,10.399-2.809,6.86-3.769,14.278-5.309,21.481-.655,3.061.906,6.632,4.191,7.381,3.018.687,6.679-.908,7.381-4.191h0Z" fill="#fff"/>
  <path d="M113.513,129.296c.487-.659.976-1.317,1.47-1.97.247-.326.514-.643.746-.98-.003.005-.724.924-.309.403.171-.214.338-.431.508-.645,1.103-1.39,2.242-2.753,3.44-4.063,1.144-1.251,2.34-2.454,3.607-3.58.6-.534,1.292-1,1.865-1.56-.007.007-.951.696-.408.325.167-.114.327-.24.492-.358.386-.275.778-.541,1.176-.799,1.447-.939,2.972-1.702,4.516-2.463.589-.291-.582.238-.564.232.178-.05.356-.142.528-.208.354-.136.71-.264,1.069-.384.777-.261,1.565-.488,2.363-.678.732-.174,1.495-.245,2.222-.428.034-.009-1.336.142-.663.094.187-.013.374-.04.56-.056.435-.038.872-.064,1.309-.079.808-.028,1.617-.016,2.424.04.367.025.743.1,1.11.104.036,0-1.333-.222-.677-.085.241.051.487.083.73.131.727.144,1.446.326,2.153.547.354.111.705.231,1.052.362,1.265.475-.777-.405.108.05.671.345,1.335.687,1.973,1.091.322.204.633.423.946.641.838.582-.869-.728.098.102,1.123.964,2.166,2.02,3.12,3.151.151.179.885,1.113.276.315-.61-.799.104.152.24.342.427.597.834,1.209,1.219,1.834.746,1.211,1.414,2.47,2.012,3.761.168.363.304.749.491,1.101.027.052-.503-1.246-.273-.635.061.162.129.322.193.483.275.704.532,1.414.773,2.13.945,2.806,1.643,5.69,2.183,8.6.164.883.313,1.77.45,2.658.064.415.12.831.183,1.246.102.674-.1-.769-.093-.704.028.238.062.475.092.713.208,1.655.379,3.315.525,4.976.292,3.311.483,6.629.673,9.947.179,3.128,2.631,6.151,6,6,3.097-.139,6.192-2.644,6-6-.763-13.324-1.507-27.606-8.325-39.457-3.833-6.662-9.738-12.31-17.258-14.439-7.851-2.223-16.237-.624-23.324,3.155-8.18,4.361-13.955,11.671-19.363,18.98-.868,1.173-.975,3.281-.605,4.623.383,1.392,1.459,2.9,2.757,3.586,3.135,1.656,6.209.551,8.209-2.153h0Z" fill="#fff"/>
</svg>