<?xml version="1.0" encoding="UTF-8"?>
<svg id="Capa_1" xmlns="http://www.w3.org/2000/svg" version="1.1" viewBox="0 0 172.34 172.34">
  <!-- Generator: Adobe Illustrator 29.2.1, SVG Export Plug-In . SVG Version: 2.1.0 Build 116)  -->
  <defs>
    <style>
      .st0 {
        fill: #dd7676;
      }
    </style>
  </defs>
  <path class="st0" d="M78.01,10.25c58.52-5.18,101.68,52.62,77.91,106.96-25.15,57.5-106.92,60.88-136.87,5.85C-6.75,75.66,23.93,15.04,78.01,10.25ZM79.3,21.23C29.57,25.67,3.68,84.65,33.32,124.93c27.55,37.43,85.4,34.85,108.85-5.32,27.25-46.7-9.41-103.15-62.87-98.38Z"/>
  <path class="st0" d="M61.04,56.21c1.31.04,2.82.84,3.87,1.62l20.74,20.62,21.86-21.26c5.66-3.73,11.15,1.79,7.43,7.43l-21.15,21.29c.14.59.46,1.12.86,1.57,5.21,5.97,15.67,13.11,19.93,19.47,4.49,6.71-.84,11.61-7.36,8l-21.01-20.95c-7.94,7.19-14.77,16.29-23.55,22.29-6.44.97-8.31-4.25-4.8-9.33,2.44-3.53,19.97-19.02,20.23-20.49l-21.16-21.96c-2.54-3.6-.5-8.44,4.11-8.31Z"/>
</svg>