<?xml version="1.0" encoding="UTF-8"?>
<svg id="Capa_1" xmlns="http://www.w3.org/2000/svg" version="1.1" viewBox="0 0 378.038 378.836">
  <!-- Generator: Adobe Illustrator 29.1.0, SVG Export Plug-In . SVG Version: 2.1.0 Build 142)  -->
  <title>ionicons-v5-o</title>
  <path d="M319.228,53.009H58.81c-23.96.025-43.377,19.443-43.403,43.403v186.012c.025,23.96,19.443,43.377,43.403,43.403h260.417c23.96-.025,43.377-19.443,43.403-43.403V96.412c-.025-23.96-19.443-43.378-43.402-43.403ZM310.001,123.08c-.52.62-1.108,1.197-1.763,1.722l-111.608,86.806c-4.477,3.48-10.745,3.48-15.222,0l-111.608-86.806c-.143-.108-.271-.229-.408-.341-2.808-2.314-4.362-5.623-4.509-9.027-.12-2.777.688-5.611,2.494-8.002,4.127-5.466,11.903-6.55,17.369-2.423.092.071.185.142.276.215l103.997,80.885,103.994-80.883c.465-.351.951-.65,1.445-.926,5.321-2.972,12.149-1.654,15.925,3.348,3.54,4.688,3.253,11.094-.384,15.433Z"/>
</svg>