<?xml version="1.0" encoding="UTF-8"?>
<svg id="Capa_1" xmlns="http://www.w3.org/2000/svg" version="1.1" viewBox="0 0 172.34 172.34">
  <!-- Generator: Adobe Illustrator 29.2.1, SVG Export Plug-In . SVG Version: 2.1.0 Build 116)  -->
  <path d="M123.12,57.87c6.39,3.73,12.49,8.59,17.86,13.68,2.05,1.94,10.7,10.8,11.14,12.77,1.01,4.45-2.44,7.4-5.16,10.5-10.87,12.41-31.53,27.01-47.69,30.66-14.1,3.19-27.23.96-40.21-5.01l-12.71,12.5-6.96-6.96L126.03,39.37l6.96,6.96c0,.66-8.27,7.69-9.32,9.26-.48.73-.94,1.36-.55,2.28ZM67.26,113.06c24.15,10.19,47.78-2.19,65.43-18.57,1.49-1.38,7.96-7.29,7.55-8.85-.7-2.68-23.36-21.33-25.4-20.98l-10.95,10.99c8.03,15.59-3.2,32.87-20.95,30.71-1.95-.24-6.45-2.43-7.1-2.29-1.03.22-6.69,5.84-7.58,7-.51.67-1.28.84-.99,1.99ZM96.47,83.85c-1.15-.3-1.33.48-1.99.99-1.96,1.51-4.86,4.72-6.67,6.63-.5.54-4.45,4.57-3.95,4.99,7.63.94,13.55-4.93,12.61-12.61Z"/>
  <path d="M33.11,70.29c18.3-16.72,44.01-31.6,69.32-21.97-1.94,1.31-5.95,6.96-7.76,7.5-2.79.83-5.75-.58-8.5-.59-14.52-.05-30.18,9.11-41.15,18.01-1.99,1.62-12.99,11.4-12.99,12.93,4.38,6.24,11.01,10.76,16.61,15.94l-7.05,6.93c-.67.12-9.33-7.41-10.55-8.57-1.99-1.89-10.37-10.55-10.8-12.44-.23-1.02-.27-2.09-.11-3.13.5-3.37,10.09-11.97,12.98-14.6Z"/>
  <path d="M84.52,65.92l-18.59,18.59c.72-9.89,8.65-18.02,18.59-18.59Z"/>
</svg>