<?xml version="1.0" encoding="UTF-8"?>
<svg id="Capa_1" xmlns="http://www.w3.org/2000/svg" version="1.1" viewBox="0 0 378.038 378.836">
  <!-- Generator: Adobe Illustrator 29.1.0, SVG Export Plug-In . SVG Version: 2.1.0 Build 142)  -->
  <title>ionicons-v5-o</title>
  <path d="M90.386,189.43c0-48.99.019-97.981-.017-146.971-.007-8.975,2.925-16.509,10.191-22.056,4.953-3.781,10.631-5.198,16.811-5.191,38.013.04,76.026.02,114.039.02,9.889,0,19.778-.02,29.666.005,15.614.04,26.563,10.884,26.568,26.54.032,98.434.032,196.868,0,295.303-.005,15.76-10.978,26.532-26.84,26.536-47.811.012-95.622.011-143.433,0-16.171-.003-26.971-10.763-26.978-26.944-.022-49.081-.008-98.162-.008-147.242ZM268.639,170.674c0-36.642-.017-73.285.044-109.927.003-2.05-.407-2.707-2.615-2.704-51.335.07-102.671.067-154.006.009-2.066-.002-2.695.433-2.693,2.624.064,73.194.068,146.388-.011,219.581-.003,2.514.742,2.925,3.04,2.922,51.063-.066,102.127-.07,153.19.009,2.518.004,3.112-.665,3.107-3.132-.081-36.461-.056-72.922-.056-109.382ZM188.999,42.908c11.431,0,22.861.01,34.292-.006,3.633-.005,5.349-2.009,5.174-6.305-.193-4.727-1.893-5.986-5.23-5.971-22.77.107-45.541.053-68.311.06-3.818.001-5.352,1.778-5.336,6.1.016,4.298,1.599,6.114,5.392,6.117,11.34.01,22.68.004,34.02.004ZM189.064,306.306c-8.89-.017-16.124,7.099-16.237,15.972-.112,8.809,7.384,16.275,16.3,16.236,8.789-.039,16.129-7.41,16.095-16.162-.035-8.848-7.266-16.028-16.159-16.046Z"/>
</svg>