<?xml version="1.0" encoding="utf-8"?>
<!-- Generator: Adobe Illustrator 17.0.0, SVG Export Plug-In . SVG Version: 6.00 Build 0)  -->
<!DOCTYPE svg PUBLIC "-//W3C//DTD SVG 1.1//EN" "http://www.w3.org/Graphics/SVG/1.1/DTD/svg11.dtd">
<svg version="1.1" id="Capa_1" xmlns="http://www.w3.org/2000/svg" xmlns:xlink="http://www.w3.org/1999/xlink" x="0px" y="0px"
	 width="52.894px" height="52.894px" viewBox="0 0 52.894 52.894" enable-background="new 0 0 52.894 52.894" xml:space="preserve">
<g>
	<polygon fill="#209452" points="12.22,28.322 14.84,25.701 21.72,32.582 38.431,15.872 40.674,18.116 21.768,37.022 	"/>
	<g>
		<path fill="#209452" d="M26.447,52.894C11.864,52.894,0,41.03,0,26.447S11.864,0,26.447,0C41.03,0,52.894,11.864,52.894,26.447
			S41.03,52.894,26.447,52.894z M26.447,2C12.967,2,2,12.967,2,26.447c0,13.48,10.967,24.447,24.447,24.447
			c13.48,0,24.447-10.967,24.447-24.447C50.894,12.967,39.927,2,26.447,2z"/>
	</g>
</g>
</svg>
