<?xml version="1.0" encoding="UTF-8"?>
<svg id="Capa_1" xmlns="http://www.w3.org/2000/svg" version="1.1" viewBox="0 0 172.34 172.34">
  <!-- Generator: Adobe Illustrator 29.2.1, SVG Export Plug-In . SVG Version: 2.1.0 Build 116)  -->
  <path d="M145.87,77.12c9.12,9.75,8.32,10.21-.92,19.88-20.68,21.65-49.21,37.4-79.5,26.34-12.93-4.73-36.98-21.75-44.34-33.36-3.23-5.09,1.44-9.01,4.61-12.6,12.76-14.44,36.22-30.25,55.8-31.85,24.71-2.02,48.34,14.48,64.35,31.59ZM83.7,55.69c-14.16.81-27.98,9.04-38.69,17.75-1.92,1.56-12.54,11.03-12.9,12.4-.24.92.1,1.22.55,1.89,1.17,1.74,6.15,6.26,8,7.95,13.99,12.76,33,23.9,52.61,20.71,17.97-2.92,35.58-16.62,47.03-30.02-13.15-15.41-35.27-31.9-56.6-30.68Z"/>
  <path d="M82.35,66.28c28.6-4.19,32.29,36.92,7.07,40.28-27.89,3.72-31.58-36.69-7.07-40.28ZM84.35,76.21c-12.38,1.77-10.49,21.83,3.07,20.4s11.23-22.44-3.07-20.4Z"/>
</svg>