<?xml version="1.0" encoding="UTF-8"?>
<svg id="Capa_1" xmlns="http://www.w3.org/2000/svg" version="1.1" viewBox="0 0 378.038 378.836">
  <!-- Generator: Adobe Illustrator 29.1.0, SVG Export Plug-In . SVG Version: 2.1.0 Build 142)  -->
  <title>ionicons-v5-o</title>
  <path d="M266.478,137.191c0-8.862-2.875-16.722-8.287-23.681-2.959-3.806-6.036-7.524-8.934-11.374-6.287-8.347-6.483-18.903-.111-27.192,13.111-17.051,26.312-34.032,39.711-50.856,8.911-11.192,24.017-11.773,34.2-1.656,9.56,9.5,18.807,19.339,28.705,28.471,9.221,8.506,11.97,18.974,11.329,30.83-.92,16.994-6.902,32.517-14.357,47.536-13.722,27.651-31.993,52.229-52.021,75.516-35.242,40.98-73.617,78.75-116.598,111.646-21.645,16.566-44.359,31.463-70.168,40.904-12.261,4.485-24.812,7.605-38.08,5.667-7.189-1.05-13.45-3.89-18.627-9.087-10.211-10.248-20.519-20.399-30.714-30.664-11.06-11.139-10.061-25.917,2.39-35.64,15.977-12.477,31.989-24.915,48.014-37.331,10.453-8.1,20.683-7.986,31.074.249,2.905,2.303,5.793,4.632,8.719,6.911,16.645,12.979,37.436,11.827,52.413-3.051,23.336-23.181,46.588-46.443,69.874-69.671,6.655-6.636,13.354-13.226,19.947-19.923,7.865-7.991,11.554-16.974,11.521-27.604Z"/>
</svg>