<?xml version="1.0" encoding="UTF-8"?>
<svg xmlns="http://www.w3.org/2000/svg" version="1.1" viewBox="0 0 378.038 378.836">
  <!-- Generator: Adobe Illustrator 29.1.0, SVG Export Plug-In . SVG Version: 2.1.0 Build 142)  -->
  <g id="Capa_1">
    <title>ionicons-v5-o</title>
  </g>
  <g id="guiás">
    <g>
      <path d="M47.697,56.413c6.114,0,11.718,1.529,16.811,4.586,5.093,3.055,9.169,7.131,12.226,12.225,3.055,5.093,4.583,10.697,4.583,16.811,0,6.112-1.528,11.714-4.583,16.809-3.057,5.095-7.133,9.126-12.226,12.098-5.093,2.969-10.697,4.458-16.811,4.458-6.112,0-11.716-1.489-16.809-4.458-5.093-2.972-9.126-7.003-12.098-12.098-2.969-5.095-4.458-10.697-4.458-16.809,0-6.114,1.489-11.718,4.458-16.811,2.972-5.093,7.005-9.169,12.098-12.225,5.093-3.057,10.697-4.586,16.809-4.586Z"/>
      <path d="M308.095,69.598l-30.38,131.304c-4.634,24.202-8.754,47.887-13.388,72.603h-2.06c-5.664-24.716-10.814-48.402-16.992-72.603l-33.47-131.304h-54.066l-32.955,131.304c-6.179,23.686-11.328,47.887-15.963,72.603h-2.06c-4.634-24.716-8.239-48.402-13.388-72.603l-12.533-54.168H23.685l46.516,175.689h67.97l28.835-117.402c5.664-23.686,10.298-47.372,14.933-74.148h2.06c5.664,26.776,9.783,49.947,15.447,73.634l29.351,117.916h70.544l64.365-252.825h-55.611Z"/>
    </g>
  </g>
</svg>