<?xml version="1.0" encoding="UTF-8"?>
<svg id="Capa_1" xmlns="http://www.w3.org/2000/svg" version="1.1" viewBox="0 0 378.038 378.836">
  <!-- Generator: Adobe Illustrator 29.1.0, SVG Export Plug-In . SVG Version: 2.1.0 Build 142)  -->
  <title>ionicons-v5-o</title>
  <path d="M309.273,121.617c-6.599-49.215-43.531-90.07-91.918-101.427-6.409-1.504-12.988-2.286-19.488-3.402-5.845,0-11.689,0-17.533,0-.857.198-1.704.49-2.573.58-33.73,3.485-61.66,18.187-82.862,44.535-33.377,41.478-36.242,96.268-8.134,141.588,31.251,50.386,62.537,100.749,93.746,151.16,2.012,3.25,4.299,5.974,7.914,7.396h4.72c2.379-2.097,5.471-3.764,7.032-6.354,31.114-51.637,62.123-103.339,92.995-155.123,14.538-24.384,19.881-50.761,16.101-78.954ZM128.416,138.194c-.007-33.451,27.241-60.71,60.684-60.71,33.457,0,60.695,27.251,60.684,60.71-.011,33.566-27.099,60.646-60.681,60.659-33.52.014-60.682-27.136-60.688-60.659ZM87.821,136.754c0,.064-.003.128-.004.193,0-.064.003-.128.004-.193Z"/>
</svg>