<?xml version="1.0" encoding="UTF-8"?>
<svg id="Capa_1" xmlns="http://www.w3.org/2000/svg" version="1.1" viewBox="0 0 378.038 378.836">
  <!-- Generator: Adobe Illustrator 29.1.0, SVG Export Plug-In . SVG Version: 2.1.0 Build 142)  -->
  <title>ionicons-v5-o</title>
  <g id="Capa_11" data-name="Capa_1">
    <g>
      <path d="M360.415,163.184c-4.67-34.004-18.603-64.157-41.731-89.569-39.221-43.094-88.286-62.234-146.254-57.179-33.457,2.917-63.547,15.424-89.768,36.531-36.567,29.436-58.223,67.543-64.111,114.129-4.632,36.647,2.255,71.381,19.914,103.881,1.256,2.311,1.391,4.318.714,6.773-7.786,28.271-15.49,56.565-23.376,85.444,1.139-.18,1.654-.218,2.145-.346,28.683-7.392,57.373-14.763,86.031-22.246,2.248-.587,4.098-.469,6.1.603,3.717,1.991,7.436,4.112,11.273,5.714,9.092,3.794,18.447,6.855,28.133,9.039,24.421,5.506,48.914,6.396,73.424,1.404,42.267-8.609,76.985-29.888,103.276-64.104,29.544-38.447,40.814-82.121,34.228-130.074ZM316.516,254.467c-5.13,9.471-11.251,18.315-18.318,26.566-21.13,24.672-47.424,40.826-79.156,47.304-35.939,7.336-70.24,2.015-101.917-16.822-5.513-3.278-10.079-2.266-15.225-.907-14.637,3.867-29.262,7.777-43.897,11.653-.221.058-.501-.101-.943-.201,4.647-16.954,9.185-33.729,13.902-50.453.577-2.048-.248-3.342-1.163-4.729-10.99-16.668-18.365-34.872-21.517-54.51-5.702-35.539.309-69.086,19.523-99.763,21.6-34.485,52.543-56.509,92.252-64.842,41.162-8.637,79.671-.76,113.742,24.23,29.262,21.463,48.454,50.122,56.111,85.906,2.046,9.562,2.756,19.299,2.802,29.186.111,23.881-4.836,46.408-16.197,67.382Z"/>
      <path d="M273.991,226.967c-11.982-6.002-23.893-12.164-36.343-17.151-2.489-.997-5.633-1.642-7.74.849-3.812,4.503-7.484,9.147-10.917,13.945-3.983,5.568-8.063,7.503-12.696,5.67-25.007-9.893-43.923-26.846-57.769-49.702-3.045-5.027-2.823-6.368,1.208-10.876,3.816-4.268,7.831-8.414,10.169-13.785.751-1.726,1.592-3.474.81-5.375-5.02-12.198-9.996-24.415-15.179-36.543-1.446-3.384-4.389-5.007-8.144-5.605-12.409-1.977-21.137,3.037-27.424,13.524-8.633,14.401-9.863,29.476-4.729,45.267,4.235,13.027,12.038,24.029,20.034,34.868,19.505,26.442,42.646,48.387,74.449,59.495,11.944,4.172,23.765,8.767,36.382,8.968,2.432-.137,4.604-.034,6.69-.414,18.216-3.312,34.308-14.451,34.247-36.701-.007-2.612-.308-5.063-3.048-6.436Z"/>
    </g>
    <path d="M236.102,270.516c-12.616-.201-24.438-4.796-36.382-8.968-31.803-11.108-54.945-33.054-74.449-59.495-7.996-10.84-15.799-21.842-20.034-34.868-5.134-15.792-3.904-30.866,4.729-45.267,6.287-10.486,15.013-15.501,27.424-13.524,3.754.598,6.698,2.222,8.143,5.605,5.184,12.128,10.159,24.346,15.179,36.544.782,1.9-.059,3.649-.809,5.374-2.339,5.371-6.352,9.517-10.169,13.785-4.031,4.508-4.253,5.85-1.208,10.876,13.846,22.856,32.763,39.808,57.769,49.702,4.632,1.833,8.713-.103,12.696-5.67,3.433-4.798,7.105-9.441,10.916-13.945,2.109-2.491,5.252-1.846,7.74-.849,12.45,4.987,24.362,11.149,36.343,17.151,2.74,1.373,3.041,3.824,3.048,6.436.06,22.25-16.031,33.388-34.247,36.701-2.085.379-4.258.276-6.69.414Z"/>
  </g>
</svg>